<?xml version="1.0" encoding="utf-8"?>
<!-- Generator: Adobe Illustrator 24.3.0, SVG Export Plug-In . SVG Version: 6.00 Build 0)  -->
<svg version="1.1" id="Layer_1" xmlns="http://www.w3.org/2000/svg" xmlns:xlink="http://www.w3.org/1999/xlink" x="0px" y="0px"
	 viewBox="0 0 51.9641 51.9641" style="enable-background:new 0 0 51.9641 51.9641;" xml:space="preserve">
<style type="text/css">
	.st0{fill:#D1D3D4;}
	.st1{fill:#258CC0;}
	.st2{fill:#253846;}
</style>
<circle class="st0" cx="25.982" cy="25.982" r="25.982"/>
<ellipse class="st1" cx="25.6095" cy="25.329" rx="15.3317" ry="15.1268"/>
<g>
	<path class="st2" d="M11.1063,25.4912c0-7.9319,6.453-14.3849,14.3849-14.3849c5.4432,0,10.3676,3.049,12.8144,7.8463h-6.2757
		c-0.3611,0-0.6539,0.2924-0.6539,0.6539s0.2928,0.6539,0.6539,0.6539H40.53v-8.5002c0-0.3614-0.2928-0.6539-0.6539-0.6539
		c-0.3611,0-0.6539,0.2925-0.6539,0.6539v6.1466c-2.7428-4.9697-7.9677-8.1081-13.7311-8.1081
		c-8.6528,0-15.6926,7.0399-15.6926,15.6926c0,0.3614,0.2928,0.6539,0.6539,0.6539C10.8135,26.1451,11.1063,25.8526,11.1063,25.4912
		z"/>
	<path class="st2" d="M40.53,24.8373c-0.3611,0-0.6539,0.2925-0.6539,0.6539c0,7.9319-6.453,14.3849-14.3849,14.3849
		c-5.4432,0-10.3676-3.049-12.8144-7.8463h6.2759c0.361,0,0.6539-0.2925,0.6539-0.6539c0-0.3614-0.2928-0.6539-0.6539-0.6539
		h-8.5002v8.5002c0,0.3614,0.2928,0.6539,0.6539,0.6539c0.361,0,0.6539-0.2924,0.6539-0.6539v-6.1465
		c2.7428,4.9697,7.9676,8.1081,13.731,8.1081c8.6528,0,15.6926-7.0399,15.6926-15.6926
		C41.1839,25.1298,40.8911,24.8373,40.53,24.8373z"/>
</g>
</svg>
