<?xml version="1.0" encoding="utf-8"?>
<!-- Generator: Adobe Illustrator 24.3.0, SVG Export Plug-In . SVG Version: 6.00 Build 0)  -->
<svg version="1.1" id="Layer_1" xmlns="http://www.w3.org/2000/svg" xmlns:xlink="http://www.w3.org/1999/xlink" x="0px" y="0px"
	 viewBox="0 0 51.9641 51.9641" style="enable-background:new 0 0 51.9641 51.9641;" xml:space="preserve">
<style type="text/css">
	.st0{fill:#D1D3D4;}
	.st1{fill:#209FD2;}
	.st2{fill:#253846;}
</style>
<circle class="st0" cx="25.982" cy="25.982" r="25.982"/>
<path class="st1" d="M32.7053,12.4688l-3.5531-0.5453l-3.5355,1.1697l-2.7528,2.3876l-0.5726,1.7545l-2.5329-0.2814l-2.3922,0.9147
	l-1.6173,3.0828l-2.0405,1.5809l-2.3218,2.3383l-0.9147,3.3504l0.6333,2.625l2.744,2.6845l3.5883,0.7794l19.0673-0.3491
	l2.1108-0.4208c0,0,3.1661-1.2658,3.9401-3.4469c0.774-2.1811,0.7924-7.4047-2.0404-9.287
	c-2.8328-1.8823-3.5181-1.1959-3.5181-1.1959s0.7456-1.1042-0.7036-3.6586C34.8444,13.3971,32.7053,12.4688,32.7053,12.4688z"/>
<path class="st2" d="M36.591,34.8095H16.6006c-3.6796,0-6.673-2.9933-6.673-6.6729c0-3.0631,2.0799-5.7084,5.0087-6.4586
	c0.1815-2.9045,2.602-5.2119,5.5512-5.2119c0.5527,0,1.0939,0.0803,1.616,0.2391c1.1664-3.1118,4.1874-5.2369,7.5462-5.2369
	c4.2066,0,7.7194,3.3051,8.0326,7.4557c3.582,0.8756,6.1368,4.0969,6.1368,7.8245c0,3.943-2.8133,7.3409-6.6459,8.0081
	l-0.0174,0.0041L36.591,34.8095z M20.4876,17.5957c-2.4442,0-4.4325,1.9885-4.4325,4.4328l0.0162,0.5737l-0.4741,0.0869
	c-2.6306,0.4816-4.5398,2.7727-4.5398,5.4475c0,3.0565,2.4867,5.5432,5.5432,5.5432h19.5182l0.4013-0.0176
	c3.5119-0.3886,6.1693-3.3768,6.1693-6.9137c0-3.3345-2.3781-6.1978-5.6541-6.8086l-0.4526-0.0841l-0.0088-0.4604
	c-0.0717-3.748-3.1779-6.7974-6.9242-6.7974c-3.0615,0-5.7964,2.0537-6.6511,4.9943L22.82,18.2055l-0.5867-0.2518
	C21.6796,17.7162,21.0921,17.5957,20.4876,17.5957z"/>
</svg>
