<?xml version="1.0" encoding="utf-8"?>
<!-- Generator: Adobe Illustrator 26.0.3, SVG Export Plug-In . SVG Version: 6.00 Build 0)  -->
<svg version="1.1" xmlns="http://www.w3.org/2000/svg" xmlns:xlink="http://www.w3.org/1999/xlink" x="0px" y="0px"
	 viewBox="0 0 90 30" style="enable-background:new 0 0 90 30;" xml:space="preserve">
<style type="text/css">
	.st0{fill:#3DB5E6;}
	.st1{fill:#D8292F;}
</style>
<g id="Guides">
</g>
<g id="Image">
</g>
<g id="Paths">
	<path class="st0" d="M16.3367,17.7041c-0.8378,3.366-3.9033,5.7608-7.5137,5.7608c-3.6268,0-6.6659-2.5365-7.4694-5.9165
		c0.9662,0,1.8694,0.0044,2.2887,0.0044c0.1978,0,0.2362,0.0034,0.2477,0.0026c0.3155-0.0155,0.7111-0.1197,0.9743-0.7597
		l1.0029-2.6236l2.2274,5.3772c0.2003,0.4275,0.5346,0.4115,0.734,0.4115h0.0188c0.3891,0,0.5583-0.1506,0.7062-0.4326
		l2.5159-5.3087l0.8583,2.3857l0.0523,0.1139c0.1815,0.3981,0.312,0.7904,0.7611,0.8418c0.0926,0.0106,1.1676-0.0086,2.6169-0.0086
		C16.3582,17.5523,16.3582,17.5612,16.3367,17.7041L16.3367,17.7041z"/>
	<path class="st1" d="M16.5825,15.7228c0,0.04,0,0.142-0.0008,0.142h-0.0016h-2.3132l-1.3496-3.7711
		c-0.1202-0.2804-0.3008-0.7013-0.8272-0.7013c-0.3221,0-0.613,0.2657-0.7782,0.7046l-2.4465,5.6666l-2.3549-5.6325
		c-0.2305-0.5002-0.3899-0.7355-0.8509-0.7355c-0.3131,0-0.5428,0.1153-0.7929,0.7079L3.469,15.9184l-2.3222-0.0024
		c-0.0016-0.058-0.0025-0.1161-0.0025-0.1741c0-4.2407,3.438-7.6673,7.6786-7.6673S16.5825,11.4821,16.5825,15.7228L16.5825,15.7228
		z"/>
	<g>
		<path class="st0" d="M22.077,14.9339v4.0762c0,0.4847-0.3966,0.7601-0.7932,0.7601c-0.3525,0-0.661-0.2754-0.661-0.7601v-6.2024
			c0-0.5728,0.4847-0.7601,0.661-0.7601c0.3195,0,0.5068,0.1873,0.6941,0.3966l2.4236,3.272l2.5119-3.3932
			c0.3635-0.4516,1.2559-0.2753,1.2559,0.4848v6.2024c0,0.4847-0.3085,0.7601-0.661,0.7601c-0.3966,0-0.7051-0.2754-0.7051-0.7601
			v-4.0762l-1.8288,2.3135c-0.3966,0.4847-0.8924,0.4847-1.2559,0L22.077,14.9339z"/>
		<path class="st0" d="M34.4051,19.8804c-2.0381,0.0881-4.1533-1.267-4.1533-3.966c0-2.7102,2.1152-4.0431,4.1533-4.0431
			c1.9279,0.0991,3.944,1.4321,3.944,4.0431C38.3491,18.5253,36.333,19.8804,34.4051,19.8804z M34.2839,13.3034
			c-1.2339,0-2.5779,0.8704-2.5779,2.611c0,1.7296,1.344,2.6109,2.5779,2.6109c1.267,0,2.622-0.8813,2.622-2.6109
			C36.9059,14.1738,35.5508,13.3034,34.2839,13.3034z"/>
		<path class="st0" d="M41.9848,19.0541c0,0.9584-1.4652,0.9915-1.4652,0.0221v-6.2575c0-0.3856,0.2975-0.6721,0.661-0.6721h2.9304
			c2.7983,0,3.3711,3.7457,1.0356,4.6821l1.4652,1.7847c0.5729,0.8483-0.5729,1.6635-1.2339,0.8263l-1.6635-2.3796h-1.7296V19.0541z
			 M41.9848,15.7932h2.1262c1.4321,0,1.5203-2.3135,0-2.3135h-2.1262V15.7932z"/>
		<path class="st0" d="M48.8044,12.8077c0-0.3636,0.2865-0.7601,0.7491-0.7601h2.5449c1.4322,0,2.7211,0.9584,2.7211,2.7982
			c0,1.7406-1.2889,2.7101-2.7211,2.7101h-1.8398v1.4542c0,0.4847-0.3085,0.7601-0.7051,0.7601
			c-0.3635,0-0.7491-0.2754-0.7491-0.7601V12.8077z M50.2586,13.4357v2.7432h1.8398c0.7381,0,1.322-0.65,1.322-1.333
			c0-0.7711-0.5839-1.4101-1.322-1.4101L50.2586,13.4357L50.2586,13.4357z"/>
		<path class="st0" d="M56.8249,19.0872v-6.2575c0-0.3966,0.2864-0.6831,0.7822-0.6831c0.3856,0,0.6721,0.2864,0.6721,0.6831v2.4017
			h3.5914v-2.4017c0-0.3966,0.3525-0.6831,0.7491-0.6831c0.3856,0,0.6831,0.2864,0.6831,0.6831v6.2575
			c0,0.3855-0.2975,0.683-0.6831,0.683c-0.3966,0-0.7491-0.2975-0.7491-0.683v-2.4127h-3.5914v2.4127
			c0,0.3855-0.2865,0.683-0.6721,0.683C57.1114,19.7702,56.8249,19.4728,56.8249,19.0872z"/>
		<path class="st0" d="M66.3327,19.7702c-0.3856,0-0.6831-0.2975-0.6831-0.683v-6.2575c0-0.3966,0.2975-0.6831,0.6831-0.6831h3.955
			c1.0135,0,0.9914,1.4322,0,1.4322h-3.1728v1.6526h2.7762c0.9805,0,0.9805,1.4431,0,1.4431h-2.7762v1.6525h3.3601
			c1.0025,0,1.0796,1.4432,0,1.4432H66.3327z"/>
		<path class="st0" d="M78.4512,12.8738c0-0.9805,1.4432-1.0576,1.4432,0v3.9881c0,4.1202-6.6431,4.1202-6.6431,0v-3.9881
			c0-0.9914,1.4432-1.0355,1.4432,0v3.9881c0,2.1703,3.7567,2.3025,3.7567,0V12.8738z"/>
		<path class="st0" d="M82.1201,13.7992c0.2534-2.1373,3.4812-2.5229,5.0016-1.3551c0.7491,0.6059-0.044,1.5643-0.7051,1.0797
			c-0.8153-0.5178-2.6661-0.7601-2.8974,0.3855c-0.2975,1.8068,4.4948,0.7712,4.4177,3.7016
			c-0.0771,2.7983-4.1312,2.8644-5.6516,1.6085c-0.3636-0.2974-0.3525-0.7822-0.1542-1.0797
			c0.2864-0.2864,0.6059-0.3855,0.9804-0.0771c0.9034,0.6169,3.228,1.0797,3.3932-0.4847
			C86.3616,15.9474,81.7786,16.9279,82.1201,13.7992z"/>
	</g>
</g>
</svg>
