<?xml version="1.0" standalone="no"?>
<!DOCTYPE svg PUBLIC "-//W3C//DTD SVG 20010904//EN"
 "http://www.w3.org/TR/2001/REC-SVG-20010904/DTD/svg10.dtd">
<svg version="1.0" xmlns="http://www.w3.org/2000/svg"
 width="603.000000pt" height="103.000000pt" viewBox="0 0 603.000000 103.000000"
 preserveAspectRatio="xMidYMid meet">

<g transform="translate(0.000000,103.000000) scale(0.100000,-0.100000)"
fill="#000000" stroke="none">
<path d="M435 1010 c-218 -44 -389 -227 -412 -441 l-6 -59 102 0 101 0 0 28
c0 90 87 211 182 253 40 17 72 23 128 23 122 1 212 -54 272 -167 19 -35 23
-58 23 -137 0 -79 -4 -102 -23 -137 -45 -85 -137 -151 -234 -168 l-37 -7 -3
98 -3 99 -97 3 -98 3 0 -101 0 -100 -75 0 -75 0 0 65 0 66 -62 -3 -63 -3 -3
-62 -3 -63 66 0 65 0 0 -75 0 -75 75 0 75 0 0 75 0 75 95 0 94 0 3 -97 3 -98
50 3 c113 5 256 78 334 170 137 159 160 394 59 584 -39 73 -138 167 -213 203
-100 47 -223 64 -320 45z"/>
<path d="M3992 789 c-283 -55 -333 -439 -74 -566 75 -37 182 -39 254 -4 61 29
119 88 149 149 33 66 33 176 0 250 -54 120 -201 197 -329 171z m154 -134 c131
-77 120 -273 -21 -336 -127 -58 -265 33 -265 174 0 64 14 99 57 138 44 41 64
48 127 49 45 0 69 -6 102 -25z"/>
<path d="M1428 784 c-5 -4 -8 -138 -8 -297 l0 -289 143 4 c105 3 152 9 182 22
115 49 166 122 173 246 6 105 -15 175 -69 228 -62 63 -128 83 -284 89 -71 3
-133 2 -137 -3z m297 -130 c58 -30 80 -74 80 -159 0 -125 -57 -179 -199 -191
l-76 -7 0 193 0 192 78 -4 c53 -2 89 -10 117 -24z"/>
<path d="M2000 770 c-11 -11 -20 -29 -20 -40 0 -27 43 -70 70 -70 29 0 60 35
60 68 0 57 -69 83 -110 42z"/>
<path d="M2667 772 c-25 -28 -21 -67 9 -91 15 -12 32 -21 39 -21 23 0 65 41
65 64 0 12 -7 32 -16 44 -19 28 -74 30 -97 4z"/>
<path d="M3570 496 l0 -296 55 0 55 0 -2 293 -3 292 -52 3 -53 3 0 -295z"/>
<path d="M2890 665 c0 -54 0 -55 -30 -55 -29 0 -30 -2 -30 -45 0 -43 1 -45 30
-45 l30 0 0 -117 c0 -74 5 -127 13 -143 17 -35 73 -60 135 -60 l52 0 0 50 0
50 -40 0 c-51 0 -60 20 -60 136 l0 84 50 0 50 0 0 45 0 45 -50 0 -50 0 0 55 0
55 -50 0 -50 0 0 -55z"/>
<path d="M2285 606 c-64 -28 -115 -112 -115 -192 0 -141 141 -241 267 -189
l36 15 -7 -32 c-10 -52 -39 -73 -96 -73 -42 0 -54 5 -82 33 l-34 32 -32 -33
c-18 -18 -32 -38 -32 -44 0 -20 81 -71 131 -83 78 -19 152 2 204 58 45 48 55
106 55 319 l0 193 -54 0 c-30 0 -56 -5 -58 -11 -2 -6 -14 -5 -33 5 -36 19
-109 20 -150 2z m159 -117 c58 -69 16 -179 -68 -179 -54 0 -87 35 -93 96 -5
43 -2 54 22 82 22 27 34 32 70 32 36 0 48 -5 69 -31z"/>
<path d="M3225 605 c-39 -21 -75 -55 -75 -71 0 -7 14 -24 31 -39 l32 -26 26
25 c45 43 141 31 141 -17 0 -21 -4 -22 -73 -22 -116 0 -167 -43 -167 -141 0
-39 5 -51 33 -79 43 -43 96 -54 157 -32 26 10 46 12 48 7 2 -6 28 -10 58 -10
l54 0 0 153 c0 168 -9 201 -63 241 -38 28 -158 34 -202 11z m133 -241 c29 -8
30 -49 2 -64 -30 -16 -101 -8 -114 12 -8 13 -6 22 8 37 19 21 59 27 104 15z"/>
<path d="M4509 597 c-64 -34 -102 -93 -107 -166 -5 -72 10 -121 51 -168 78
-89 204 -96 295 -17 l37 32 -34 36 -34 35 -34 -29 c-55 -49 -129 -36 -162 27
-21 40 -14 108 15 142 21 26 33 31 69 31 31 0 51 -7 72 -24 l28 -24 33 29 c38
34 39 39 10 66 -64 58 -162 70 -239 30z"/>
<path d="M4915 606 c-74 -32 -121 -125 -113 -221 11 -131 111 -210 241 -191
47 7 132 60 132 83 0 5 -15 22 -32 37 l-33 28 -31 -26 c-44 -37 -101 -36 -140
3 -16 16 -29 34 -29 40 0 7 45 11 135 11 l135 0 0 53 c-1 86 -46 161 -113 186
-38 15 -115 13 -152 -3z m139 -108 c9 -12 16 -26 16 -30 0 -5 -34 -8 -75 -8
-41 0 -75 3 -75 8 0 4 7 18 16 30 22 32 96 32 118 0z"/>
<path d="M5315 601 c-22 -10 -49 -28 -59 -40 -19 -21 -19 -22 14 -56 l33 -34
29 24 c21 18 42 25 72 25 47 0 66 -13 66 -46 0 -19 -4 -21 -48 -16 -107 10
-182 -39 -189 -125 -2 -28 2 -58 9 -72 34 -64 116 -86 192 -53 37 17 46 18 46
6 0 -10 13 -14 50 -14 l50 0 0 159 c0 148 -1 160 -23 192 -12 19 -38 42 -57
51 -46 24 -133 23 -185 -1z m133 -237 c29 -8 30 -49 2 -64 -12 -6 -40 -10 -63
-8 -36 3 -42 7 -45 27 -6 42 42 62 106 45z"/>
<path d="M5782 604 c-12 -8 -22 -10 -22 -5 0 7 -23 11 -55 11 l-55 0 0 -205 0
-205 54 0 54 0 4 139 c4 161 12 181 78 181 64 0 70 -16 70 -178 l0 -142 55 0
55 0 0 148 c0 133 -2 152 -22 192 -15 29 -35 51 -58 62 -44 22 -128 23 -158 2z"/>
<path d="M1990 405 l0 -205 55 0 55 0 0 205 0 205 -55 0 -55 0 0 -205z"/>
<path d="M2660 405 l0 -205 55 0 55 0 0 205 0 205 -55 0 -55 0 0 -205z"/>
</g>
</svg>
