<?xml version="1.0" encoding="utf-8"?>
<!-- Generator: Adobe Illustrator 21.0.2, SVG Export Plug-In . SVG Version: 6.00 Build 0)  -->
<svg version="1.1" id="Layer_1" xmlns="http://www.w3.org/2000/svg" xmlns:xlink="http://www.w3.org/1999/xlink" x="0px" y="0px"
	 viewBox="0 0 80.7 80.7" style="enable-background:new 0 0 80.7 80.7;" xml:space="preserve">
<style type="text/css">
	.st0{fill:#E2E2E2;}
	.st1{fill:#0080FF;}
</style>
<circle class="st0" cx="40.4" cy="40.4" r="40.4"/>
<g id="XMLID_2638_">
	<g id="XMLID_2639_">
		<g>
			<g id="XMLID_44_">
				<g id="XMLID_48_">
					<path id="XMLID_49_" class="st1" d="M41.2,63.3v-9.4c10,0,17.7-9.9,13.9-20.3c-1.4-3.9-4.5-7-8.4-8.4
						c-10.5-3.8-20.3,3.9-20.3,13.9l0,0H17C17,23.2,32.4,10.8,49,16c7.3,2.3,13,8.1,15.3,15.3C69.4,48,57.1,63.3,41.2,63.3z"/>
				</g>
				<polygon id="XMLID_47_" class="st1" points="41.2,53.9 31.8,53.9 31.8,44.6 31.8,44.6 41.2,44.6 41.2,44.6 				"/>
				<polygon id="XMLID_46_" class="st1" points="31.8,61.1 24.6,61.1 24.6,61.1 24.6,53.9 31.8,53.9 				"/>
				<path id="XMLID_45_" class="st1" d="M24.6,53.9h-6l0,0v-6l0,0h6l0,0V53.9z"/>
			</g>
		</g>
	</g>
</g>
</svg>
