<?xml version="1.0" encoding="utf-8"?>
<!-- Generator: Adobe Illustrator 26.0.2, SVG Export Plug-In . SVG Version: 6.00 Build 0)  -->
<svg version="1.1" xmlns="http://www.w3.org/2000/svg" xmlns:xlink="http://www.w3.org/1999/xlink" x="0px" y="0px"
	 viewBox="0 0 90 30" style="enable-background:new 0 0 90 30;" xml:space="preserve">
<style type="text/css">
	.st0{fill:#0080FF;}
	.st1{fill-rule:evenodd;clip-rule:evenodd;fill:#0080FF;}
</style>
<g id="Guides">
</g>
<g id="Image">
</g>
<g id="Paths">
	<g id="XMLID_2369_">
		<g id="XMLID_2638_">
			<g id="XMLID_2639_">
				<g>
					<g id="XMLID_44_">
						<g id="XMLID_48_">
							<path id="XMLID_49_" class="st0" d="M7.3,22.7v-2.8c3,0,5.3-3,4.2-6.1c-0.4-1.2-1.4-2.1-2.5-2.5c-3.2-1.1-6.1,1.2-6.1,4.2
								l0,0H0c0-4.8,4.6-8.5,9.7-7c2.2,0.7,3.9,2.4,4.6,4.6C15.9,18.1,12.1,22.7,7.3,22.7z"/>
						</g>
						<polygon id="XMLID_47_" class="st1" points="7.3,19.9 4.5,19.9 4.5,17.1 4.5,17.1 7.3,17.1 7.3,17.1 						"/>
						<polygon id="XMLID_46_" class="st1" points="4.5,22.1 2.3,22.1 2.3,22.1 2.3,19.9 4.5,19.9 						"/>
						<path id="XMLID_45_" class="st1" d="M2.3,19.9H0.5l0,0v-1.8l0,0h1.8l0,0V19.9z"/>
					</g>
				</g>
			</g>
		</g>
		<g id="XMLID_2370_">
			<path id="XMLID_2635_" class="st0" d="M26.1,12.3c-0.8-0.6-1.9-0.9-3.1-0.9h-2.7v8.4H23c1.2,0,2.3-0.3,3.1-0.9
				c0.5-0.3,0.8-0.8,1.1-1.3c0.2-0.6,0.4-1.2,0.4-2c0-0.7-0.1-1.4-0.4-2C26.9,13.1,26.5,12.6,26.1,12.3z M21.9,12.9h0.8
				c0.9,0,1.7,0.2,2.3,0.5c0.6,0.4,1,1.1,1,2.2c0,1.1-0.3,1.9-1,2.3l0,0c-0.6,0.4-1.3,0.6-2.3,0.6h-0.8L21.9,12.9L21.9,12.9z"/>
			<path id="XMLID_2634_" class="st0" d="M29.4,11.3c-0.3,0-0.5,0.1-0.7,0.3c-0.2,0.2-0.3,0.4-0.3,0.6c0,0.3,0.1,0.5,0.3,0.7
				c0.2,0.2,0.4,0.3,0.7,0.3c0.3,0,0.5-0.1,0.7-0.3c0.2-0.2,0.3-0.4,0.3-0.7c0-0.3-0.1-0.5-0.3-0.6C29.9,11.4,29.6,11.3,29.4,11.3z"
				/>
			<rect id="XMLID_2564_" x="28.6" y="13.9" class="st0" width="1.5" height="5.9"/>
			<path id="XMLID_2561_" class="st0" d="M35.5,14.4c-0.4-0.4-1-0.6-1.5-0.6c-0.8,0-1.5,0.3-2,0.8c-0.5,0.6-0.8,1.3-0.8,2.1
				c0,0.8,0.3,1.6,0.8,2.1c0.5,0.6,1.2,0.8,2,0.8c0.6,0,1.1-0.2,1.5-0.5v0.1c0,0.5-0.1,0.9-0.4,1.1c-0.3,0.3-0.6,0.4-1.1,0.4
				c-0.7,0-1.1-0.3-1.7-1l-1,1l0,0c0.2,0.3,0.6,0.6,1,0.9c0.4,0.3,1,0.4,1.7,0.4c0.9,0,1.6-0.3,2.1-0.8c0.5-0.5,0.8-1.3,0.8-2.2
				v-5.4h-1.5L35.5,14.4L35.5,14.4z M35.1,17.9c-0.3,0.3-0.6,0.4-1,0.4c-0.4,0-0.8-0.1-1-0.4c-0.3-0.3-0.4-0.7-0.4-1.2
				s0.1-0.9,0.4-1.2c0.3-0.3,0.6-0.4,1-0.4c0.4,0,0.8,0.1,1,0.4c0.3,0.3,0.4,0.7,0.4,1.2S35.4,17.6,35.1,17.9z"/>
			<rect id="XMLID_2560_" x="38.3" y="13.9" class="st0" width="1.5" height="5.9"/>
			<path id="XMLID_2552_" class="st0" d="M39,11.3c-0.3,0-0.5,0.1-0.7,0.3c-0.2,0.2-0.3,0.4-0.3,0.6c0,0.3,0.1,0.5,0.3,0.7
				c0.2,0.2,0.4,0.3,0.7,0.3c0.3,0,0.5-0.1,0.7-0.3c0.2-0.2,0.3-0.4,0.3-0.7c0-0.3-0.1-0.5-0.3-0.6C39.5,11.4,39.3,11.3,39,11.3z"/>
			<path id="XMLID_2509_" class="st0" d="M43,12.3h-1.5v1.6h-0.9v1.4h0.9v2.5c0,0.8,0.2,1.3,0.5,1.6s0.8,0.5,1.6,0.5
				c0.2,0,0.5,0,0.7,0h0.1v-1.4l-0.5,0c-0.4,0-0.6-0.1-0.7-0.2c-0.1-0.1-0.2-0.4-0.2-0.8v-2.3h1.4v-1.4h-1.4L43,12.3L43,12.3z"/>
			<rect id="XMLID_2508_" x="51.4" y="11.4" class="st0" width="1.5" height="8.4"/>
			<path id="XMLID_2470_" class="st0" d="M68,17.7c-0.3,0.3-0.5,0.6-0.8,0.7l0,0c-0.2,0.1-0.5,0.2-0.8,0.2c-0.4,0-0.8-0.2-1.1-0.5
				S65,17.4,65,16.9c0-0.5,0.1-0.9,0.4-1.2c0.3-0.3,0.6-0.5,1.1-0.5c0.5,0,1,0.3,1.4,0.8l1-0.9l0,0c-0.6-0.8-1.5-1.2-2.4-1.2
				c-0.8,0-1.5,0.3-2.1,0.9s-0.9,1.3-0.9,2.2c0,0.9,0.3,1.6,0.9,2.2s1.3,0.9,2.1,0.9c1.1,0,2-0.5,2.5-1.3L68,17.7z"/>
			<path id="XMLID_2460_" class="st0" d="M74.1,14.7c-0.2-0.3-0.5-0.5-0.9-0.7c-0.4-0.2-0.8-0.3-1.2-0.3c-0.8,0-1.5,0.3-2,0.9
				c-0.5,0.6-0.8,1.3-0.8,2.2c0,0.9,0.3,1.6,0.8,2.2c0.5,0.6,1.3,0.9,2.2,0.9c1,0,1.8-0.4,2.4-1.2l0,0l-1-0.9l0,0
				c-0.1,0.1-0.2,0.2-0.3,0.3c-0.1,0.1-0.3,0.2-0.4,0.3c-0.2,0.1-0.5,0.2-0.8,0.2c-0.4,0-0.8-0.1-1-0.4c-0.2-0.2-0.4-0.5-0.4-0.9h4
				l0-0.6c0-0.4-0.1-0.8-0.2-1.1C74.5,15.4,74.4,15,74.1,14.7z M70.9,16.1c0.1-0.3,0.2-0.5,0.4-0.7c0.2-0.2,0.5-0.3,0.8-0.3
				c0.4,0,0.6,0.1,0.8,0.3c0.2,0.2,0.3,0.4,0.3,0.7L70.9,16.1L70.9,16.1z"/>
			<path id="XMLID_2456_" class="st0" d="M79.9,14.4L79.9,14.4c-0.4-0.4-1.1-0.6-1.9-0.6c-0.5,0-1,0.1-1.4,0.3c-0.4,0.2-0.8,0.5-1,1
				l0,0l1,0.9c0.4-0.6,0.8-0.8,1.4-0.8c0.3,0,0.6,0.1,0.8,0.2c0.2,0.2,0.3,0.4,0.3,0.6v0.3c-0.4-0.1-0.7-0.2-1.1-0.2
				c-0.7,0-1.3,0.2-1.8,0.5c-0.4,0.3-0.7,0.9-0.7,1.5c0,0.6,0.2,1,0.6,1.3c0.4,0.3,0.9,0.5,1.4,0.5s1.1-0.2,1.6-0.6v0.5h1.5V16
				C80.6,15.3,80.3,14.8,79.9,14.4z M77.2,17.6c0.2-0.1,0.4-0.2,0.7-0.2c0.4,0,0.7,0.1,1.1,0.2v0.6c-0.3,0.3-0.8,0.4-1.3,0.4
				c-0.3,0-0.5-0.1-0.6-0.2C77.1,18.4,77,18.2,77,18C77,17.9,77.1,17.7,77.2,17.6z"/>
			<path id="XMLID_2454_" class="st0" d="M86.3,14.5c-0.4-0.5-1-0.7-1.7-0.7c-0.6,0-1.1,0.2-1.4,0.5v-0.4h-1.5v5.9h1.5v-3.3
				c0-0.4,0.1-0.8,0.3-1.1c0.2-0.3,0.5-0.4,0.9-0.4c0.3,0,0.6,0.1,0.8,0.3c0.2,0.2,0.3,0.5,0.3,0.9v3.4h1.5v-3.4
				C86.9,15.6,86.7,14.9,86.3,14.5z"/>
			<path id="XMLID_2450_" class="st0" d="M49.6,14.4L49.6,14.4c-0.4-0.4-1.1-0.6-1.9-0.6c-0.5,0-1,0.1-1.4,0.3c-0.4,0.2-0.8,0.5-1,1
				l0,0l1,0.9c0.4-0.6,0.8-0.8,1.4-0.8c0.3,0,0.6,0.1,0.8,0.2s0.3,0.4,0.3,0.6v0.3c-0.4-0.1-0.7-0.2-1.1-0.2c-0.7,0-1.3,0.2-1.8,0.5
				s-0.7,0.9-0.7,1.5c0,0.6,0.2,1,0.6,1.3c0.4,0.3,0.9,0.5,1.4,0.5c0.6,0,1.1-0.2,1.6-0.6v0.5h1.5V16C50.2,15.3,50,14.8,49.6,14.4z
				 M46.9,17.6c0.2-0.1,0.4-0.2,0.7-0.2c0.4,0,0.7,0.1,1.1,0.2v0.6c-0.3,0.3-0.8,0.4-1.3,0.4c-0.3,0-0.5-0.1-0.6-0.2
				c-0.1-0.1-0.2-0.2-0.2-0.4C46.7,17.9,46.7,17.7,46.9,17.6z"/>
			<path id="XMLID_2371_" class="st0" d="M58.3,20C56,20,54,18,54,15.6s1.9-4.3,4.3-4.3c2.4,0,4.3,1.9,4.3,4.3S60.7,20,58.3,20z
				 M58.3,12.8c-1.6,0-2.8,1.3-2.8,2.8s1.3,2.8,2.8,2.8c1.6,0,2.8-1.3,2.8-2.8S59.9,12.8,58.3,12.8z"/>
		</g>
	</g>
</g>
</svg>
