<?xml version="1.0" encoding="utf-8"?>
<!-- Generator: Adobe Illustrator 24.3.0, SVG Export Plug-In . SVG Version: 6.00 Build 0)  -->
<svg version="1.1" id="Layer_1" xmlns="http://www.w3.org/2000/svg" xmlns:xlink="http://www.w3.org/1999/xlink" x="0px" y="0px"
	 viewBox="0 0 51.9641 51.9641" style="enable-background:new 0 0 51.9641 51.9641;" xml:space="preserve">
<style type="text/css">
	.st0{fill:#D1D3D4;}
	.st1{fill:#3EB3E3;}
	.st2{fill:#A3D8EE;}
	.st3{fill:#253746;}
</style>
<circle class="st0" cx="25.982" cy="25.982" r="25.982"/>
<ellipse class="st1" cx="25.9962" cy="26.1472" rx="17.105" ry="17.0642"/>
<polygon class="st2" points="18.8811,24.4958 16.2389,27.3582 22.7343,33.7435 36.6059,19.872 33.4132,17.1197 29.1196,21.8536 
	22.9545,28.7894 "/>
<g>
	<g>
		<path class="st3" d="M26.2282,43.2114c-9.7895,0-17.7538-7.9642-17.7538-17.7538S16.4387,7.7038,26.2282,7.7038
			S43.982,15.668,43.982,25.4576S36.0178,43.2114,26.2282,43.2114z M26.2282,9.1241c-9.0066,0-16.3335,7.3272-16.3335,16.3335
			S17.2217,41.791,26.2282,41.791s16.3335-7.3272,16.3335-16.3335S35.2348,9.1241,26.2282,9.1241z"/>
	</g>
	<g>
		<path class="st3" d="M22.6192,34.6514c-0.1886,0-0.3689-0.0749-0.5021-0.2081l-6.7374-6.7381
			c-0.1332-0.1332-0.2081-0.3138-0.2081-0.5021c0-0.1883,0.0749-0.3689,0.2081-0.5021l3.0126-3.0122
			c0.2774-0.2774,0.7268-0.2774,1.0042,0l3.2227,3.2227l10.4401-10.44c0.2774-0.2774,0.7268-0.2774,1.0042,0l3.0126,3.0126
			c0.2774,0.2774,0.2774,0.7268,0,1.0042L23.1213,34.4433C22.9882,34.5765,22.8078,34.6514,22.6192,34.6514z M16.886,27.2031
			l5.7332,5.7339l12.9505-12.9509l-2.0084-2.0084l-10.44,10.44c-0.2774,0.2774-0.7268,0.2774-1.0042,0l-3.2227-3.2227
			L16.886,27.2031z"/>
	</g>
</g>
</svg>
