<?xml version="1.0" encoding="utf-8"?>
<!-- Generator: Adobe Illustrator 24.3.0, SVG Export Plug-In . SVG Version: 6.00 Build 0)  -->
<svg version="1.1" id="Layer_1" xmlns="http://www.w3.org/2000/svg" xmlns:xlink="http://www.w3.org/1999/xlink" x="0px" y="0px"
	 viewBox="0 0 51.9641 51.9641" style="enable-background:new 0 0 51.9641 51.9641;" xml:space="preserve">
<style type="text/css">
	.st0{fill:#D1D3D4;}
	.st1{fill:#258CC0;}
	.st2{fill:#573A72;}
	.st3{fill:#253746;}
</style>
<circle class="st0" cx="25.982" cy="25.982" r="25.982"/>
<g>
	<polygon class="st1" points="16.3534,32.0921 19.7387,29.5325 20.9772,33.1655 21.7204,35.9729 18.1699,38.7802 16.3534,38.8628 
		16.0231,36.5508 	"/>
	<polygon class="st1" points="31.6286,29.4499 29.9772,36.138 33.8579,38.5325 35.179,38.7802 35.757,38.0371 35.2616,31.6793 	"/>
	<path class="st2" d="M25.2433,7.5417c0,0-3.1376,4.2385-4.5688,8.6422s-0.9908,8.422-0.9908,8.422l0.2752,5.0092l2.5321,6.9358
		l6.9358-0.3303c0,0,2.0367-4.0183,2.5872-8.2569s0.055-8.2018-0.7706-11.5596c-0.8257-3.3578-5.1743-9.1376-5.1743-9.1376
		L25.2433,7.5417z"/>
	<ellipse class="st1" cx="25.7712" cy="19.2665" rx="2.94" ry="2.6972"/>
	<g>
		<path class="st3" d="M35.1037,31.107l-2.75-2.0468c0.2784-1.8617,0.4256-3.8639,0.4256-5.9343
			c0-7.3778-4.1013-13.5564-5.8647-15.8703c-0.2479-0.3254-0.6249-0.512-1.0341-0.512s-0.7862,0.1866-1.0341,0.512
			c-1.7633,2.3141-5.8646,8.4929-5.8646,15.8703c0,2.0787,0.1484,4.0887,0.4289,5.9568l-2.7018,2.0254
			c-0.7321,0.5488-1.1691,1.4227-1.1691,2.3376v4.6463c0,0.5477,0.286,1.0333,0.7651,1.2988
			c0.2278,0.1262,0.4746,0.189,0.7207,0.189c0.2716,0,0.5424-0.0765,0.786-0.2288l4.133-2.5836
			c0.0632,0.0235,0.1306,0.0372,0.2002,0.0372h7.4716c0.0793,0,0.1562-0.0164,0.2267-0.0466l4.1679,2.5969
			c0.2432,0.1515,0.5133,0.2276,0.7842,0.2276c0.2465,0,0.4937-0.0631,0.7217-0.1896c0.4785-0.2657,0.7641-0.751,0.7641-1.2982
			v-4.6442C36.2809,32.5318,35.8408,31.6557,35.1037,31.107z M22.3711,13.6351c1.2267-2.6791,2.6519-4.7091,3.3923-5.6807
			c0.0364-0.0478,0.0837-0.0578,0.117-0.0578c0.0333,0,0.0806,0.01,0.117,0.0578c0.7404,0.9715,2.1655,3.0014,3.3924,5.6807
			c1.484,3.2408,2.2364,6.434,2.2364,9.4907c0,4.8916-0.8794,9.5356-2.3621,12.5257h-6.7672
			c-1.4828-2.99-2.3621-7.634-2.3621-12.5257C20.1347,20.0691,20.8871,16.876,22.3711,13.6351z M17.2002,38.3733
			c-0.1495,0.0935-0.2852,0.0373-0.3366,0.0089c-0.0514-0.0285-0.1709-0.1138-0.1709-0.2902v-4.6463
			c0-0.5538,0.2645-1.0827,0.7077-1.4149l2.2271-1.6695c0.3926,2.0665,0.9561,3.9215,1.6683,5.4521L17.2002,38.3733z
			 M35.1278,38.0947c0,0.1763-0.1194,0.2616-0.1707,0.2901c-0.0514,0.0286-0.1869,0.0847-0.3365-0.0085l-4.1462-2.5834
			c0.7106-1.5326,1.2726-3.3888,1.6636-5.4558l2.2773,1.6949c0.4462,0.3322,0.7126,0.8625,0.7126,1.4186V38.0947z"/>
		<path class="st3" d="M25.8083,22.739c1.8698,0,3.3909-1.5211,3.3909-3.3909c0-1.8698-1.5211-3.3909-3.3909-3.3909
			c-1.8697,0-3.3908,1.5211-3.3908,3.3909C22.4175,21.2179,23.9386,22.739,25.8083,22.739z M25.8083,17.1103
			c1.2339,0,2.2378,1.0039,2.2378,2.2378c0,1.2339-1.0039,2.2378-2.2378,2.2378c-1.2339,0-2.2378-1.0039-2.2378-2.2378
			C23.5705,18.1142,24.5744,17.1103,25.8083,17.1103z"/>
		<path class="st3" d="M25.7362,38.0013c-0.3184,0-0.5765,0.2581-0.5765,0.5765v5.5708c0,0.3184,0.2581,0.5765,0.5765,0.5765
			c0.3184,0,0.5765-0.2581,0.5765-0.5765v-5.5708C26.3128,38.2594,26.0546,38.0013,25.7362,38.0013z"/>
		<path class="st3" d="M22.994,37.713c-0.3184,0-0.5765,0.2581-0.5765,0.5765v3.1097c0,0.3184,0.2581,0.5765,0.5765,0.5765
			c0.3184,0,0.5765-0.2581,0.5765-0.5765v-3.1097C23.5705,37.9711,23.3124,37.713,22.994,37.713z"/>
		<path class="st3" d="M28.2408,37.713c-0.3184,0-0.5765,0.2581-0.5765,0.5765v3.1097c0,0.3184,0.2581,0.5765,0.5765,0.5765
			c0.3184,0,0.5765-0.2581,0.5765-0.5765v-3.1097C28.8173,37.9711,28.5592,37.713,28.2408,37.713z"/>
	</g>
</g>
</svg>
