<?xml version="1.0" encoding="utf-8"?>
<!-- Generator: Adobe Illustrator 24.3.0, SVG Export Plug-In . SVG Version: 6.00 Build 0)  -->
<svg version="1.1" id="Layer_1" xmlns="http://www.w3.org/2000/svg" xmlns:xlink="http://www.w3.org/1999/xlink" x="0px" y="0px"
	 viewBox="0 0 51.9641 51.9641" style="enable-background:new 0 0 51.9641 51.9641;" xml:space="preserve">
<style type="text/css">
	.st0{fill:#D1D3D4;}
	.st1{fill:#3E9C5E;}
	.st2{fill:#253746;}
</style>
<circle class="st0" cx="25.982" cy="25.982" r="25.982"/>
<polygon class="st1" points="32.3123,8.3123 23.8108,7.968 14.2573,28.5692 23.2848,28.5692 18.771,42.4407 38.0371,21.083 
	27.7985,20.7527 27.355,20.6789 "/>
<g>
	<g>
		<g>
			<path class="st2" d="M16.5648,36.6295c-0.0957,0-0.1919-0.0335-0.2693-0.1019c-3.3187-2.9257-5.2221-7.139-5.2221-11.5593
				c0-5.1811,2.5826-9.9848,6.9084-12.8499c0.1877-0.1242,0.4407-0.0729,0.5648,0.1147c0.1243,0.1876,0.073,0.4405-0.1147,0.5648
				c-4.0972,2.7138-6.5433,7.2634-6.5433,12.1703c0,4.1864,1.8028,8.1767,4.946,10.9479c0.1689,0.1489,0.1851,0.4063,0.0362,0.5752
				C16.7901,36.5829,16.6777,36.6295,16.5648,36.6295z"/>
		</g>
		<g>
			<path class="st2" d="M26.4818,40.3767c-0.2251,0-0.4076-0.1825-0.4076-0.4076s0.1825-0.4076,0.4076-0.4076
				c8.0468,0,14.5933-6.5465,14.5933-14.5933c0-4.8301-2.3866-9.3406-6.3842-12.0654c-0.1859-0.1268-0.2339-0.3803-0.1071-0.5663
				c0.1267-0.1862,0.3804-0.234,0.5663-0.1072c4.2204,2.8768,6.7402,7.6391,6.7402,12.739
				C41.8903,33.4646,34.978,40.3767,26.4818,40.3767z"/>
		</g>
	</g>
	<g>
		<path class="st2" d="M18.2567,43.2515c-0.0725,0-0.1456-0.0193-0.2112-0.059c-0.1667-0.1011-0.2384-0.306-0.1713-0.489
			l5.0092-13.6516h-8.6918c-0.1398,0-0.2698-0.0716-0.3445-0.1898c-0.0747-0.118-0.0837-0.2662-0.0238-0.3926l9.6191-20.2687
			c0.0675-0.1422,0.2108-0.2328,0.3682-0.2328h8.932c0.1398,0,0.2697,0.0716,0.3445,0.1897
			c0.0747,0.1182,0.0837,0.2663,0.0238,0.3926l-5.756,12.1286h10.7126c0.1614,0,0.3076,0.0952,0.3728,0.2428
			c0.0653,0.1476,0.0372,0.3198-0.0714,0.4391L18.5583,43.1184C18.4787,43.2057,18.3684,43.2515,18.2567,43.2515z M14.8363,28.2368
			h8.631c0.1332,0,0.2579,0.065,0.3342,0.1742c0.0762,0.1092,0.0943,0.2487,0.0484,0.3738l-4.4937,12.2465L37.1454,21.494H26.7105
			c-0.1398,0-0.2698-0.0716-0.3445-0.1897c-0.0747-0.1182-0.0837-0.2663-0.0238-0.3926l5.756-12.1286h-8.0297L14.8363,28.2368z"/>
	</g>
</g>
</svg>
