<?xml version="1.0" encoding="utf-8"?>
<!-- Generator: Adobe Illustrator 24.3.0, SVG Export Plug-In . SVG Version: 6.00 Build 0)  -->
<svg version="1.1" id="Layer_1" xmlns="http://www.w3.org/2000/svg" xmlns:xlink="http://www.w3.org/1999/xlink" x="0px" y="0px"
	 viewBox="0 0 51.9641 51.9641" style="enable-background:new 0 0 51.9641 51.9641;" xml:space="preserve">
<style type="text/css">
	.st0{fill:#D1D3D4;}
	.st1{fill:#3EB3E3;}
	.st2{fill:#278EC1;}
	.st3{fill:#C4E1EA;}
	.st4{fill:#D82B2E;}
	.st5{fill:#EFBABC;}
	.st6{fill:#EA5357;}
	.st7{fill:#253746;}
</style>
<circle class="st0" cx="25.982" cy="25.982" r="25.982"/>
<polygon class="st1" points="30.4811,10.8096 15.267,10.2768 14.823,42.1554 38.177,41.9482 38.5618,18.0023 "/>
<path class="st2" d="M23.5548,33.7788l-2.7527-4.7951c0,0,1.8944-0.7992,3.3447-0.592c1.4504,0.2072,2.3384,0.9768,2.3384,0.9768
	L23.5548,33.7788z"/>
<path class="st3" d="M24.0284,34.282l-5.8015-1.0064c0,0,0.296,3.7887,1.8056,4.8839c1.5096,1.0952,3.6999,1.2432,3.6999,1.2432
	L24.0284,34.282z"/>
<path class="st4" d="M20.7429,29.6053c0,0-1.48,0.6216-1.8944,1.628c-0.4144,1.0064-0.592,2.0424-0.592,2.0424l5.6831,0.5032
	L20.7429,29.6053z"/>
<path class="st5" d="M26.4852,29.1317l-2.5456,4.6471l4.7063,2.072c0,0,0.9472-1.0952,0.74-2.6048
	C29.1787,31.6772,27.9948,29.7829,26.4852,29.1317z"/>
<path class="st6" d="M23.9396,33.7788l-0.148,5.5943c0,0,1.9536-0.148,3.3447-1.0064c1.3912-0.8584,1.5392-2.5456,1.5392-2.5456
	L23.9396,33.7788z"/>
<g>
	<path class="st7" d="M14.5862,42.6882V10.1288h16.5165l7.7255,7.7255v24.8339H14.5862z M15.6222,41.6523h22.1404V18.0911h-6.8671
		v-6.9263H15.6222V41.6523z M31.9315,17.0551h4.6175l-4.6175-4.6175V17.0551z"/>
	<path class="st7" d="M22.3413,34.3116l0.2664-0.2664l-0.5624-0.0592L22.3413,34.3116z M23.5252,38.5147v-0.6216l-0.3256,0.296
		L23.5252,38.5147z M23.5252,37.0347v-0.6216l-0.3256,0.296L23.5252,37.0347z M23.5252,39.1659v-0.3848l-0.444-0.4736l-0.6216,0.592
		l0.0888,0.0888C22.8444,39.1067,23.17,39.1363,23.5252,39.1659z M23.5252,37.6267v-0.3552l-0.444-0.444l-0.6216,0.592
		l0.6216,0.6216L23.5252,37.6267z M23.5252,36.1468v-0.3552l-0.444-0.444l-0.6216,0.6216l0.6216,0.6216L23.5252,36.1468z
		 M23.5252,35.5252v-0.6216l-0.296,0.296L23.5252,35.5252z M23.5252,34.6372V34.134l-0.6512-0.0592L22.4893,34.43l0.592,0.6216
		L23.5252,34.6372z M24.4724,33.8972l-0.1776-0.3848l-0.148,0.2664L24.4724,33.8972z M25.8932,34.4596l-0.9768-2.1312
		l-0.5328,0.9768l0.3256,0.7104L25.8932,34.4596z M25.6564,30.9372l1.8944,4.2031l1.1544,0.4736l-2.516-5.6535L25.6564,30.9372z
		 M26.1596,34.578l1.184,0.4736l-1.776-3.9071l-0.5032,0.9472L26.1596,34.578z M27.758,30.4637l1.2432,2.7528
		C28.8531,32.1804,28.4091,31.2332,27.758,30.4637z M27.3732,30.0493c-0.2664-0.2664-0.5624-0.4736-0.888-0.6808l-0.1776,0.3552
		l2.516,5.6535c0.148-0.4736,0.2072-0.9768,0.2072-1.5096c0-0.0592,0-0.0888,0-0.148L27.3732,30.0493z M28.5571,36.0876
		l-4.5287-1.8056v4.8839C26.0412,39.0771,27.758,37.8339,28.5571,36.0876z M19.2333,34.4596l-0.7104-0.74
		c0,0.0592,0,0.1184,0,0.1776c0,0.3848,0.0296,0.7696,0.1184,1.1248L19.2333,34.4596z M19.0261,36.1468l0.2072-0.2072
		l-0.5032-0.5032C18.8189,35.6732,18.9077,35.91,19.0261,36.1468z M19.9437,36.6795l-0.592-0.592l-0.2664,0.2664
		c0.148,0.2664,0.296,0.5032,0.4736,0.74L19.9437,36.6795z M19.9733,35.1996l-0.6216-0.6216l-0.6216,0.592l0.6216,0.6216
		L19.9733,35.1996z M19.3813,34.3116l0.5032-0.5032l-1.0952-0.0888L19.3813,34.3116z M20.7133,35.9396l-0.592-0.592l-0.6216,0.592
		l0.592,0.592L20.7133,35.9396z M20.2693,37.8339l0.4144-0.4144l-0.6216-0.6216l-0.4144,0.3848
		C19.8549,37.4195,20.0621,37.6267,20.2693,37.8339z M20.7429,34.4596l-0.592-0.6216l-0.6216,0.6216l0.592,0.6216L20.7429,34.4596z
		 M21.4533,36.6795l-0.6216-0.6216l-0.6216,0.592l0.6216,0.6216L21.4533,36.6795z M21.4533,35.1996l-0.592-0.592l-0.6216,0.6216
		l0.592,0.592L21.4533,35.1996z M20.8613,34.3412l0.3848-0.3848l-0.8288-0.0888L20.8613,34.3412z M18.0197,33.8972
		c0-3.1671,2.5752-5.7719,5.7719-5.7719c3.1671,0,5.7719,2.5752,5.7719,5.7719c0,3.1671-2.5752,5.7719-5.7719,5.7719
		S18.0197,37.0939,18.0197,33.8972z M21.1573,38.4555l0.296-0.296l-0.6216-0.6216l-0.4144,0.4144
		C20.6541,38.1299,20.8909,38.3075,21.1573,38.4555z M22.1933,37.4491l-0.6216-0.6216l-0.6216,0.6216l0.6216,0.6216L22.1933,37.4491
		z M22.1933,35.9396l-0.6216-0.6216l-0.6216,0.6216l0.6216,0.6216L22.1933,35.9396z M23.7916,28.6285
		c-0.9472,0-1.8352,0.2368-2.6048,0.6808l2.5752,4.0847l2.2792-4.2327C25.3604,28.8061,24.5908,28.6285,23.7916,28.6285z
		 M18.5525,33.1868l4.7063,0.4144l-2.5456-3.9959C19.5885,30.4341,18.7597,31.7068,18.5525,33.1868z M21.6901,38.1891l0.6216,0.6216
		l0.6216-0.592l-0.6216-0.6216L21.6901,38.1891z M21.7197,36.6795l0.6216,0.6216l0.6216-0.592l-0.6216-0.6216L21.7197,36.6795z
		 M22.3413,34.578l-0.6216,0.6216l0.6216,0.6216l0.6216-0.6216L22.3413,34.578z M22.1637,38.9291l-0.592-0.6216l-0.2664,0.2368
		C21.5717,38.6923,21.8677,38.8107,22.1637,38.9291z M22.2229,34.4596l-0.444-0.444l-0.2664-0.0296l-0.5032,0.5032l0.592,0.592
		L22.2229,34.4596z"/>
	<g>
		<polygon class="st7" points="33.2635,23.2118 18.0197,23.2118 18.0197,22.1166 33.2635,22.1166 		"/>
	</g>
	<g>
		<polygon class="st7" points="33.2635,26.4677 18.0197,26.4677 18.0197,25.3726 33.2635,25.3726 		"/>
	</g>
	<g>
		<polygon class="st7" points="33.2635,19.8671 18.0197,19.8671 18.0197,18.7719 33.2635,18.7719 		"/>
	</g>
	<g>
		<polygon class="st7" points="28.5571,16.5223 18.0197,16.5223 18.0197,15.4271 28.5571,15.4271 		"/>
	</g>
	<g>
		<polygon class="st7" points="35.6906,30.2861 31.7835,30.2861 31.7835,29.2797 35.6906,29.2797 		"/>
	</g>
	<g>
		<polygon class="st7" points="35.6906,32.95 31.7835,32.95 31.7835,31.9436 35.6906,31.9436 		"/>
	</g>
	<g>
		<polygon class="st7" points="35.6906,35.614 31.7835,35.614 31.7835,34.6076 35.6906,34.6076 		"/>
	</g>
	<g>
		<polygon class="st7" points="35.6906,38.3075 31.7835,38.3075 31.7835,37.2715 35.6906,37.2715 		"/>
	</g>
</g>
</svg>
