<?xml version="1.0" encoding="utf-8"?>
<!-- Generator: Adobe Illustrator 24.3.0, SVG Export Plug-In . SVG Version: 6.00 Build 0)  -->
<svg version="1.1" id="Layer_1" xmlns="http://www.w3.org/2000/svg" xmlns:xlink="http://www.w3.org/1999/xlink" x="0px" y="0px"
	 viewBox="0 0 51.9641 51.9641" style="enable-background:new 0 0 51.9641 51.9641;" xml:space="preserve">
<style type="text/css">
	.st0{fill:#D1D3D4;}
	.st1{fill:#209FD2;}
	.st2{fill:#206F98;}
	.st3{fill:#EA5357;}
	.st4{fill:#C63E47;}
	.st5{fill:#253846;}
	.st6{fill:#253746;}
</style>
<circle class="st0" cx="25.982" cy="25.982" r="25.982"/>
<path class="st1" d="M37.9949,40.829h-25.22c-1.6599,0-2.945-1.3386-2.945-2.945v-25.22c0-1.6599,1.3386-2.945,2.945-2.945h25.22
	c1.6599,0,2.945,1.3386,2.945,2.945v25.22C40.9399,39.4903,39.6013,40.829,37.9949,40.829z"/>
<path class="st2" d="M37.1917,37.6698H14.0065c-0.3213,0-0.5355-0.2677-0.5355-0.5355V13.9491c0-0.3213,0.2677-0.5355,0.5355-0.5355
	h23.1853c0.3213,0,0.5355,0.2677,0.5355,0.5355v23.1853C37.7272,37.402,37.4594,37.6698,37.1917,37.6698z"/>
<circle class="st3" cx="25.6794" cy="25.3007" r="6.8538"/>
<circle class="st4" cx="25.4652" cy="25.4078" r="3.6946"/>
<g>
	<path class="st5" d="M36.0673,38.2052H14.8632c-1.2315,0-2.2489-1.0174-2.2489-2.2489V14.7522
		c0-1.2315,1.0174-2.2489,2.2489-2.2489h21.2041c1.2315,0,2.2489,1.0174,2.2489,2.2489v2.0883c0,0.3213-0.2142,0.5355-0.5355,0.5355
		s-0.5355-0.2142-0.5355-0.5355v-2.0883c0-0.6425-0.5355-1.178-1.178-1.178H14.8632c-0.6425,0-1.178,0.5355-1.178,1.178v21.2041
		c0,0.6425,0.5355,1.178,1.178,1.178h21.2041c0.6425,0,1.178-0.5355,1.178-1.178v-2.356c0-0.3213,0.2142-0.5355,0.5355-0.5355
		s0.5355,0.2142,0.5355,0.5355v2.356C38.3162,37.1878,37.2988,38.2052,36.0673,38.2052z"/>
</g>
<g>
	<path class="st5" d="M37.7807,29.1025c-0.3213,0-0.5355-0.2142-0.5355-0.5355v-6.1577c0-0.3213,0.2142-0.5355,0.5355-0.5355
		s0.5355,0.2142,0.5355,0.5355v6.1577C38.3162,28.8347,38.0484,29.1025,37.7807,29.1025z"/>
</g>
<g>
	<path class="st5" d="M25.4652,32.9577c-4.1766,0-7.6035-3.4269-7.6035-7.6035s3.4269-7.6035,7.6035-7.6035
		s7.6035,3.4269,7.6035,7.6035S29.6418,32.9577,25.4652,32.9577z M25.4652,18.8217c-3.5876,0-6.5326,2.945-6.5326,6.5326
		s2.945,6.5326,6.5326,6.5326s6.5326-2.945,6.5326-6.5326S29.0528,18.8217,25.4652,18.8217z"/>
</g>
<g>
	<path class="st5" d="M25.4652,29.6379c-2.356,0-4.2836-1.9276-4.2836-4.2836s1.9276-4.2836,4.2836-4.2836
		s4.2836,1.9276,4.2836,4.2836S27.8212,29.6379,25.4652,29.6379z M25.4652,22.1415c-1.767,0-3.2127,1.4457-3.2127,3.2127
		c0,1.767,1.4457,3.2127,3.2127,3.2127c1.767,0,3.2127-1.4457,3.2127-3.2127C28.678,23.5873,27.2322,22.1415,25.4652,22.1415z"/>
</g>
<g>
	<path class="st5" d="M37.1917,41.6857h-23.453c-2.5166,0-4.6049-2.0883-4.6049-4.6049v-23.453
		c0-2.5166,2.0883-4.6049,4.6049-4.6049h23.453c2.5166,0,4.6049,2.0883,4.6049,4.6049v23.453
		C41.7966,39.5974,39.7084,41.6857,37.1917,41.6857z M13.7387,10.0938c-1.9276,0-3.534,1.6064-3.534,3.534v23.453
		c0,1.9276,1.6064,3.534,3.534,3.534h23.453c1.9276,0,3.534-1.6064,3.534-3.534v-23.453c0-1.9276-1.6064-3.534-3.534-3.534H13.7387z
		"/>
</g>
<g>
	<path class="st5" d="M25.4652,20.5352c-0.3213,0-0.5355-0.2142-0.5355-0.5355v-1.7135c0-0.3213,0.2142-0.5355,0.5355-0.5355
		s0.5355,0.2142,0.5355,0.5355v1.7135C26.0007,20.2674,25.7865,20.5352,25.4652,20.5352z"/>
</g>
<g>
	<path class="st5" d="M21.6635,22.088c-0.1606,0-0.2677-0.0535-0.3748-0.1606l-1.178-1.178c-0.2142-0.2142-0.2142-0.5355,0-0.7496
		c0.2142-0.2142,0.5355-0.2142,0.7496,0l1.178,1.178c0.2142,0.2142,0.2142,0.5355,0,0.7496
		C21.9312,22.0344,21.8241,22.088,21.6635,22.088z"/>
</g>
<g>
	<path class="st5" d="M20.1107,25.8897h-1.7135c-0.3213,0-0.5355-0.2142-0.5355-0.5355s0.2142-0.5355,0.5355-0.5355h1.7135
		c0.3213,0,0.5355,0.2142,0.5355,0.5355S20.3784,25.8897,20.1107,25.8897z"/>
</g>
<g>
	<path class="st5" d="M20.4855,30.8695c-0.1606,0-0.2677-0.0535-0.3748-0.1606c-0.2142-0.2142-0.2142-0.5355,0-0.7496l1.178-1.178
		c0.2142-0.2142,0.5355-0.2142,0.7496,0s0.2142,0.5355,0,0.7496l-1.178,1.178C20.7532,30.8159,20.5926,30.8695,20.4855,30.8695z"/>
</g>
<g>
	<path class="st5" d="M25.4652,32.9577c-0.3213,0-0.5355-0.2142-0.5355-0.5355v-1.7135c0-0.3213,0.2142-0.5355,0.5355-0.5355
		s0.5355,0.2142,0.5355,0.5355v1.7135C26.0007,32.69,25.7865,32.9577,25.4652,32.9577z"/>
</g>
<g>
	<path class="st5" d="M30.445,30.8695c-0.1606,0-0.2677-0.0535-0.3748-0.1606l-1.178-1.178c-0.2142-0.2142-0.2142-0.5355,0-0.7496
		c0.2142-0.2142,0.5355-0.2142,0.7496,0l1.178,1.178c0.2142,0.2142,0.2142,0.5355,0,0.7496
		C30.7127,30.8159,30.6056,30.8695,30.445,30.8695z"/>
</g>
<g>
	<path class="st6" d="M32.5332,25.8897h-1.7135c-0.3213,0-0.5355-0.2142-0.5355-0.5355s0.2142-0.5355,0.5355-0.5355h1.7135
		c0.3213,0,0.5355,0.2142,0.5355,0.5355S32.801,25.8897,32.5332,25.8897z"/>
</g>
<g>
	<path class="st5" d="M29.267,22.088c-0.1606,0-0.2677-0.0535-0.3748-0.1606c-0.2142-0.2142-0.2142-0.5355,0-0.7496l1.178-1.178
		c0.2142-0.2142,0.5355-0.2142,0.7496,0c0.2142,0.2142,0.2142,0.5355,0,0.7496l-1.178,1.178
		C29.5347,22.0344,29.3741,22.088,29.267,22.088z"/>
</g>
<path class="st4" d="M37.8878,22.088L37.8878,22.088c-0.9638,0-1.7135-0.7496-1.7135-1.7135v-1.3922
	c0-0.9638,0.7496-1.7135,1.7135-1.7135l0,0c0.9638,0,1.7135,0.7496,1.7135,1.7135v1.3922
	C39.6013,21.3383,38.8516,22.088,37.8878,22.088z"/>
<path class="st4" d="M37.7272,33.4932L37.7272,33.4932c-0.9638,0-1.7135-0.7496-1.7135-1.7135v-1.3922
	c0-0.9638,0.7496-1.7135,1.7135-1.7135l0,0c0.9638,0,1.7135,0.7496,1.7135,1.7135v1.3922
	C39.4406,32.7436,38.6374,33.4932,37.7272,33.4932z"/>
<g>
	<path class="st5" d="M38.9052,22.4628h-2.356c-0.4284,0-0.7496-0.3748-0.7496-0.8567v-3.9624c0-0.4819,0.3213-0.8567,0.7496-0.8567
		h2.356c0.4284,0,0.7496,0.3748,0.7496,0.8567v3.9624C39.6013,22.088,39.28,22.4628,38.9052,22.4628z M36.8704,21.3919h1.6599
		v-3.534h-1.6599V21.3919z M38.9052,17.8579L38.9052,17.8579L38.9052,17.8579z"/>
</g>
<g>
	<path class="st5" d="M38.9052,33.9216h-2.356c-0.4284,0-0.7496-0.3748-0.7496-0.8567v-3.9624c0-0.4819,0.3213-0.8567,0.7496-0.8567
		h2.356c0.4284,0,0.7496,0.3748,0.7496,0.8567v3.9624C39.6013,33.5467,39.28,33.9216,38.9052,33.9216z M36.8704,32.8507h1.6599
		v-3.534h-1.6599V32.8507z M38.9052,29.3166L38.9052,29.3166L38.9052,29.3166z"/>
</g>
</svg>
