<?xml version="1.0" encoding="utf-8"?>
<!-- Generator: Adobe Illustrator 24.3.0, SVG Export Plug-In . SVG Version: 6.00 Build 0)  -->
<svg version="1.1" id="Layer_1" xmlns="http://www.w3.org/2000/svg" xmlns:xlink="http://www.w3.org/1999/xlink" x="0px" y="0px"
	 viewBox="0 0 51.9641 51.9641" style="enable-background:new 0 0 51.9641 51.9641;" xml:space="preserve">
<style type="text/css">
	.st0{fill:#D1D3D4;}
	.st1{fill:#479BBC;}
	.st2{fill:#253746;}
</style>
<circle class="st0" cx="25.982" cy="25.982" r="25.982"/>
<circle class="st1" cx="25.7812" cy="26.0608" r="16.2493"/>
<g>
	<path class="st2" d="M25.7812,43.1014c-9.4436,0-17.1198-7.6762-17.1198-17.1198S16.3377,8.8619,25.7812,8.8619
		S42.901,16.5381,42.901,25.9816S35.2248,43.1014,25.7812,43.1014z M15.0187,37.5355c2.3741,2.1894,5.4076,3.693,8.7577,4.1151
		c-2.0048-1.741-3.6403-3.8513-4.8273-6.199C17.4456,35.9792,16.1003,36.6914,15.0187,37.5355z M32.798,35.5307
		c-1.187,2.3213-2.7698,4.4052-4.7482,6.0935c3.2446-0.4748,6.1726-1.9256,8.4676-4.0623
		C35.4886,36.7178,34.2224,36.0583,32.798,35.5307z M26.4407,34.3437v6.8848c2.1367-1.6619,3.8513-3.7458,5.0911-6.1199
		C29.9491,34.6602,28.2344,34.3964,26.4407,34.3437z M20.2417,35.0559c1.187,2.3213,2.8489,4.3525,4.8801,5.988v-6.7002
		C23.4072,34.3964,21.7453,34.6338,20.2417,35.0559z M33.3783,34.3173c1.5563,0.5803,2.9544,1.3453,4.0887,2.2949
		c2.4268-2.6642,3.9568-6.1462,4.1151-9.9711h-6.5155C34.9874,29.3317,34.3807,31.9432,33.3783,34.3173z M10.0068,26.6411
		c0.1583,3.8249,1.6882,7.3069,4.0887,9.9711c1.187-0.976,2.6642-1.7674,4.2997-2.3477c-1.0024-2.3741-1.5827-4.9328-1.6619-7.5971
		h-6.7266V26.6411z M26.4407,33.0247c2.0048,0.0528,3.904,0.3693,5.6714,0.8705c0.976-2.2422,1.5563-4.7218,1.6355-7.2805h-7.3069
		V33.0247z M18.0787,26.6411c0.0791,2.5324,0.6067,4.9592,1.5827,7.2014c1.6882-0.4748,3.5347-0.765,5.4604-0.8177v-6.3836H18.0787z
		 M35.0665,25.3222h6.5155c-0.1583-3.8249-1.6882-7.3069-4.1151-9.9711c-1.1343,0.9233-2.5324,1.7146-4.1151,2.2949
		C34.3807,20.0201,34.961,22.6315,35.0665,25.3222z M26.4407,25.3222h7.3069c-0.0791-2.5587-0.6595-5.0119-1.6619-7.2541
		c-1.741,0.5276-3.6666,0.8177-5.645,0.8705V25.3222z M18.0787,25.3222h7.0431v-6.3836c-1.8993-0.0528-3.7458-0.3429-5.434-0.8177
		C18.7118,20.363,18.1578,22.7898,18.0787,25.3222z M10.0068,25.3222h6.7529c0.0791-2.6642,0.6595-5.223,1.6619-7.5971
		c-1.6619-0.6067-3.1391-1.3981-4.3261-2.3741C11.6686,18.0153,10.1387,21.4973,10.0068,25.3222z M20.2681,16.9338
		c1.5036,0.3957,3.1654,0.6331,4.8537,0.6858v-6.6474C23.0906,12.6076,21.4551,14.6388,20.2681,16.9338z M26.4407,10.7875v6.8321
		c1.7938-0.0528,3.5084-0.3165,5.0647-0.765C30.2656,14.5069,28.551,12.423,26.4407,10.7875z M15.0187,14.4278
		c1.0815,0.8705,2.4268,1.5827,3.9568,2.1103c1.2134-2.4005,2.8753-4.5108,4.9064-6.2517
		C20.4791,10.7084,17.4192,12.1856,15.0187,14.4278z M27.9707,10.3391c2.0048,1.7146,3.6139,3.7985,4.8009,6.1199
		c1.4244-0.5276,2.717-1.2134,3.7458-2.0312C34.196,12.2647,31.2416,10.7875,27.9707,10.3391z"/>
</g>
</svg>
