<?xml version="1.0" encoding="utf-8"?>
<!-- Generator: Adobe Illustrator 24.3.0, SVG Export Plug-In . SVG Version: 6.00 Build 0)  -->
<svg version="1.1" id="Layer_1" xmlns="http://www.w3.org/2000/svg" xmlns:xlink="http://www.w3.org/1999/xlink" x="0px" y="0px"
	 viewBox="0 0 51.9641 51.9641" style="enable-background:new 0 0 51.9641 51.9641;" xml:space="preserve">
<style type="text/css">
	.st0{fill:#D1D3D4;}
	.st1{fill:#206F98;}
	.st2{fill:#209FD2;}
	.st3{fill:#EA5357;}
	.st4{fill:#253846;}
</style>
<circle class="st0" cx="25.982" cy="25.982" r="25.982"/>
<g>
	<rect x="26.2401" y="10.4729" class="st1" width="15.0692" height="14.7887"/>
	<rect x="26.2401" y="26.338" class="st2" width="15.0692" height="14.7887"/>
	<rect x="11.0393" y="10.4729" class="st3" width="15.0692" height="30.6537"/>
	<g>
		<g>
			<g>
				<path class="st4" d="M39.1566,10.7306c1.187,0,2.1527,0.9657,2.1527,2.1527v25.8329c0,1.187-0.9657,2.1527-2.1527,2.1527
					H13.3237c-1.187,0-2.1527-0.9657-2.1527-2.1527V12.8833c0-1.187,0.9657-2.1527,2.1527-2.1527H39.1566 M39.1566,9.6542H13.3237
					c-1.7834,0-3.2291,1.4457-3.2291,3.2291v25.8329c0,1.7834,1.4457,3.2291,3.2291,3.2291h25.8329
					c1.7834,0,3.2291-1.4457,3.2291-3.2291V12.8833C42.3857,11.1,40.9399,9.6542,39.1566,9.6542L39.1566,9.6542z"/>
			</g>
		</g>
		<rect x="25.7019" y="9.6542" class="st4" width="1.0764" height="32.2911"/>
		<rect x="26.2401" y="25.2616" class="st4" width="15.0692" height="1.0764"/>
	</g>
</g>
</svg>
