<?xml version="1.0" encoding="utf-8"?>
<!-- Generator: Adobe Illustrator 24.3.0, SVG Export Plug-In . SVG Version: 6.00 Build 0)  -->
<svg version="1.1" id="Layer_1" xmlns="http://www.w3.org/2000/svg" xmlns:xlink="http://www.w3.org/1999/xlink" x="0px" y="0px"
	 viewBox="0 0 51.9641 51.9641" style="enable-background:new 0 0 51.9641 51.9641;" xml:space="preserve">
<style type="text/css">
	.st0{fill:#D1D3D4;}
	.st1{fill:#209FD2;}
	.st2{fill:#D72A2E;}
	.st3{fill:#253846;}
</style>
<circle class="st0" cx="25.982" cy="25.982" r="25.982"/>
<path class="st1" d="M25.7853,40.8179L15.137,21.7295c0,0-0.8746-4.8104,1.5962-7.4342s4.3731-5.0946,10.2111-4.9634
	s8.593,5.685,8.593,5.685l0.5904,3.9357v4.8104L25.7853,40.8179z"/>
<ellipse class="st2" cx="26.2226" cy="19.8272" rx="3.6515" ry="3.3454"/>
<g>
	<path class="st3" d="M25.8509,8.6104c-6.1879,0-11.2169,5.029-11.2169,11.2169c0,1.946,0.5029,3.8483,1.465,5.5538
		c0,0.0219,0.0219,0.0437,0.0219,0.0656l9.1615,15.8523c0.1093,0.1968,0.328,0.328,0.5685,0.328
		c0.2405,0,0.4592-0.1312,0.5685-0.328l9.1397-15.8523c0.0219-0.0219,0.0219-0.0437,0.0219-0.0656
		c0.9621-1.6836,1.465-3.6078,1.465-5.5538C37.0897,13.6394,32.0388,8.6104,25.8509,8.6104z M34.4221,24.7906
		c-0.0219,0.0219-0.0219,0.0437-0.0219,0.0656L25.8509,39.659l-8.5274-14.8246c0-0.0219-0.0219-0.0437-0.0219-0.0656
		c-0.8746-1.5087-1.3338-3.2142-1.3338-4.9415c0-5.4663,4.4386-9.905,9.905-9.905s9.905,4.4386,9.905,9.905
		C35.7559,21.5546,35.2967,23.2819,34.4221,24.7906z M25.8509,15.2137c-2.5582,0-4.6136,2.0772-4.6136,4.6136
		s2.0772,4.6354,4.6136,4.6354s4.6354-2.0772,4.6354-4.6354S28.4092,15.2137,25.8509,15.2137z M25.8509,23.1289
		c-1.8148,0-3.3017-1.4868-3.3017-3.3017s1.4868-3.3017,3.3017-3.3017c1.8148,0,3.3017,1.4868,3.3017,3.3017
		S27.6876,23.1289,25.8509,23.1289z"/>
</g>
</svg>
