<?xml version="1.0" encoding="utf-8"?>
<!-- Generator: Adobe Illustrator 24.3.0, SVG Export Plug-In . SVG Version: 6.00 Build 0)  -->
<svg version="1.1" id="Layer_1" xmlns="http://www.w3.org/2000/svg" xmlns:xlink="http://www.w3.org/1999/xlink" x="0px" y="0px"
	 viewBox="0 0 51.9641 51.9641" style="enable-background:new 0 0 51.9641 51.9641;" xml:space="preserve">
<style type="text/css">
	.st0{fill:#D1D3D4;}
	.st1{fill:#ED949B;}
	.st2{fill:#EA5357;}
	.st3{fill:#A4D9EF;}
	.st4{fill:#40B5E5;}
	.st5{fill:#141E29;}
</style>
<circle class="st0" cx="25.982" cy="25.982" r="25.982"/>
<ellipse class="st1" cx="25.3724" cy="9.2287" rx="2.656" ry="2.587"/>
<rect x="14.0323" y="12.1756" class="st2" width="22.8393" height="29.5495"/>
<rect x="19.543" y="9.1942" class="st1" width="11.5306" height="4.5902"/>
<rect x="16.0091" y="18.717" class="st3" width="18.5342" height="18.5341"/>
<polygon class="st4" points="19.888,28.5795 17.8873,30.4422 22.2708,34.9288 32.5815,23.8884 30.7189,21.9568 22.0955,30.3732 "/>
<g>
	<path class="st5" d="M19.4788,13.7845h11.5948c0.1941,0,0.3514-0.1574,0.3514-0.3514V9.1499c0-0.1941-0.1574-0.3514-0.3514-0.3514
		h-2.7017c-0.303-1.4508-1.5823-2.5093-3.0957-2.5093c-1.5134,0-2.7926,1.0585-3.0957,2.5093h-2.7017
		c-0.1941,0-0.3514,0.1574-0.3514,0.3514v4.2832C19.1274,13.6271,19.2847,13.7845,19.4788,13.7845z M19.8302,9.5013h2.6503
		c0.1796,0,0.3303-0.1354,0.3494-0.314c0.1341-1.2515,1.1858-2.1953,2.4463-2.1953c1.2606,0,2.3122,0.9438,2.4463,2.1953
		c0.0191,0.1786,0.1698,0.314,0.3494,0.314h2.6503v3.5803H19.8302V9.5013z"/>
	<path class="st5" d="M36.8716,11.4728h-4.8608v0.7029h4.5094v28.8466H14.0323V12.1756h4.5094v-0.7029h-4.8608
		c-0.1941,0-0.3514,0.1574-0.3514,0.3515v29.5495c0,0.1941,0.1574,0.3514,0.3514,0.3514h23.1907
		c0.1941,0,0.3514-0.1574,0.3514-0.3514V11.8242C37.223,11.6301,37.0656,11.4728,36.8716,11.4728z"/>
	<path class="st5" d="M30.9548,21.6062c-0.1372-0.1372-0.3598-0.1372-0.497,0l-8.4355,8.4355l-1.9277-1.9277
		c-0.0659-0.0659-0.1553-0.103-0.2485-0.103s-0.1826,0.037-0.2485,0.103l-2.0708,2.0708c-0.1372,0.1372-0.1372,0.3597,0,0.497
		l4.247,4.247c0.0659,0.0659,0.1553,0.103,0.2485,0.103c0.0932,0,0.1826-0.037,0.2485-0.103L33.0256,24.174
		c0.1372-0.1373,0.1372-0.3598,0-0.497L30.9548,21.6062z M22.0223,34.1834l-3.75-3.75l1.5738-1.5738l1.9277,1.9277
		c0.0659,0.0659,0.1553,0.103,0.2485,0.103c0.0932,0,0.1826-0.037,0.2485-0.103l8.4355-8.4354l1.5738,1.5738L22.0223,34.1834z"/>
	<path class="st5" d="M15.3063,18.3656v19.237c0,0.1941,0.1574,0.3514,0.3514,0.3514h19.237c0.1941,0,0.3514-0.1574,0.3514-0.3514
		v-19.237c0-0.1941-0.1574-0.3514-0.3514-0.3514h-19.237C15.4636,18.0142,15.3063,18.1715,15.3063,18.3656z M16.0091,18.717h18.5342
		v18.5341H16.0091V18.717z"/>
</g>
</svg>
