<?xml version="1.0" encoding="utf-8"?>
<!-- Generator: Adobe Illustrator 26.0.2, SVG Export Plug-In . SVG Version: 6.00 Build 0)  -->
<svg version="1.1" xmlns="http://www.w3.org/2000/svg" xmlns:xlink="http://www.w3.org/1999/xlink" x="0px" y="0px"
	 viewBox="0 0 90 30" style="enable-background:new 0 0 90 30;" xml:space="preserve">
<style type="text/css">
	.st0{fill:#FFFFFF;}
	.st1{fill:#22265A;}
	.st2{fill:#23275C;}
	.st3{fill:#23265B;}
	.st4{fill:#ABD26C;}
	.st5{fill:#F4F4F6;}
	.st6{fill:#EAEAEE;}
	.st7{fill:#ECECEF;}
	.st8{fill:#24265B;}
</style>
<g id="Guides">
</g>
<g id="Image">
</g>
<g id="Paths">
	<g>
		<path class="st0" d="M0.1967,9.047h1.742v13.4008c-0.5724,0.1182-1.1509-0.0311-1.7233,0.0809
			c0.1867-0.1493,0.423-0.1182,0.6408-0.1182c0.2675,0,0.5413,0.0373,0.927-0.1555V9.3954C1.2419,9.0844,0.6634,9.3954,0.1967,9.047
			z"/>
		<path class="st0" d="M11.3517,22.2177c0.0747,0.112,0.0747,0.1555,0.0373,0.2302H9.7652
			c-0.1182-0.1929-0.0809-0.3484-0.0809-0.5413v-6.041c0-0.3111-0.0373-0.5848-0.0747-0.8959
			c-0.0809-0.5786-0.4666-0.927-1.0452-1.0079c-0.4666-0.0373-0.9332,0.1182-1.3189,0.3111
			c-0.5039,0.2364-0.9705,0.5413-1.3936,1.0079v7.1297H4.1846c-0.0747-0.1929-0.0373-0.3484-0.0373-0.5039v-6.7378
			c0-0.815-0.0809-1.5927-0.4293-2.3641c0.5848-0.1555,1.1261-0.3111,1.6673-0.4666c0.2737,0.3857,0.3111,0.8523,0.4293,1.3189
			c0.3049-0.2364,0.5786-0.4666,0.8523-0.6221c0.927-0.5786,1.8975-0.8523,2.9427-0.5039c1.0825,0.3484,1.742,1.2007,1.742,2.3268
			C11.389,17.2966,11.3517,19.7727,11.3517,22.2177z"/>
		<path class="st0" d="M18.4005,12.5683c-0.1182,0.5039-0.3484,0.9332-0.5413,1.3936h-2.1277v8.486h-1.8229v-8.3678
			c-0.3111-0.1182-0.5786-0.0373-0.8897-0.0747v-1.3189c0.2302-0.0747,0.5413,0,0.8088-0.0747
			c0.1182-0.2737,0.0436-0.5848,0.0436-0.8523c0-0.3919,0-0.7777,0.0747-1.2007c0.1929-1.2443,1.0452-2.053,2.2833-2.2521
			c1.0079-0.1493,1.9411,0.0436,2.7934,0.5848c-0.2364,0.423-0.4293,0.8523-0.6595,1.238
			c-0.3111-0.1182-0.5786-0.2675-0.8897-0.3484c-1.0452-0.3111-1.7047,0.1182-1.742,1.2007c-0.0436,0.5039,0,1.0452,0,1.5864
			H18.4005z"/>
		<path class="st0" d="M26.606,16.2974c-0.295-2.383-1.8155-3.8353-3.9033-3.9488c-1.7475-0.0907-3.0636,0.6809-3.7898,2.0425
			c-0.5448,0.9758-0.7035,2.0198-0.7035,3.109c0,0.8851,0.068,1.7248,0.3858,2.5417c0.4992,1.407,1.702,2.746,4.0621,2.6779
			c1.702-0.0453,3.109-1.0438,3.6991-2.7006C26.7649,18.7709,26.8103,17.5228,26.606,16.2974z M24.5637,19.656
			c-0.4993,1.8609-2.451,1.8609-3.4495,1.1347c-0.3177-0.2496-0.4992-0.5219-0.6128-0.9078
			c-0.4765-1.4523-0.5219-2.9274-0.2042-4.4479c0.2723-1.2028,1.044-1.5886,2.0651-1.6113
			c0.9532-0.0454,1.7702,0.5673,2.0879,1.5432c0.068,0.227,0.1362,0.4539,0.1362,0.7262c0.1362,0.5446,0.1589,1.0893,0.1589,1.5886
			C24.7453,18.3852,24.7225,19.0432,24.5637,19.656z"/>
		<path class="st0" d="M35.8651,14.6633c-0.1816-0.5901-0.5673-1.0893-1.044-1.4752c-1.1573-0.9758-2.9047-1.0893-4.221-0.1815
			c-0.1815,0.1362-0.3858,0.295-0.6126,0.4539v-2.678c0-0.885,0-1.77-0.2725-2.6324h-0.2269
			c-0.5219,0.1134-0.9758,0.2043-1.5204,0.3177c0.2042,0.6808,0.2723,1.3161,0.2269,1.9289v10.008
			c0,0.6581-0.0227,1.3389-0.295,1.9971h1.7475c0.1362-0.227,0.1816-0.4993,0.2496-0.7716c0.0454,0,0.0909,0,0.0909,0
			c0.1134,0.0907,0.2269,0.2043,0.3403,0.2723c0.7716,0.5901,1.6793,0.8851,2.6779,0.7489
			c1.2481-0.2496,2.1332-0.9305,2.6778-2.0652C36.6141,18.6575,36.6141,16.6831,35.8651,14.6633z M34.2085,19.5879
			c-0.3858,1.339-1.702,1.7702-2.8367,1.3844c-0.5446-0.1589-0.9305-0.4312-1.3843-0.9305V15.208
			c0.6126-0.7488,1.3616-1.1574,2.3147-1.1574c1.044,0,1.7929,0.5673,2.0198,1.5886
			C34.5943,16.9554,34.5488,18.2717,34.2085,19.5879z"/>
		<path class="st0" d="M40.2499,21.2845c0.112,0.3484,0.2302,0.7403,0.3484,1.1261c-0.6221,0.3484-1.2816,0.3857-1.8975,0.1182
			c-0.5039-0.1991-0.815-0.6221-0.8897-1.1634c-0.0435-0.2737-0.0435-0.5413-0.0435-0.7777v-9.9915
			c0-0.6595-0.0373-1.3189-0.2302-1.9784c0.5786-0.1555,1.1198-0.2675,1.742-0.3484c0.2737,0.8523,0.3111,1.7046,0.3111,2.557
			v9.6494c-0.0373,0.2302-0.0809,0.4977,0.1182,0.7341C39.9015,21.3218,40.0944,21.2098,40.2499,21.2845z"/>
		<path class="st0" d="M49.3225,15.2534c-0.5901-1.8382-2.0651-2.9049-3.9487-2.9049c-1.8609,0-3.3133,1.044-3.8807,2.9049
			c-0.4312,1.3389-0.4312,2.746-0.1134,4.1076c0.4085,2.0425,1.8609,3.4721,4.3346,3.3586c1.475-0.068,2.587-0.7488,3.2905-2.0196
			c0.4539-0.8398,0.6128-1.7702,0.6582-3.0865C49.6175,17.0689,49.6175,16.1385,49.3225,15.2534z M47.6886,17.5228
			c0,0.7489,0,1.5204-0.227,2.2467c-0.3176,0.9758-1.0211,1.4752-1.9971,1.4752c-0.9985,0-1.77-0.5446-2.0878-1.4752
			c-0.4085-1.4297-0.4992-2.9047-0.1134-4.3799c0.2723-0.9531,0.9304-1.4977,1.9743-1.5432
			c0.8624-0.0227,1.702,0.3858,2.0878,1.3616c0.2497,0.6582,0.3177,1.3163,0.3632,1.9743V17.5228z"/>
		<path class="st0" d="M55.1252,17.0229c1.238,1.7855,2.4761,3.5648,3.7577,5.425h-2.134c-0.815-1.2754-1.6238-2.557-2.5196-3.9132
			c-0.8523,1.3189-1.6611,2.6379-2.5134,3.9132h-2.0904c1.238-1.8229,2.4388-3.6395,3.6395-5.3815
			c-1.0079-1.4745-2.0157-2.9054-3.0236-4.3798h2.1713c0.5786,0.9705,1.2007,1.9784,1.8166,3.0236
			c0.6221-1.0452,1.2007-2.053,1.7855-3.0609h2.0157C57.0227,14.161,56.0895,15.5919,55.1252,17.0229z"/>
		<path class="st0" d="M68.5261,20.0838c-0.9705,0.7403-1.9349,1.4745-2.9427,2.1713c-0.3484,0.2737-0.6968,0.2302-1.0452,0
			c-0.9705-0.7341-1.9411-1.4745-2.9489-2.1713c-0.0373-0.112-0.112-0.2302-0.112-0.4604c0.0747-0.1991,0.2302-0.2737,0.3484-0.3546
			c0.8897-0.6532,1.7793-1.3127,2.6316-1.9722c0.5039-0.3858,0.815-0.3858,1.3189,0c0.8523,0.6595,1.742,1.3189,2.5943,1.9348
			c0.1182,0.1182,0.2737,0.1929,0.3484,0.3484C68.7998,19.8162,68.7189,19.9718,68.5261,20.0838z"/>
		<path class="st0" d="M61.5892,12.7612c-0.1493-0.3484,0-0.4977,0.1991-0.6159c0.927-0.6968,1.8975-1.4371,2.8245-2.1339
			c0.3484-0.2675,0.7777-0.2675,1.1634,0c0.9705,0.6968,1.8975,1.4371,2.8245,2.1339c0.1182,0.1182,0.2737,0.2302,0.1555,0.5786
			c-0.5413,0.5039-1.2007,0.8897-1.7793,1.3936c-0.3857,0.3111-0.7777,0.5848-1.1634,0.8959
			c-0.3484,0.2675-0.6968,0.3484-1.0452,0.112C63.6858,14.3539,62.5971,13.5389,61.5892,12.7612z"/>
		<path class="st0" d="M66.473,8.7733c0.2737-0.3484,0.6968-0.5786,1.0826-0.8897c0.6595-0.5039,1.3189-1.0079,1.9784-1.4745
			c0.423-0.3049,0.7341-0.3049,1.1634,0c0.8896,0.6595,1.7793,1.3189,2.669,2.0157c0.1929,0.1555,0.4666,0.3111,0.3484,0.6968
			c-0.6595,0.5039-1.3936,1.0452-2.1277,1.5864c-0.2737,0.1991-0.5413,0.4293-0.815,0.6221c-0.5413,0.3857-0.8523,0.3857-1.3936,0
			c-0.6595-0.5039-1.3562-1.0079-2.0158-1.5118c-0.2302-0.1929-0.4666-0.3484-0.6968-0.5413
			C66.5103,9.2026,66.3983,9.047,66.473,8.7733z"/>
		<path class="st0" d="M73.7582,23.4557c-0.0436,0.1182-0.1182,0.1929-0.2364,0.3111c-0.927,0.6968-1.8975,1.4309-2.8245,2.1277
			c-0.392,0.3111-0.7403,0.3111-1.1261,0c-0.9705-0.7341-1.9349-1.4682-2.9054-2.2086c-0.1182-0.0373-0.1555-0.112-0.1929-0.1555
			c-0.0747-0.2302,0-0.3857,0.1929-0.5413c0.9705-0.7341,1.9349-1.4682,2.9427-2.165c0.3484-0.2364,0.6968-0.2364,1.0452,0
			c0.9705,0.6968,1.8975,1.4309,2.8307,2.1277C73.64,23.07,73.7956,23.182,73.7582,23.4557z"/>
		<path class="st0" d="M73.4472,15.6666c0.112,0.1555,0.2302,0.2364,0.3111,0.3919c0.0373,0.1929-0.0436,0.3484-0.1555,0.4231
			c-1.0514,0.7777-2.0966,1.5864-3.0982,2.3268c-0.4666,0.112-0.7777,0-1.0887-0.2364c-0.8896-0.6968-1.8167-1.3501-2.7125-2.053
			c-0.1555-0.112-0.3048-0.2676-0.1929-0.5786c0.4293-0.423,0.9705-0.7714,1.5118-1.1634c0.5039-0.3857,1.0079-0.7341,1.5118-1.1198
			c0.423-0.3111,0.7714-0.3111,1.1634-0.0436C71.6243,14.3165,72.5513,14.9698,73.4472,15.6666z"/>
		<path class="st0" d="M78.7105,19.7727c-0.0373,0.2364-0.1929,0.3484-0.3484,0.4666c-0.8897,0.6595-1.7793,1.3189-2.6317,1.9784
			c-0.5039,0.3484-0.815,0.3857-1.2754,0c-0.9332-0.6595-1.8229-1.3563-2.7498-2.053c-0.1991-0.1555-0.3546-0.3111-0.2737-0.5848
			c0.1182-0.1929,0.3111-0.2675,0.5039-0.423c0.815-0.6221,1.6238-1.238,2.4388-1.8602c0.4666-0.3484,0.815-0.3484,1.3189,0
			c0.8896,0.6595,1.7793,1.3563,2.669,2.0157C78.5176,19.4678,78.6731,19.5425,78.7105,19.7727z"/>
		<path class="st0" d="M71.4688,12.3008c0.9332-0.6968,1.8602-1.3936,2.7872-2.1339c0.6221-0.4604,0.8959-0.4604,1.4745,0
			c0.8523,0.6221,1.7047,1.2443,2.5196,1.8975c0.1929,0.1182,0.3858,0.2737,0.4231,0.5039
			c-0.0373,0.1929-0.1555,0.3111-0.3111,0.3919c-0.927,0.6968-1.8167,1.3936-2.7499,2.0904c-0.4604,0.3484-0.7714,0.3484-1.2007,0
			c-1.0079-0.7341-1.9722-1.4745-2.98-2.2459c-0.0809-0.1929-0.0809-0.3111-0.0373-0.4293
			C71.4314,12.3381,71.4314,12.3008,71.4688,12.3008z"/>
		<path class="st0" d="M80.5706,7.6908v0.0373c-0.0747,0.0684-0.0809,0.1742-0.112,0.2737
			c-0.3484,0.7341-1.1261,1.0825-1.8975,0.927c-0.7777-0.1929-1.3189-0.815-1.3189-1.6238c0-0.7777,0.5413-1.4745,1.2754-1.6674
			c0.7777-0.1929,1.5491,0.1929,1.8975,0.927c0.0373,0.1058,0.0995,0.2053,0.1431,0.3048
			c-0.1804-0.0249-0.1866-0.1991-0.2551-0.3422c-0.4293-0.7715-1.2816-1.0452-2.0157-0.6968
			c-0.815,0.3858-1.0826,1.2008-0.7342,2.0531c0.3049,0.6968,1.2008,1.0825,1.9349,0.815c0.3857-0.1555,0.6221-0.4293,0.815-0.7403
			C80.3778,7.8463,80.3778,7.6535,80.5706,7.6908z"/>
		<path class="st1" d="M1.9387,9.047v13.4008c-0.5724,0.1182-1.1509-0.0311-1.7233,0.0809H0.1967V9.047H1.9387z"/>
		<path class="st2" d="M79.2556,6.4028c-0.0453,0.0227-0.068,0.0227-0.1134,0.0227h-0.2496
			c-0.1134-0.0227-0.227-0.0454-0.3405-0.0227c-0.068,0-0.1362,0.0227-0.1816,0.0454v1.6566c0.0681,0,0.1589,0.0227,0.227,0.0227
			c0.0227,0,0.0227,0,0.0454,0c0.0453,0,0.068-0.0227,0.1134-0.0454c0.0453-0.0907,0.0227-0.1815,0.0227-0.2723V7.6963
			c0-0.068,0-0.1134,0.0453-0.1589c-0.0227-0.0453-0.068-0.068-0.1134-0.0453c-0.1589,0.0453-0.068,0.2269-0.2723,0.2723
			c0-0.3859-0.0681-0.7716,0.0454-1.112c0.2042-0.1816,0.4538-0.0681,0.6354-0.2043c0-0.0227,0.0227,0,0.0227,0
			c0.4312,0.2723,0.4312,0.3177,0.1134,1.044c0,0.2042,0.0909,0.363,0.2043,0.4538c0.0453,0.0227,0.0907,0.0227,0.1362,0.0227
			c0.0227,0,0.0227,0,0.0453,0.0227c0-0.0227,0-0.0227,0-0.0227c-0.1587-0.1589-0.2269-0.3176-0.2723-0.4312
			C79.8457,7.1063,79.8003,6.7205,79.2556,6.4028z M79.2556,6.4028c-0.0453,0.0227-0.068,0.0227-0.1134,0.0227h-0.2496
			c-0.1134-0.0227-0.227-0.0454-0.3405-0.0227c-0.068,0-0.1362,0.0227-0.1816,0.0454v1.6566c0.0681,0,0.1589,0.0227,0.227,0.0227
			c0.0227,0,0.0227,0,0.0454,0c0.0453,0,0.068-0.0227,0.1134-0.0454c0.0453-0.0907,0.0227-0.1815,0.0227-0.2723V7.6963
			c0-0.068,0-0.1134,0.0453-0.1589c-0.0227-0.0453-0.068-0.068-0.1134-0.0453c-0.1589,0.0453-0.068,0.2269-0.2723,0.2723
			c0-0.3859-0.0681-0.7716,0.0454-1.112c0.2042-0.1816,0.4538-0.0681,0.6354-0.2043c0-0.0227,0.0227,0,0.0227,0
			c0.4312,0.2723,0.4312,0.3177,0.1134,1.044c0,0.2042,0.0909,0.363,0.2043,0.4538c0.0453,0.0227,0.0907,0.0227,0.1362,0.0227
			c0.0227,0,0.0227,0,0.0453,0.0227c0-0.0227,0-0.0227,0-0.0227c-0.1587-0.1589-0.2269-0.3176-0.2723-0.4312
			C79.8457,7.1063,79.8003,6.7205,79.2556,6.4028z M79.2556,6.4028c-0.0453,0.0227-0.068,0.0227-0.1134,0.0227h-0.2496
			c-0.1134-0.0227-0.227-0.0454-0.3405-0.0227c-0.068,0-0.1362,0.0227-0.1816,0.0454v1.6566c0.0681,0,0.1589,0.0227,0.227,0.0227
			c0.0227,0,0.0227,0,0.0454,0c0.0453,0,0.068-0.0227,0.1134-0.0454c0.0453-0.0907,0.0227-0.1815,0.0227-0.2723V7.6963
			c0-0.068,0-0.1134,0.0453-0.1589c0.0227,0,0.0227,0.0227,0.0454,0.0454c0,0.0227,0,0.0454,0.0227,0.0681
			c0.0227,0.0226,0.0453,0.0226,0.0453,0.0226v0.0227c0.0909,0.1134,0.1589,0.227,0.2725,0.3858
			c0.1362,0,0.2723,0.0681,0.363-0.0453c0.0227,0,0.0454-0.0227,0.068-0.0454c0-0.0227,0-0.0227,0-0.0227
			c-0.1587-0.1589-0.2269-0.3176-0.2723-0.4312C79.8457,7.1063,79.8003,6.7205,79.2556,6.4028z M78.8017,7.1063
			c-0.1362-0.1589-0.0907-0.2269,0-0.3403c0.1816-0.0454,0.295-0.0454,0.3859,0.1589C79.1422,7.1517,78.9379,7.1063,78.8017,7.1063z
			 M79.2556,6.4028c-0.0453,0.0227-0.068,0.0227-0.1134,0.0227h-0.2496c-0.1134-0.0227-0.227-0.0454-0.3405-0.0227
			c-0.068,0-0.1362,0.0227-0.1816,0.0454v1.6566c0.0681,0,0.1589,0.0227,0.227,0.0227c0.0227,0,0.0227,0,0.0454,0
			c0.0453,0,0.068-0.0227,0.1134-0.0454c0.0453-0.0907,0.0227-0.1815,0.0227-0.2723V7.6963c0-0.068,0-0.1134,0.0453-0.1589
			c0.0227,0,0.0227,0.0227,0.0454,0.0454c0,0.0227,0,0.0454,0.0227,0.0681c0.0227,0.0226,0.0453,0.0226,0.0453,0.0226v0.0227
			c0.0909,0.1134,0.1589,0.227,0.2725,0.3858c0.1362,0,0.2723,0.0681,0.363-0.0453c0.0227,0,0.0454-0.0227,0.068-0.0454
			c0-0.0227,0-0.0227,0-0.0227c-0.1587-0.1589-0.2269-0.3176-0.2723-0.4312C79.8457,7.1063,79.8003,6.7205,79.2556,6.4028z
			 M78.8017,7.1063c-0.1362-0.1589-0.0907-0.2269,0-0.3403c0.1816-0.0454,0.295-0.0454,0.3859,0.1589
			C79.1422,7.1517,78.9379,7.1063,78.8017,7.1063z M79.2556,6.4028c-0.0453,0.0227-0.068,0.0227-0.1134,0.0227h-0.2496
			c-0.1134-0.0227-0.227-0.0454-0.3405-0.0227c-0.068,0-0.1362,0.0227-0.1816,0.0454v1.6566c0.0681,0,0.1589,0.0227,0.227,0.0227
			c0.0227,0,0.0227,0,0.0454,0c0.0453,0,0.068-0.0227,0.1134-0.0454c0.0453-0.0907,0.0227-0.1815,0.0227-0.2723V7.6963
			c0-0.068,0-0.1134,0.0453-0.1589c0.0227,0,0.0227,0.0227,0.0454,0.0454c0,0.0227,0,0.0454,0.0227,0.0681
			c0.0227,0.0226,0.0453,0.0226,0.0453,0.0226v0.0227c0.0909,0.1134,0.1589,0.227,0.2725,0.3858
			c0.1362,0,0.2723,0.0681,0.363-0.0453c0.0227,0,0.0454-0.0227,0.068-0.0454c0-0.0227,0-0.0227,0-0.0227
			c-0.1587-0.1589-0.2269-0.3176-0.2723-0.4312C79.8457,7.1063,79.8003,6.7205,79.2556,6.4028z M78.8017,7.1063
			c-0.1362-0.1589-0.0907-0.2269,0-0.3403c0.1816-0.0454,0.295-0.0454,0.3859,0.1589C79.1422,7.1517,78.9379,7.1063,78.8017,7.1063z
			 M79.2556,6.4028c-0.0453,0.0227-0.068,0.0227-0.1134,0.0227h-0.2496c-0.1134-0.0227-0.227-0.0454-0.3405-0.0227
			c-0.068,0-0.1362,0.0227-0.1816,0.0454v1.6566c0.0681,0,0.1589,0.0227,0.227,0.0227c0.0227,0,0.0227,0,0.0454,0
			c0.0453,0,0.068-0.0227,0.1134-0.0454c0.0453-0.0907,0.0227-0.1815,0.0227-0.2723V7.6963c0-0.068,0-0.1134,0.0453-0.1589
			c0.0227,0,0.0227,0.0227,0.0454,0.0454c0,0.0227,0,0.0454,0.0227,0.0681c0.0227,0.0226,0.0453,0.0226,0.0453,0.0226v0.0227
			c0.0909,0.1134,0.1589,0.227,0.2725,0.3858c0.1362,0,0.2723,0.0681,0.363-0.0453c0.0227,0,0.0454-0.0227,0.068-0.0454
			c0-0.0227,0-0.0227,0-0.0227c-0.1587-0.1589-0.2269-0.3176-0.2723-0.4312C79.8457,7.1063,79.8003,6.7205,79.2556,6.4028z
			 M78.8017,7.1063c-0.1362-0.1589-0.0907-0.2269,0-0.3403c0.1816-0.0454,0.295-0.0454,0.3859,0.1589
			C79.1422,7.1517,78.9379,7.1063,78.8017,7.1063z M80.5719,6.9021l-0.0227-0.0227c-0.0454-0.1134-0.0907-0.2043-0.1362-0.3177
			c-0.3405-0.7262-1.112-1.112-1.9063-0.9304c-0.7261,0.2042-1.2708,0.8851-1.2708,1.6793s0.5448,1.4297,1.3163,1.6113
			c0.7717,0.1587,1.5659-0.1816,1.9063-0.9305c0.0227-0.0907,0.0453-0.2042,0.1134-0.2723c0,0,0.0227-0.0227,0.0454-0.0227
			C80.6173,7.424,80.6173,7.1517,80.5719,6.9021z M79.755,8.0821c-0.4312,0.4766-0.8851,0.5673-1.4524,0.2043
			c-0.0454,0-0.0907-0.0227-0.1362-0.0227c-0.6581-0.6581-0.6128-1.4977,0.1589-2.0424c0.4992-0.3859,1.1574-0.1589,1.5204,0.2269
			c0.3858,0.4539,0.3858,1.044-0.0454,1.6339C79.7777,8.0821,79.7777,8.0821,79.755,8.0821z M79.2556,6.4028
			c-0.0453,0.0227-0.068,0.0227-0.1134,0.0227h-0.2496c-0.1134-0.0227-0.227-0.0454-0.3405-0.0227
			c-0.068,0-0.1362,0.0227-0.1816,0.0454v1.6566c0.0681,0,0.1589,0.0227,0.227,0.0227c0.0227,0,0.0227,0,0.0454,0
			c0.0453,0,0.068-0.0227,0.1134-0.0454c0.0453-0.0907,0.0227-0.1815,0.0227-0.2723V7.6963c0-0.068,0-0.1134,0.0453-0.1589
			c0.0227,0,0.0227,0.0227,0.0454,0.0454c0,0.0227,0,0.0454,0.0227,0.0681c0.0227,0.0226,0.0453,0.0226,0.0453,0.0226v0.0227
			c0.0909,0.1134,0.1589,0.227,0.2725,0.3858c0.1362,0,0.2723,0.0681,0.363-0.0453c0.0227,0,0.0454-0.0227,0.068-0.0454
			c0-0.0227,0-0.0227,0-0.0227c-0.1587-0.1589-0.2269-0.3176-0.2723-0.4312C79.8457,7.1063,79.8003,6.7205,79.2556,6.4028z
			 M78.8017,7.1063c-0.1362-0.1589-0.0907-0.2269,0-0.3403c0.1816-0.0454,0.295-0.0454,0.3859,0.1589
			C79.1422,7.1517,78.9379,7.1063,78.8017,7.1063z M79.2556,6.4028c-0.0453,0.0227-0.068,0.0227-0.1134,0.0227h-0.2496
			c-0.1134-0.0227-0.227-0.0454-0.3405-0.0227c-0.068,0-0.1362,0.0227-0.1816,0.0454v1.6566c0.0681,0,0.1589,0.0227,0.227,0.0227
			c0.0227,0,0.0227,0,0.0454,0c0.0453,0,0.068-0.0227,0.1134-0.0454c0.0453-0.0907,0.0227-0.1815,0.0227-0.2723V7.6963
			c0-0.068,0-0.1134,0.0453-0.1589c0.0227,0,0.0227,0.0227,0.0454,0.0454c0,0.0227,0,0.0454,0.0227,0.0681
			c0.0227,0.0226,0.0453,0.0226,0.0453,0.0226v0.0227c0.0909,0.1134,0.1589,0.227,0.2725,0.3858
			c0.1362,0,0.2723,0.0681,0.363-0.0453c0.0227,0,0.0454-0.0227,0.068-0.0454c0-0.0227,0-0.0227,0-0.0227
			c-0.1587-0.1589-0.2269-0.3176-0.2723-0.4312C79.8457,7.1063,79.8003,6.7205,79.2556,6.4028z M78.8017,7.1063
			c-0.1362-0.1589-0.0907-0.2269,0-0.3403c0.1816-0.0454,0.295-0.0454,0.3859,0.1589C79.1422,7.1517,78.9379,7.1063,78.8017,7.1063z
			 M79.2556,6.4028c-0.0453,0.0227-0.068,0.0227-0.1134,0.0227h-0.2496c-0.1134-0.0227-0.227-0.0454-0.3405-0.0227
			c-0.068,0-0.1362,0.0227-0.1816,0.0454v1.6566c0.0681,0,0.1589,0.0227,0.227,0.0227c0.0227,0,0.0227,0,0.0454,0
			c0.0453,0,0.068-0.0227,0.1134-0.0454c0.0453-0.0907,0.0227-0.1815,0.0227-0.2723V7.6963c0-0.068,0-0.1134,0.0453-0.1589
			c0.0227,0,0.0227,0.0227,0.0454,0.0454c0,0.0227,0,0.0454,0.0227,0.0681c0.0227,0.0226,0.0453,0.0226,0.0453,0.0226v0.0227
			c0.0909,0.1134,0.1589,0.227,0.2725,0.3858c0.1362,0,0.2723,0.0681,0.363-0.0453c0.0227,0,0.0454-0.0227,0.068-0.0454
			c0-0.0227,0-0.0227,0-0.0227c-0.1587-0.1589-0.2269-0.3176-0.2723-0.4312C79.8457,7.1063,79.8003,6.7205,79.2556,6.4028z
			 M78.8017,7.1063c-0.1362-0.1589-0.0907-0.2269,0-0.3403c0.1816-0.0454,0.295-0.0454,0.3859,0.1589
			C79.1422,7.1517,78.9379,7.1063,78.8017,7.1063z M79.2556,6.4028c-0.0453,0.0227-0.068,0.0227-0.1134,0.0227h-0.2496
			c-0.1134-0.0227-0.227-0.0454-0.3405-0.0227c-0.068,0-0.1362,0.0227-0.1816,0.0454v1.6566c0.0681,0,0.1589,0.0227,0.227,0.0227
			c0.0227,0,0.0227,0,0.0454,0c0.0453,0,0.068-0.0227,0.1134-0.0454c0.0453-0.0907,0.0227-0.1815,0.0227-0.2723V7.6963
			c0-0.068,0-0.1134,0.0453-0.1589c0.0227,0,0.0227,0.0227,0.0454,0.0454c0,0.0227,0,0.0454,0.0227,0.0681
			c0.0227,0.0226,0.0453,0.0226,0.0453,0.0226v0.0227c0.0909,0.1134,0.1589,0.227,0.2725,0.3858
			c0.1362,0,0.2723,0.0681,0.363-0.0453c0.0227,0,0.0454-0.0227,0.068-0.0454c0-0.0227,0-0.0227,0-0.0227
			c-0.1587-0.1589-0.2269-0.3176-0.2723-0.4312C79.8457,7.1063,79.8003,6.7205,79.2556,6.4028z M78.8017,7.1063
			c-0.1362-0.1589-0.0907-0.2269,0-0.3403c0.1816-0.0454,0.295-0.0454,0.3859,0.1589C79.1422,7.1517,78.9379,7.1063,78.8017,7.1063z
			 M79.2556,6.4028c-0.0453,0.0227-0.068,0.0227-0.1134,0.0227h-0.2496c-0.1134-0.0227-0.227-0.0454-0.3405-0.0227
			c-0.068,0-0.1362,0.0227-0.1816,0.0454v1.6566c0.0681,0,0.1589,0.0227,0.227,0.0227c0.0227,0,0.0227,0,0.0454,0
			c0.0453,0,0.068-0.0227,0.1134-0.0454c0.0453-0.0907,0.0227-0.1815,0.0227-0.2723V7.6963c0-0.068,0-0.1134,0.0453-0.1589
			c0.0227,0,0.0227,0.0227,0.0454,0.0454c0,0.0227,0,0.0454,0.0227,0.0681c0.0227,0.0226,0.0453,0.0226,0.0453,0.0226v0.0227
			c0.0909,0.1134,0.1589,0.227,0.2725,0.3858c0.1362,0,0.2723,0.0681,0.363-0.0453c0.0227,0,0.0454-0.0227,0.068-0.0454
			c0-0.0227,0-0.0227,0-0.0227c-0.1587-0.1589-0.2269-0.3176-0.2723-0.4312C79.8457,7.1063,79.8003,6.7205,79.2556,6.4028z
			 M78.8017,7.1063c-0.1362-0.1589-0.0907-0.2269,0-0.3403c0.1816-0.0454,0.295-0.0454,0.3859,0.1589
			C79.1422,7.1517,78.9379,7.1063,78.8017,7.1063z M79.2556,6.4028c-0.0453,0.0227-0.068,0.0227-0.1134,0.0227h-0.2496
			c-0.1134-0.0227-0.227-0.0454-0.3405-0.0227c-0.068,0-0.1362,0.0227-0.1816,0.0454v1.6566c0.0681,0,0.1589,0.0227,0.227,0.0227
			c0.0227,0,0.0227,0,0.0454,0c0.0453,0,0.068-0.0227,0.1134-0.0454c0.0453-0.0907,0.0227-0.1815,0.0227-0.2723V7.6963
			c0-0.068,0-0.1134,0.0453-0.1589c-0.0227-0.0453-0.068-0.068-0.1134-0.0453c-0.1589,0.0453-0.068,0.2269-0.2723,0.2723
			c0-0.3859-0.0681-0.7716,0.0454-1.112c0.2042-0.1816,0.4538-0.0681,0.6354-0.2043c0-0.0227,0.0227,0,0.0227,0
			c0.4312,0.2723,0.4312,0.3177,0.1134,1.044c0,0.2042,0.0909,0.363,0.2043,0.4538c0.0453,0.0227,0.0907,0.0227,0.1362,0.0227
			c0.0227,0,0.0227,0,0.0453,0.0227c0-0.0227,0-0.0227,0-0.0227c-0.1587-0.1589-0.2269-0.3176-0.2723-0.4312
			C79.8457,7.1063,79.8003,6.7205,79.2556,6.4028z"/>
		<path class="st3" d="M35.8651,14.6633c-0.1816-0.5901-0.5673-1.0893-1.044-1.4752c-1.1573-0.9758-2.9047-1.0893-4.221-0.1815
			c-0.1815,0.1362-0.3858,0.295-0.6126,0.4539v-2.678c0-0.885,0-1.77-0.2725-2.6324h-0.2269
			c-0.5219,0.1134-0.9758,0.2043-1.5204,0.3177c0.2042,0.6808,0.2723,1.3161,0.2269,1.9289v10.008
			c0,0.6581-0.0227,1.3389-0.295,1.9971h1.7475c0.1362-0.227,0.1816-0.4993,0.2496-0.7716c0.0454,0,0.0909,0,0.0909,0
			c0.1134,0.0907,0.2269,0.2043,0.3403,0.2723c0.7716,0.5901,1.6793,0.8851,2.6779,0.7489
			c1.2481-0.2496,2.1332-0.9305,2.6778-2.0652C36.6141,18.6575,36.6141,16.6831,35.8651,14.6633z M34.2085,19.5879
			c-0.3858,1.339-1.702,1.7702-2.8367,1.3844c-0.5446-0.1589-0.9305-0.4312-1.3843-0.9305V15.208
			c0.6126-0.7488,1.3616-1.1574,2.3147-1.1574c1.044,0,1.7929,0.5673,2.0198,1.5886
			C34.5943,16.9554,34.5488,18.2717,34.2085,19.5879z"/>
		<path class="st1" d="M49.3225,15.2534c-0.5901-1.8382-2.0651-2.9049-3.9487-2.9049c-1.8609,0-3.3133,1.044-3.8807,2.9049
			c-0.4312,1.3389-0.4312,2.746-0.1134,4.1076c0.4085,2.0425,1.8609,3.4721,4.3346,3.3586c1.475-0.068,2.587-0.7488,3.2905-2.0196
			c0.4539-0.8398,0.6128-1.7702,0.6582-3.0865C49.6175,17.0689,49.6175,16.1385,49.3225,15.2534z M47.6886,17.5228
			c0,0.7489,0,1.5204-0.227,2.2467c-0.3176,0.9758-1.0211,1.4752-1.9971,1.4752c-0.9985,0-1.77-0.5446-2.0878-1.4752
			c-0.4085-1.4297-0.4992-2.9047-0.1134-4.3799c0.2723-0.9531,0.9304-1.4977,1.9743-1.5432
			c0.8624-0.0227,1.702,0.3858,2.0878,1.3616c0.2497,0.6582,0.3177,1.3163,0.3632,1.9743V17.5228z"/>
		<path class="st1" d="M26.606,16.2974c-0.295-2.383-1.8155-3.8353-3.9033-3.9488c-1.7475-0.0907-3.0636,0.6809-3.7898,2.0425
			c-0.5448,0.9758-0.7035,2.0198-0.7035,3.109c0,0.8851,0.068,1.7248,0.3858,2.5417c0.4992,1.407,1.702,2.746,4.0621,2.6779
			c1.702-0.0453,3.109-1.0438,3.6991-2.7006C26.7649,18.7709,26.8103,17.5228,26.606,16.2974z M24.5637,19.656
			c-0.4993,1.8609-2.451,1.8609-3.4495,1.1347c-0.3177-0.2496-0.4992-0.5219-0.6128-0.9078
			c-0.4765-1.4523-0.5219-2.9274-0.2042-4.4479c0.2723-1.2028,1.044-1.5886,2.0651-1.6113
			c0.9532-0.0454,1.7702,0.5673,2.0879,1.5432c0.068,0.227,0.1362,0.4539,0.1362,0.7262c0.1362,0.5446,0.1589,1.0893,0.1589,1.5886
			C24.7453,18.3852,24.7225,19.0432,24.5637,19.656z"/>
		<path class="st3" d="M11.389,22.4479H9.7652c-0.1182-0.1929-0.0809-0.3484-0.0809-0.5413v-6.041
			c0-0.3111-0.0373-0.5848-0.0747-0.8959c-0.0809-0.5786-0.4666-0.927-1.0452-1.0079c-0.4666-0.0373-0.9332,0.1182-1.3189,0.3111
			c-0.5039,0.2364-0.9705,0.5413-1.3936,1.0079v7.1297H4.1846c-0.0747-0.1929-0.0373-0.3484-0.0373-0.5039v-6.7378
			c0-0.815-0.0809-1.5927-0.4293-2.3641c0.5848-0.1555,1.1261-0.3111,1.6673-0.4666c0.2737,0.3857,0.3111,0.8523,0.4293,1.3189
			c0.3049-0.2364,0.5786-0.4666,0.8523-0.6221c0.927-0.5786,1.8975-0.8523,2.9427-0.5039c1.0825,0.3484,1.742,1.2007,1.742,2.3268
			c0.0373,2.4388,0,4.9149,0,7.3599C11.4263,22.3297,11.4263,22.3732,11.389,22.4479z"/>
		<path class="st3" d="M58.8829,22.4479h-2.134c-0.815-1.2754-1.6238-2.557-2.5196-3.9132
			c-0.8523,1.3189-1.6611,2.6379-2.5134,3.9132h-2.0904c1.238-1.8229,2.4388-3.6395,3.6395-5.3815
			c-1.0079-1.4745-2.0157-2.9054-3.0236-4.3798h2.1713c0.5786,0.9705,1.2007,1.9784,1.8166,3.0236
			c0.6221-1.0452,1.2007-2.053,1.7855-3.0609h2.0157c-1.0079,1.5118-1.9411,2.9427-2.9054,4.3736
			C56.3633,18.8084,57.6013,20.5877,58.8829,22.4479z"/>
		<path class="st3" d="M15.7315,12.5683h2.669c-0.1182,0.5039-0.3484,0.9332-0.5413,1.3936h-2.1277v8.486h-1.8229v-8.3678
			c-0.3111-0.1182-0.5786-0.0373-0.8897-0.0747v-1.3189c0.2302-0.0747,0.5413,0,0.8088-0.0747
			c0.1182-0.2737,0.0436-0.5848,0.0436-0.8523c0-0.3919,0-0.7777,0.0747-1.2007c0.1929-1.2443,1.0452-2.053,2.2833-2.2521
			c1.0079-0.1493,1.9411,0.0436,2.7934,0.5848c-0.2364,0.423-0.4293,0.8523-0.6595,1.238
			c-0.3111-0.1182-0.5786-0.2675-0.8897-0.3484c-1.0452-0.3111-1.7047,0.1182-1.742,1.2007
			C15.6879,11.4858,15.7315,12.0271,15.7315,12.5683z"/>
		<path class="st3" d="M40.5983,22.4105c-0.6221,0.3484-1.2816,0.3857-1.8975,0.1182c-0.5039-0.1991-0.815-0.6221-0.8897-1.1634
			c-0.0435-0.2737-0.0435-0.5413-0.0435-0.7777v-9.9915c0-0.6595-0.0373-1.3189-0.2302-1.9784
			c0.5786-0.1555,1.1198-0.2675,1.742-0.3484c0.2737,0.8523,0.3111,1.7046,0.3111,2.557v9.6494
			c-0.0373,0.2302-0.0809,0.4977,0.1182,0.7341c0.1929,0.112,0.3857,0,0.5413,0.0747
			C40.3619,21.6329,40.4801,22.0248,40.5983,22.4105z"/>
		<path class="st1" d="M73.7582,23.4557c-0.0436,0.1182-0.1182,0.1929-0.2364,0.3111c-0.927,0.6968-1.8975,1.4309-2.8245,2.1277
			c-0.392,0.3111-0.7403,0.3111-1.1261,0c-0.9705-0.7341-1.9349-1.4682-2.9054-2.2086c-0.1182-0.0373-0.1555-0.112-0.1929-0.1555
			c-0.0747-0.2302,0-0.3857,0.1929-0.5413c0.9705-0.7341,1.9349-1.4682,2.9427-2.165c0.3484-0.2364,0.6968-0.2364,1.0452,0
			c0.9705,0.6968,1.8975,1.4309,2.8307,2.1277C73.64,23.07,73.7956,23.182,73.7582,23.4557z"/>
		<path class="st4" d="M78.6731,12.5683c-0.0373,0.1929-0.1555,0.3111-0.3111,0.3919c-0.927,0.6968-1.8167,1.3936-2.7499,2.0904
			c-0.4604,0.3484-0.7714,0.3484-1.2007,0c-1.0079-0.7341-1.9722-1.4745-2.98-2.2459c-0.0809-0.1929-0.0809-0.3111-0.0373-0.4293
			c0.0373-0.0373,0.0373-0.0747,0.0747-0.0747c0.9332-0.6968,1.8602-1.3936,2.7872-2.1339c0.6221-0.4604,0.8959-0.4604,1.4745,0
			c0.8523,0.6221,1.7047,1.2443,2.5196,1.8975C78.4429,12.1826,78.6358,12.3381,78.6731,12.5683z"/>
		<path class="st1" d="M68.5261,20.0838c-0.9705,0.7403-1.9349,1.4745-2.9427,2.1713c-0.3484,0.2737-0.6968,0.2302-1.0452,0
			c-0.9705-0.7341-1.9411-1.4745-2.9489-2.1713c-0.0373-0.112-0.112-0.2302-0.112-0.4604c0.0747-0.1991,0.2302-0.2737,0.3484-0.3546
			c0.8897-0.6532,1.7793-1.3127,2.6316-1.9722c0.5039-0.3858,0.815-0.3858,1.3189,0c0.8523,0.6595,1.742,1.3189,2.5943,1.9348
			c0.1182,0.1182,0.2737,0.1929,0.3484,0.3484C68.7998,19.8162,68.7189,19.9718,68.5261,20.0838z"/>
		<path class="st4" d="M73.7147,9.1217c-0.6595,0.5039-1.3936,1.0452-2.1277,1.5864c-0.2737,0.1991-0.5413,0.4293-0.815,0.6221
			c-0.5413,0.3857-0.8523,0.3857-1.3936,0c-0.6595-0.5039-1.3562-1.0079-2.0158-1.5118c-0.2302-0.1929-0.4666-0.3484-0.6968-0.5413
			c-0.1555-0.0747-0.2675-0.2302-0.1929-0.5039c0.2737-0.3484,0.6968-0.5786,1.0826-0.8897
			c0.6595-0.5039,1.3189-1.0079,1.9784-1.4745c0.423-0.3049,0.7341-0.3049,1.1634,0c0.8896,0.6595,1.7793,1.3189,2.669,2.0157
			C73.5591,8.5804,73.8329,8.736,73.7147,9.1217z"/>
		<path class="st4" d="M73.6027,16.4816c-1.0514,0.7777-2.0966,1.5864-3.0982,2.3268c-0.4666,0.112-0.7777,0-1.0887-0.2364
			c-0.8896-0.6968-1.8167-1.3501-2.7125-2.053c-0.1555-0.112-0.3048-0.2676-0.1929-0.5786c0.4293-0.423,0.9705-0.7714,1.5118-1.1634
			c0.5039-0.3857,1.0079-0.7341,1.5118-1.1198c0.423-0.3111,0.7714-0.3111,1.1634-0.0436c0.927,0.703,1.854,1.3563,2.7498,2.053
			c0.112,0.1555,0.2302,0.2364,0.3111,0.3919C73.7956,16.2514,73.7147,16.4069,73.6027,16.4816z"/>
		<path class="st4" d="M68.7563,12.7239c-0.5413,0.5039-1.2007,0.8897-1.7793,1.3936c-0.3857,0.3111-0.7777,0.5848-1.1634,0.8959
			c-0.3484,0.2675-0.6968,0.3484-1.0452,0.112c-1.0825-0.7714-2.1713-1.5864-3.1791-2.3641c-0.1493-0.3484,0-0.4977,0.1991-0.6159
			c0.927-0.6968,1.8975-1.4371,2.8245-2.1339c0.3484-0.2675,0.7777-0.2675,1.1634,0c0.9705,0.6968,1.8975,1.4371,2.8245,2.1339
			C68.7189,12.2635,68.8745,12.3755,68.7563,12.7239z"/>
		<path class="st1" d="M78.7105,19.7727c-0.0373,0.2364-0.1929,0.3484-0.3484,0.4666c-0.8897,0.6595-1.7793,1.3189-2.6317,1.9784
			c-0.5039,0.3484-0.815,0.3857-1.2754,0c-0.9332-0.6595-1.8229-1.3563-2.7498-2.053c-0.1991-0.1555-0.3546-0.3111-0.2737-0.5848
			c0.1182-0.1929,0.3111-0.2675,0.5039-0.423c0.815-0.6221,1.6238-1.238,2.4388-1.8602c0.4666-0.3484,0.815-0.3484,1.3189,0
			c0.8896,0.6595,1.7793,1.3563,2.669,2.0157C78.5176,19.4678,78.6731,19.5425,78.7105,19.7727z"/>
		<path class="st5" d="M79.3699,7.5353c0.0436,0.1182,0.1182,0.2737,0.2737,0.423c-0.0062,0.0124-0.0125,0.0186-0.0125,0.0249
			c-0.0187,0.0249-0.0311,0.0498-0.0498,0.0622c-0.0186-0.0124-0.0373-0.0249-0.056-0.0435
			c-0.0187-0.0125-0.0373-0.0311-0.056-0.0498c-0.1244-0.1058-0.2115-0.2551-0.2115-0.4541
			c0.3048-0.7403,0.3048-0.7777-0.1182-1.0452c-0.0062-0.0062-0.0125-0.0062-0.0249-0.0062c-0.1804-0.0685-0.3982,0-0.5724-0.0373
			c0.1929-0.0249,0.392,0.0186,0.5973,0.0062c0.0373,0,0.0747,0,0.1182-0.0062C79.7992,6.7203,79.8365,7.106,79.3699,7.5353z"/>
		<path class="st6" d="M78.4803,6.6456c-0.1182,0.3484-0.0373,0.7342-0.0373,1.1199c0.1929-0.0373,0.1182-0.2302,0.2675-0.2675
			c0.056-0.0187,0.0995-0.0062,0.1182,0.0373c-0.0622,0.0809-0.056,0.1804-0.056,0.2799c0.0062,0.0933,0.0187,0.1867-0.0186,0.2613
			c-0.0374,0.0373-0.0747,0.056-0.112,0.056c-0.0186,0.0062-0.0311,0.0062-0.0435,0.0062c-0.0685,0-0.1493-0.0249-0.2364-0.0249
			V6.4527c0.0622-0.0249,0.1182-0.0435,0.1804-0.0435c0.1929-0.0249,0.392,0.0186,0.5973,0.0062
			c-0.0062,0.0125-0.0187,0.0187-0.0249,0.0311C78.9469,6.5771,78.6793,6.4776,78.4803,6.6456z"/>
		<path class="st7" d="M79.6312,7.9832c-0.0187,0.0249-0.0311,0.0498-0.0498,0.0622c-0.1058,0.112-0.2364,0.0311-0.367,0.0311
			c-0.112-0.1555-0.1929-0.2675-0.2675-0.3857V7.6721c0.1866,0.0684,0.3235,0.2426,0.5226,0.28
			c0.0436,0.0125,0.0871,0.0125,0.1369,0.0062C79.6125,7.9645,79.625,7.977,79.6312,7.9832z"/>
		<path class="st8" d="M79.2556,6.4028c-0.0453,0.0227-0.068,0.0227-0.1134,0.0227h-0.2496
			c-0.1134-0.0227-0.227-0.0454-0.3405-0.0227c-0.068,0-0.1362,0.0227-0.1816,0.0454v1.6566c0.0681,0,0.1589,0.0227,0.227,0.0227
			c0.0227,0,0.0227,0,0.0454,0c0.0453,0,0.068-0.0227,0.1134-0.0454c0.0453-0.0907,0.0227-0.1815,0.0227-0.2723V7.6963
			c0-0.068,0-0.1134,0.0453-0.1589c0.0227,0,0.0227,0.0227,0.0454,0.0454c0.0454,0.0227,0.068,0.0454,0.068,0.0907v0.0227
			c0.0909,0.1134,0.1589,0.227,0.2725,0.3858c0.1362,0,0.2723,0.0681,0.363-0.0453c0.0227,0,0.0454-0.0227,0.068-0.0454
			c0-0.0227,0-0.0227,0-0.0227c-0.1587-0.1589-0.2269-0.3176-0.2723-0.4312C79.8457,7.1063,79.8003,6.7205,79.2556,6.4028z
			 M78.8017,7.1063c-0.1362-0.1589-0.0907-0.2269,0-0.3403c0.1816-0.0454,0.295-0.0454,0.3859,0.1589
			C79.1422,7.1517,78.9379,7.1063,78.8017,7.1063z"/>
	</g>
</g>
</svg>
