<?xml version="1.0" encoding="utf-8"?>
<!-- Generator: Adobe Illustrator 26.0.2, SVG Export Plug-In . SVG Version: 6.00 Build 0)  -->
<svg version="1.1" xmlns="http://www.w3.org/2000/svg" xmlns:xlink="http://www.w3.org/1999/xlink" x="0px" y="0px"
	 viewBox="0 0 140 40" enable-background="new 0 0 140 40" xml:space="preserve">
<g id="guides" display="none">
</g>
<g id="images">
</g>
<g id="Layer_5">
	<g>
		<path fill="#434B9F" d="M0.0826,12.7941h2.3008v17.7c-0.756,0.1561-1.5202-0.0411-2.2762,0.1068
			c0.2466-0.1972,0.5588-0.1561,0.8464-0.1561c0.3533,0,0.7149,0.0493,1.2244-0.2054V13.2543
			C1.4631,12.8434,0.6989,13.2543,0.0826,12.7941z"/>
		<path fill="#434B9F" d="M14.8162,30.1901c0.0986,0.1479,0.0986,0.2054,0.0493,0.304h-2.1447
			c-0.1561-0.2547-0.1068-0.4602-0.1068-0.7149v-7.979c0-0.4109-0.0493-0.7724-0.0986-1.1833
			c-0.1068-0.7642-0.6163-1.2244-1.3805-1.3312c-0.6163-0.0493-1.2326,0.1561-1.7421,0.4109
			c-0.6656,0.3123-1.2819,0.7149-1.8407,1.3312v9.417H5.3499c-0.0986-0.2547-0.0493-0.4602-0.0493-0.6656v-8.8993
			c0-1.0765-0.1068-2.1036-0.567-3.1226c0.7724-0.2054,1.4873-0.4109,2.2022-0.6163c0.3616,0.5095,0.4109,1.1258,0.567,1.7421
			c0.4027-0.3123,0.7642-0.6163,1.1258-0.8217c1.2244-0.7642,2.5063-1.1258,3.8868-0.6656
			c1.4298,0.4602,2.3008,1.5859,2.3008,3.0733C14.8655,23.6902,14.8162,26.9607,14.8162,30.1901z"/>
		<path fill="#434B9F" d="M24.1264,17.4451c-0.1561,0.6656-0.4602,1.2326-0.7149,1.8407h-2.8104v11.2084h-2.4077V19.4418
			c-0.4109-0.1561-0.7642-0.0493-1.1751-0.0986v-1.7421c0.304-0.0986,0.7149,0,1.0682-0.0986
			c0.1561-0.3616,0.0575-0.7724,0.0575-1.1258c0-0.5177,0-1.0272,0.0986-1.5859c0.2547-1.6435,1.3805-2.7117,3.0158-2.9747
			c1.3312-0.1972,2.5638,0.0575,3.6896,0.7724c-0.3123,0.5588-0.567,1.1258-0.871,1.6352
			c-0.4109-0.1561-0.7642-0.3533-1.1751-0.4602c-1.3806-0.4109-2.2516,0.1561-2.3009,1.5859c-0.0575,0.6656,0,1.3805,0,2.0954
			H24.1264z"/>
		<path fill="#434B9F" d="M34.9732,22.359c-0.4109-3.1226-2.4077-5.0618-5.1687-5.218c-2.3008-0.0986-4.0429,0.9203-5.0125,2.7117
			c-0.7149,1.2819-0.9203,2.6624-0.9203,4.0922c0,1.1751,0.0986,2.3008,0.5095,3.3773c0.6656,1.8407,2.2515,3.632,5.3741,3.5334
			c2.2515-0.0575,4.0922-1.3805,4.8646-3.5827C35.1786,25.6377,35.228,23.9943,34.9732,22.359z M32.2615,26.8128
			c-0.6656,2.457-3.2212,2.457-4.5524,1.4791c-0.4109-0.304-0.6656-0.6656-0.8217-1.1751
			c-0.6081-1.9393-0.6656-3.8868-0.2547-5.8836c0.3616-1.5859,1.3805-2.0954,2.7117-2.1447
			c1.2819-0.0575,2.3584,0.7642,2.761,2.0461c0.1068,0.304,0.2054,0.6081,0.2054,0.9696c0.1561,0.715,0.2054,1.4299,0.2054,2.0954
			C32.5162,25.12,32.4669,25.9911,32.2615,26.8128z"/>
		<path fill="#434B9F" d="M47.2005,20.2143c-0.2547-0.7724-0.7642-1.438-1.3805-1.9475c-1.5366-1.2819-3.8375-1.4298-5.5795-0.2547
			c-0.2547,0.2054-0.5095,0.4109-0.8135,0.6163v-3.5334c0-1.1751,0-2.3501-0.3616-3.4759h-0.304
			c-0.6656,0.1479-1.2819,0.2547-1.9968,0.4026c0.2547,0.9203,0.3616,1.7421,0.304,2.5638v13.197
			c0,0.871-0.0493,1.7914-0.4026,2.6624h2.3008c0.2054-0.3123,0.2547-0.6656,0.3533-1.0272c0.0575,0,0.1068,0,0.1068,0
			c0.1479,0.1068,0.304,0.2547,0.4602,0.3616c1.0189,0.7642,2.2022,1.1751,3.5252,0.9696c1.6435-0.304,2.8185-1.2244,3.5334-2.7117
			C48.1702,25.4816,48.1702,22.8685,47.2005,20.2143z M44.9983,26.706c-0.5095,1.7914-2.2433,2.3584-3.7306,1.8407
			c-0.7149-0.1972-1.2244-0.5588-1.8407-1.2244v-6.3931c0.8135-0.9779,1.7914-1.5366,3.065-1.5366
			c1.3805,0,2.3584,0.7642,2.6624,2.0954C45.516,23.2301,45.4667,24.9721,44.9983,26.706z"/>
		<path fill="#434B9F" d="M52.9855,28.9575c0.1479,0.4602,0.304,0.9779,0.4602,1.4873c-0.8217,0.4602-1.6928,0.5095-2.5063,0.1561
			c-0.6656-0.263-1.0765-0.8217-1.1751-1.5366c-0.0575-0.3616-0.0575-0.7149-0.0575-1.0272v-13.197
			c0-0.871-0.0493-1.7421-0.304-2.6131c0.7642-0.2054,1.4791-0.3533,2.3008-0.4602c0.3616,1.1258,0.4109,2.2515,0.4109,3.3773
			v12.745c-0.0493,0.304-0.1068,0.6574,0.1561,0.9696C52.5254,29.0068,52.7801,28.8589,52.9855,28.9575z"/>
		<path fill="#434B9F" d="M64.9582,20.9785c-0.7724-2.4077-2.7117-3.8375-5.218-3.8375c-2.457,0-4.3552,1.3805-5.1194,3.8375
			c-0.5588,1.7914-0.5588,3.6321-0.1561,5.4234c0.567,2.7117,2.457,4.6017,5.7357,4.4538c1.9393-0.1068,3.4266-0.9779,4.347-2.6624
			c0.6163-1.1258,0.8217-2.3584,0.871-4.0922C65.369,23.3861,65.369,22.1535,64.9582,20.9785z M62.8052,23.9943
			c0,0.9779,0,1.9968-0.3041,2.9664c-0.4109,1.2819-1.3312,1.9475-2.6131,1.9475c-1.3312,0-2.3501-0.7149-2.761-1.9475
			c-0.5588-1.89-0.6656-3.8375-0.1561-5.7768c0.3616-1.2819,1.2326-1.9968,2.6131-2.0461c1.1258-0.0493,2.2515,0.5095,2.7611,1.7914
			c0.3122,0.871,0.4109,1.7339,0.4602,2.6049V23.9943z"/>
		<path fill="#434B9F" d="M72.6331,23.3287c1.6352,2.3584,3.2705,4.7085,4.9633,7.1655h-2.8186
			c-1.0765-1.6845-2.1447-3.3773-3.328-5.1687c-1.1258,1.7421-2.194,3.4841-3.3198,5.1687h-2.761
			c1.6352-2.4077,3.2212-4.8071,4.8071-7.108c-1.3312-1.9475-2.6624-3.8375-3.9936-5.785h2.8678
			c0.7642,1.2819,1.5859,2.6131,2.3994,3.9936c0.8217-1.3805,1.5859-2.7117,2.3584-4.0429h2.6624
			C75.1394,19.5487,73.9068,21.4386,72.6331,23.3287z"/>
		<path fill="#FFFFFF" d="M90.3332,27.3716c-1.2819,0.9779-2.5556,1.9475-3.8868,2.8678c-0.4602,0.3616-0.9203,0.304-1.3805,0
			c-1.2819-0.9696-2.5638-1.9475-3.895-2.8678c-0.0493-0.1479-0.1479-0.304-0.1479-0.6081c0.0986-0.263,0.304-0.3616,0.4602-0.4684
			c1.1751-0.8628,2.3501-1.7338,3.4759-2.6049c0.6656-0.5095,1.0765-0.5095,1.7421,0c1.1258,0.871,2.3008,1.7421,3.4267,2.5556
			c0.1561,0.1561,0.3616,0.2547,0.4602,0.4602C90.6947,27.0182,90.5879,27.2237,90.3332,27.3716z"/>
		<path fill="#FFFFFF" d="M81.1709,17.6998c-0.1972-0.4602,0-0.6574,0.263-0.8135c1.2244-0.9203,2.5063-1.8982,3.7306-2.8185
			c0.4602-0.3533,1.0272-0.3533,1.5366,0c1.2819,0.9203,2.5063,1.8982,3.7307,2.8185c0.1561,0.1561,0.3616,0.304,0.2054,0.7642
			c-0.7149,0.6656-1.5859,1.1751-2.3502,1.8407c-0.5095,0.4109-1.0272,0.7724-1.5366,1.1833
			c-0.4602,0.3533-0.9203,0.4602-1.3805,0.1479C83.9401,19.8034,82.5021,18.7269,81.1709,17.6998z"/>
		<path fill="#FFFFFF" d="M87.6214,12.4325c0.3616-0.4602,0.9203-0.7642,1.4299-1.1751c0.871-0.6656,1.7421-1.3312,2.6131-1.9475
			c0.5588-0.4027,0.9696-0.4027,1.5366,0c1.1751,0.871,2.3501,1.7421,3.5252,2.6624c0.2547,0.2054,0.6163,0.4109,0.4602,0.9203
			c-0.871,0.6656-1.8407,1.3805-2.8103,2.0954c-0.3616,0.263-0.7149,0.567-1.0765,0.8217c-0.7149,0.5095-1.1258,0.5095-1.8407,0
			c-0.871-0.6656-1.7914-1.3312-2.6624-1.9968c-0.304-0.2547-0.6163-0.4602-0.9203-0.7149
			C87.6707,12.9995,87.5228,12.7941,87.6214,12.4325z"/>
		<path fill="#FFFFFF" d="M97.2439,31.8253c-0.0575,0.1561-0.1561,0.2547-0.3123,0.4109c-1.2244,0.9203-2.5063,1.89-3.7306,2.8103
			c-0.5177,0.4109-0.9779,0.4109-1.4873,0c-1.2819-0.9696-2.5556-1.9393-3.8375-2.9171c-0.1561-0.0493-0.2054-0.1479-0.2547-0.2054
			c-0.0986-0.304,0-0.5095,0.2547-0.7149c1.2819-0.9696,2.5556-1.9393,3.8868-2.8596c0.4602-0.3123,0.9203-0.3123,1.3805,0
			c1.2819,0.9203,2.5063,1.89,3.7389,2.8103C97.0878,31.3159,97.2932,31.4638,97.2439,31.8253z"/>
		<path fill="#FFFFFF" d="M96.833,21.5373c0.1479,0.2054,0.304,0.3123,0.4109,0.5177c0.0493,0.2547-0.0575,0.4602-0.2054,0.5588
			c-1.3887,1.0272-2.7692,2.0954-4.0922,3.0733c-0.6163,0.1479-1.0272,0-1.438-0.3123c-1.1751-0.9203-2.3995-1.7832-3.5828-2.7117
			c-0.2054-0.148-0.4026-0.3534-0.2547-0.7643c0.567-0.5588,1.2819-1.0189,1.9968-1.5366c0.6656-0.5095,1.3312-0.9696,1.9968-1.4791
			c0.5588-0.4109,1.0189-0.4109,1.5366-0.0575C94.4254,19.7541,95.6497,20.6169,96.833,21.5373z"/>
		<path fill="#FFFFFF" d="M103.7849,26.9607c-0.0493,0.3123-0.2547,0.4602-0.4602,0.6163c-1.1751,0.871-2.3502,1.7421-3.476,2.6131
			c-0.6656,0.4602-1.0765,0.5095-1.6845,0c-1.2326-0.871-2.4077-1.7914-3.632-2.7117c-0.263-0.2054-0.4684-0.4109-0.3616-0.7724
			c0.1561-0.2547,0.4109-0.3533,0.6656-0.5588c1.0765-0.8217,2.1447-1.6352,3.2212-2.457c0.6163-0.4602,1.0765-0.4602,1.7421,0
			c1.1751,0.871,2.3501,1.7914,3.5253,2.6624C103.5301,26.5581,103.7356,26.6567,103.7849,26.9607z"/>
		<path fill="#FFFFFF" d="M94.2199,17.0917c1.2326-0.9203,2.457-1.8407,3.6813-2.8185c0.8217-0.6081,1.1833-0.6081,1.9475,0
			c1.1258,0.8217,2.2515,1.6435,3.328,2.5063c0.2548,0.1561,0.5095,0.3616,0.5588,0.6656
			c-0.0493,0.2547-0.2054,0.4109-0.4109,0.5177c-1.2244,0.9203-2.3995,1.8407-3.6321,2.761c-0.6081,0.4602-1.0189,0.4602-1.5859,0
			c-1.3312-0.9696-2.6049-1.9475-3.9361-2.9664c-0.1068-0.2547-0.1068-0.4109-0.0493-0.567
			C94.1706,17.141,94.1706,17.0917,94.2199,17.0917z"/>
		<path fill="#434B9F" d="M106.2418,11.0027v0.0493c-0.0986,0.0904-0.1068,0.2301-0.1479,0.3616
			c-0.4602,0.9696-1.4873,1.4298-2.5063,1.2244c-1.0272-0.2547-1.7421-1.0765-1.7421-2.1447c0-1.0272,0.7149-1.9475,1.6846-2.2023
			c1.0272-0.2547,2.0461,0.2547,2.5063,1.2244c0.0493,0.1397,0.1315,0.2711,0.189,0.4026c-0.2383-0.0329-0.2465-0.263-0.3369-0.4519
			c-0.567-1.019-1.6928-1.3806-2.6624-0.9204c-1.0765,0.5095-1.4299,1.586-0.9697,2.7117c0.4027,0.9203,1.586,1.4298,2.5556,1.0765
			c0.5095-0.2054,0.8217-0.567,1.0765-0.9779C105.9871,11.2082,105.9871,10.9534,106.2418,11.0027z"/>
		<path fill="#434B9F" d="M2.3834,12.7941v17.7c-0.756,0.1561-1.5202-0.0411-2.2762,0.1068H0.0826V12.7941H2.3834z"/>
		<path fill="#434B9F" d="M104.508,9.31c-0.0575,0.0082-0.1068,0.0082-0.1561,0.0082c-0.2712,0.0165-0.5341-0.0411-0.7889-0.0082
			c-0.0822,0-0.1561,0.0246-0.2383,0.0575v2.1941c0.115,0,0.2218,0.0329,0.3123,0.0329c0.0164,0,0.0328,0,0.0575-0.0082
			c0.0493,0,0.0986-0.0246,0.148-0.0739c0.0493-0.0986,0.0329-0.2219,0.0246-0.3452c0-0.1315-0.0082-0.2629,0.074-0.3697
			c-0.0247-0.0575-0.0822-0.074-0.1561-0.0493c-0.1973,0.0493-0.0986,0.304-0.3533,0.3533c0-0.5095-0.1068-1.0189,0.0493-1.4792
			c0.2629-0.2218,0.6163-0.0904,0.8381-0.2629c0.0164,0,0.0247,0,0.0329,0.0082c0.5588,0.3534,0.5588,0.4027,0.1561,1.3805
			c0,0.2629,0.115,0.4602,0.2794,0.5998c0.0575,0.0165,0.1151,0.0165,0.1808,0.0082c0.0082,0.0082,0.0246,0.0246,0.0329,0.0329
			c0-0.0082,0.0082-0.0165,0.0164-0.0329c-0.2054-0.1972-0.304-0.4026-0.3616-0.5588C105.2722,10.2303,105.2229,9.7208,104.508,9.31
			z M104.508,9.31c-0.0575,0.0082-0.1068,0.0082-0.1561,0.0082c-0.2712,0.0165-0.5341-0.0411-0.7889-0.0082
			c-0.0822,0-0.1561,0.0246-0.2383,0.0575v2.1941c0.115,0,0.2218,0.0329,0.3123,0.0329c0.0164,0,0.0328,0,0.0575-0.0082
			c0.0493,0,0.0986-0.0246,0.148-0.0739c0.0493-0.0986,0.0329-0.2219,0.0246-0.3452c0-0.1315-0.0082-0.2629,0.074-0.3697
			c-0.0247-0.0575-0.0822-0.074-0.1561-0.0493c-0.1973,0.0493-0.0986,0.304-0.3533,0.3533c0-0.5095-0.1068-1.0189,0.0493-1.4792
			c0.2629-0.2218,0.6163-0.0904,0.8381-0.2629c0.0164,0,0.0247,0,0.0329,0.0082c0.5588,0.3534,0.5588,0.4027,0.1561,1.3805
			c0,0.2629,0.115,0.4602,0.2794,0.5998c0.0575,0.0165,0.1151,0.0165,0.1808,0.0082c0.0082,0.0082,0.0246,0.0246,0.0329,0.0329
			c0-0.0082,0.0082-0.0165,0.0164-0.0329c-0.2054-0.1972-0.304-0.4026-0.3616-0.5588C105.2722,10.2303,105.2229,9.7208,104.508,9.31
			z M104.508,9.31c-0.0575,0.0082-0.1068,0.0082-0.1561,0.0082c-0.2712,0.0165-0.5341-0.0411-0.7889-0.0082
			c-0.0822,0-0.1561,0.0246-0.2383,0.0575v2.1941c0.115,0,0.2218,0.0329,0.3123,0.0329c0.0164,0,0.0328,0,0.0575-0.0082
			c0.0493,0,0.0986-0.0246,0.148-0.0739c0.0493-0.0986,0.0329-0.2219,0.0246-0.3452c0-0.1315-0.0082-0.2629,0.074-0.3697
			c0,0,0.0082,0,0.0082,0.0082c0.0411,0.0411,0.0575,0.0987,0.0822,0.1561c0.0246,0.0082,0.0411,0.0082,0.0658,0.0165v0.0247
			c0.0986,0.1561,0.2054,0.304,0.3533,0.5095c0.1725,0,0.3451,0.1068,0.4848-0.0411c0.0247-0.0164,0.0411-0.0493,0.0658-0.0822
			c0-0.0082,0.0082-0.0165,0.0164-0.0329c-0.2054-0.1972-0.304-0.4026-0.3616-0.5588C105.2722,10.2303,105.2229,9.7208,104.508,9.31
			z M103.8917,10.2303c-0.1561-0.1973-0.1068-0.304,0-0.4602c0.2547-0.0493,0.4109-0.0493,0.5095,0.2054
			C104.3519,10.2878,104.0971,10.2303,103.8917,10.2303z M104.508,9.31c-0.0575,0.0082-0.1068,0.0082-0.1561,0.0082
			c-0.2712,0.0165-0.5341-0.0411-0.7889-0.0082c-0.0822,0-0.1561,0.0246-0.2383,0.0575v2.1941c0.115,0,0.2218,0.0329,0.3123,0.0329
			c0.0164,0,0.0328,0,0.0575-0.0082c0.0493,0,0.0986-0.0246,0.148-0.0739c0.0493-0.0986,0.0329-0.2219,0.0246-0.3452
			c0-0.1315-0.0082-0.2629,0.074-0.3697c0,0,0.0082,0,0.0082,0.0082c0.0411,0.0411,0.0575,0.0987,0.0822,0.1561
			c0.0246,0.0082,0.0411,0.0082,0.0658,0.0165v0.0247c0.0986,0.1561,0.2054,0.304,0.3533,0.5095
			c0.1725,0,0.3451,0.1068,0.4848-0.0411c0.0247-0.0164,0.0411-0.0493,0.0658-0.0822c0-0.0082,0.0082-0.0165,0.0164-0.0329
			c-0.2054-0.1972-0.304-0.4026-0.3616-0.5588C105.2722,10.2303,105.2229,9.7208,104.508,9.31z M103.8917,10.2303
			c-0.1561-0.1973-0.1068-0.304,0-0.4602c0.2547-0.0493,0.4109-0.0493,0.5095,0.2054
			C104.3519,10.2878,104.0971,10.2303,103.8917,10.2303z M104.508,9.31c-0.0575,0.0082-0.1068,0.0082-0.1561,0.0082
			c-0.2712,0.0165-0.5341-0.0411-0.7889-0.0082c-0.0822,0-0.1561,0.0246-0.2383,0.0575v2.1941c0.115,0,0.2218,0.0329,0.3123,0.0329
			c0.0164,0,0.0328,0,0.0575-0.0082c0.0493,0,0.0986-0.0246,0.148-0.0739c0.0493-0.0986,0.0329-0.2219,0.0246-0.3452
			c0-0.1315-0.0082-0.2629,0.074-0.3697c0,0,0.0082,0,0.0082,0.0082c0.0411,0.0411,0.0575,0.0987,0.0822,0.1561
			c0.0246,0.0082,0.0411,0.0082,0.0658,0.0165v0.0247c0.0986,0.1561,0.2054,0.304,0.3533,0.5095
			c0.1725,0,0.3451,0.1068,0.4848-0.0411c0.0247-0.0164,0.0411-0.0493,0.0658-0.0822c0-0.0082,0.0082-0.0165,0.0164-0.0329
			c-0.2054-0.1972-0.304-0.4026-0.3616-0.5588C105.2722,10.2303,105.2229,9.7208,104.508,9.31z M103.8917,10.2303
			c-0.1561-0.1973-0.1068-0.304,0-0.4602c0.2547-0.0493,0.4109-0.0493,0.5095,0.2054
			C104.3519,10.2878,104.0971,10.2303,103.8917,10.2303z M104.508,9.31c-0.0575,0.0082-0.1068,0.0082-0.1561,0.0082
			c-0.2712,0.0165-0.5341-0.0411-0.7889-0.0082c-0.0822,0-0.1561,0.0246-0.2383,0.0575v2.1941c0.115,0,0.2218,0.0329,0.3123,0.0329
			c0.0164,0,0.0328,0,0.0575-0.0082c0.0493,0,0.0986-0.0246,0.148-0.0739c0.0493-0.0986,0.0329-0.2219,0.0246-0.3452
			c0-0.1315-0.0082-0.2629,0.074-0.3697c0,0,0.0082,0,0.0082,0.0082c0.0411,0.0411,0.0575,0.0987,0.0822,0.1561
			c0.0246,0.0082,0.0411,0.0082,0.0658,0.0165v0.0247c0.0986,0.1561,0.2054,0.304,0.3533,0.5095
			c0.1725,0,0.3451,0.1068,0.4848-0.0411c0.0247-0.0164,0.0411-0.0493,0.0658-0.0822c0-0.0082,0.0082-0.0165,0.0164-0.0329
			c-0.2054-0.1972-0.304-0.4026-0.3616-0.5588C105.2722,10.2303,105.2229,9.7208,104.508,9.31z M103.8917,10.2303
			c-0.1561-0.1973-0.1068-0.304,0-0.4602c0.2547-0.0493,0.4109-0.0493,0.5095,0.2054
			C104.3519,10.2878,104.0971,10.2303,103.8917,10.2303z M106.2418,9.9756c-0.0082-0.0165-0.0164-0.0411-0.0164-0.0575
			c-0.0575-0.1315-0.1397-0.263-0.189-0.4026c-0.4602-0.9697-1.4791-1.4792-2.5063-1.2244
			c-0.9697,0.2547-1.6846,1.1751-1.6846,2.2023c0,1.0682,0.7149,1.89,1.7421,2.1447c1.019,0.2054,2.0462-0.2547,2.5063-1.2244
			c0.0411-0.1315,0.0493-0.2712,0.1479-0.3616c0.0164-0.0165,0.0329-0.0329,0.0575-0.0493
			C106.2994,10.6412,106.2994,10.2878,106.2418,9.9756z M105.1654,11.5204c-0.5835,0.6327-1.1751,0.7478-1.9311,0.2629
			c-0.0575-0.0082-0.115-0.0164-0.1643-0.0164c-0.871-0.871-0.8136-1.9968,0.2054-2.7117c0.6656-0.5095,1.5366-0.2054,1.9968,0.3122
			c0.5095,0.6081,0.5095,1.3805-0.0493,2.1448C105.1982,11.5204,105.1818,11.5204,105.1654,11.5204z M104.508,9.31
			c-0.0575,0.0082-0.1068,0.0082-0.1561,0.0082c-0.2712,0.0165-0.5341-0.0411-0.7889-0.0082c-0.0822,0-0.1561,0.0246-0.2383,0.0575
			v2.1941c0.115,0,0.2218,0.0329,0.3123,0.0329c0.0164,0,0.0328,0,0.0575-0.0082c0.0493,0,0.0986-0.0246,0.148-0.0739
			c0.0493-0.0986,0.0329-0.2219,0.0246-0.3452c0-0.1315-0.0082-0.2629,0.074-0.3697c0,0,0.0082,0,0.0082,0.0082
			c0.0411,0.0411,0.0575,0.0987,0.0822,0.1561c0.0246,0.0082,0.0411,0.0082,0.0658,0.0165v0.0247
			c0.0986,0.1561,0.2054,0.304,0.3533,0.5095c0.1725,0,0.3451,0.1068,0.4848-0.0411c0.0247-0.0164,0.0411-0.0493,0.0658-0.0822
			c0-0.0082,0.0082-0.0165,0.0164-0.0329c-0.2054-0.1972-0.304-0.4026-0.3616-0.5588C105.2722,10.2303,105.2229,9.7208,104.508,9.31
			z M103.8917,10.2303c-0.1561-0.1973-0.1068-0.304,0-0.4602c0.2547-0.0493,0.4109-0.0493,0.5095,0.2054
			C104.3519,10.2878,104.0971,10.2303,103.8917,10.2303z M104.508,9.31c-0.0575,0.0082-0.1068,0.0082-0.1561,0.0082
			c-0.2712,0.0165-0.5341-0.0411-0.7889-0.0082c-0.0822,0-0.1561,0.0246-0.2383,0.0575v2.1941c0.115,0,0.2218,0.0329,0.3123,0.0329
			c0.0164,0,0.0328,0,0.0575-0.0082c0.0493,0,0.0986-0.0246,0.148-0.0739c0.0493-0.0986,0.0329-0.2219,0.0246-0.3452
			c0-0.1315-0.0082-0.2629,0.074-0.3697c0,0,0.0082,0,0.0082,0.0082c0.0411,0.0411,0.0575,0.0987,0.0822,0.1561
			c0.0246,0.0082,0.0411,0.0082,0.0658,0.0165v0.0247c0.0986,0.1561,0.2054,0.304,0.3533,0.5095
			c0.1725,0,0.3451,0.1068,0.4848-0.0411c0.0247-0.0164,0.0411-0.0493,0.0658-0.0822c0-0.0082,0.0082-0.0165,0.0164-0.0329
			c-0.2054-0.1972-0.304-0.4026-0.3616-0.5588C105.2722,10.2303,105.2229,9.7208,104.508,9.31z M103.8917,10.2303
			c-0.1561-0.1973-0.1068-0.304,0-0.4602c0.2547-0.0493,0.4109-0.0493,0.5095,0.2054
			C104.3519,10.2878,104.0971,10.2303,103.8917,10.2303z M104.508,9.31c-0.0575,0.0082-0.1068,0.0082-0.1561,0.0082
			c-0.2712,0.0165-0.5341-0.0411-0.7889-0.0082c-0.0822,0-0.1561,0.0246-0.2383,0.0575v2.1941c0.115,0,0.2218,0.0329,0.3123,0.0329
			c0.0164,0,0.0328,0,0.0575-0.0082c0.0493,0,0.0986-0.0246,0.148-0.0739c0.0493-0.0986,0.0329-0.2219,0.0246-0.3452
			c0-0.1315-0.0082-0.2629,0.074-0.3697c0,0,0.0082,0,0.0082,0.0082c0.0411,0.0411,0.0575,0.0987,0.0822,0.1561
			c0.0246,0.0082,0.0411,0.0082,0.0658,0.0165v0.0247c0.0986,0.1561,0.2054,0.304,0.3533,0.5095
			c0.1725,0,0.3451,0.1068,0.4848-0.0411c0.0247-0.0164,0.0411-0.0493,0.0658-0.0822c0-0.0082,0.0082-0.0165,0.0164-0.0329
			c-0.2054-0.1972-0.304-0.4026-0.3616-0.5588C105.2722,10.2303,105.2229,9.7208,104.508,9.31z M103.8917,10.2303
			c-0.1561-0.1973-0.1068-0.304,0-0.4602c0.2547-0.0493,0.4109-0.0493,0.5095,0.2054
			C104.3519,10.2878,104.0971,10.2303,103.8917,10.2303z M104.508,9.31c-0.0575,0.0082-0.1068,0.0082-0.1561,0.0082
			c-0.2712,0.0165-0.5341-0.0411-0.7889-0.0082c-0.0822,0-0.1561,0.0246-0.2383,0.0575v2.1941c0.115,0,0.2218,0.0329,0.3123,0.0329
			c0.0164,0,0.0328,0,0.0575-0.0082c0.0493,0,0.0986-0.0246,0.148-0.0739c0.0493-0.0986,0.0329-0.2219,0.0246-0.3452
			c0-0.1315-0.0082-0.2629,0.074-0.3697c0,0,0.0082,0,0.0082,0.0082c0.0411,0.0411,0.0575,0.0987,0.0822,0.1561
			c0.0246,0.0082,0.0411,0.0082,0.0658,0.0165v0.0247c0.0986,0.1561,0.2054,0.304,0.3533,0.5095
			c0.1725,0,0.3451,0.1068,0.4848-0.0411c0.0247-0.0164,0.0411-0.0493,0.0658-0.0822c0-0.0082,0.0082-0.0165,0.0164-0.0329
			c-0.2054-0.1972-0.304-0.4026-0.3616-0.5588C105.2722,10.2303,105.2229,9.7208,104.508,9.31z M103.8917,10.2303
			c-0.1561-0.1973-0.1068-0.304,0-0.4602c0.2547-0.0493,0.4109-0.0493,0.5095,0.2054
			C104.3519,10.2878,104.0971,10.2303,103.8917,10.2303z M104.508,9.31c-0.0575,0.0082-0.1068,0.0082-0.1561,0.0082
			c-0.2712,0.0165-0.5341-0.0411-0.7889-0.0082c-0.0822,0-0.1561,0.0246-0.2383,0.0575v2.1941c0.115,0,0.2218,0.0329,0.3123,0.0329
			c0.0164,0,0.0328,0,0.0575-0.0082c0.0493,0,0.0986-0.0246,0.148-0.0739c0.0493-0.0986,0.0329-0.2219,0.0246-0.3452
			c0-0.1315-0.0082-0.2629,0.074-0.3697c0,0,0.0082,0,0.0082,0.0082c0.0411,0.0411,0.0575,0.0987,0.0822,0.1561
			c0.0246,0.0082,0.0411,0.0082,0.0658,0.0165v0.0247c0.0986,0.1561,0.2054,0.304,0.3533,0.5095
			c0.1725,0,0.3451,0.1068,0.4848-0.0411c0.0247-0.0164,0.0411-0.0493,0.0658-0.0822c0-0.0082,0.0082-0.0165,0.0164-0.0329
			c-0.2054-0.1972-0.304-0.4026-0.3616-0.5588C105.2722,10.2303,105.2229,9.7208,104.508,9.31z M103.8917,10.2303
			c-0.1561-0.1973-0.1068-0.304,0-0.4602c0.2547-0.0493,0.4109-0.0493,0.5095,0.2054
			C104.3519,10.2878,104.0971,10.2303,103.8917,10.2303z M104.508,9.31c-0.0575,0.0082-0.1068,0.0082-0.1561,0.0082
			c-0.2712,0.0165-0.5341-0.0411-0.7889-0.0082c-0.0822,0-0.1561,0.0246-0.2383,0.0575v2.1941c0.115,0,0.2218,0.0329,0.3123,0.0329
			c0.0164,0,0.0328,0,0.0575-0.0082c0.0493,0,0.0986-0.0246,0.148-0.0739c0.0493-0.0986,0.0329-0.2219,0.0246-0.3452
			c0-0.1315-0.0082-0.2629,0.074-0.3697c-0.0247-0.0575-0.0822-0.074-0.1561-0.0493c-0.1973,0.0493-0.0986,0.304-0.3533,0.3533
			c0-0.5095-0.1068-1.0189,0.0493-1.4792c0.2629-0.2218,0.6163-0.0904,0.8381-0.2629c0.0164,0,0.0247,0,0.0329,0.0082
			c0.5588,0.3534,0.5588,0.4027,0.1561,1.3805c0,0.2629,0.115,0.4602,0.2794,0.5998c0.0575,0.0165,0.1151,0.0165,0.1808,0.0082
			c0.0082,0.0082,0.0246,0.0246,0.0329,0.0329c0-0.0082,0.0082-0.0165,0.0164-0.0329c-0.2054-0.1972-0.304-0.4026-0.3616-0.5588
			C105.2722,10.2303,105.2229,9.7208,104.508,9.31z"/>
		<path fill="#434B9F" d="M47.2005,20.2143c-0.2547-0.7724-0.7642-1.438-1.3805-1.9475c-1.5366-1.2819-3.8375-1.4298-5.5795-0.2547
			c-0.2547,0.2054-0.5095,0.4109-0.8135,0.6163v-3.5334c0-1.1751,0-2.3501-0.3616-3.4759h-0.304
			c-0.6656,0.1479-1.2819,0.2547-1.9968,0.4026c0.2547,0.9203,0.3616,1.7421,0.304,2.5638v13.197
			c0,0.871-0.0493,1.7914-0.4026,2.6624h2.3008c0.2054-0.3123,0.2547-0.6656,0.3533-1.0272c0.0575,0,0.1068,0,0.1068,0
			c0.1479,0.1068,0.304,0.2547,0.4602,0.3616c1.0189,0.7642,2.2022,1.1751,3.5252,0.9696c1.6435-0.304,2.8185-1.2244,3.5334-2.7117
			C48.1702,25.4816,48.1702,22.8685,47.2005,20.2143z M44.9983,26.706c-0.5095,1.7914-2.2433,2.3584-3.7306,1.8407
			c-0.7149-0.1972-1.2244-0.5588-1.8407-1.2244v-6.3931c0.8135-0.9779,1.7914-1.5366,3.065-1.5366
			c1.3805,0,2.3584,0.7642,2.6624,2.0954C45.516,23.2301,45.4667,24.9721,44.9983,26.706z"/>
		<path fill="#434B9F" d="M64.9582,20.9785c-0.7724-2.4077-2.7117-3.8375-5.218-3.8375c-2.457,0-4.3552,1.3805-5.1194,3.8375
			c-0.5588,1.7914-0.5588,3.6321-0.1561,5.4234c0.567,2.7117,2.457,4.6017,5.7357,4.4538c1.9393-0.1068,3.4266-0.9779,4.347-2.6624
			c0.6163-1.1258,0.8217-2.3584,0.871-4.0922C65.369,23.3861,65.369,22.1535,64.9582,20.9785z M62.8052,23.9943
			c0,0.9779,0,1.9968-0.3041,2.9664c-0.4109,1.2819-1.3312,1.9475-2.6131,1.9475c-1.3312,0-2.3501-0.7149-2.761-1.9475
			c-0.5588-1.89-0.6656-3.8375-0.1561-5.7768c0.3616-1.2819,1.2326-1.9968,2.6131-2.0461c1.1258-0.0493,2.2515,0.5095,2.7611,1.7914
			c0.3122,0.871,0.4109,1.7339,0.4602,2.6049V23.9943z"/>
		<path fill="#434B9F" d="M34.9732,22.359c-0.4109-3.1226-2.4077-5.0618-5.1687-5.218c-2.3008-0.0986-4.0429,0.9203-5.0125,2.7117
			c-0.7149,1.2819-0.9203,2.6624-0.9203,4.0922c0,1.1751,0.0986,2.3008,0.5095,3.3773c0.6656,1.8407,2.2515,3.632,5.3741,3.5334
			c2.2515-0.0575,4.0922-1.3805,4.8646-3.5827C35.1786,25.6377,35.228,23.9943,34.9732,22.359z M32.2615,26.8128
			c-0.6656,2.457-3.2212,2.457-4.5524,1.4791c-0.4109-0.304-0.6656-0.6656-0.8217-1.1751
			c-0.6081-1.9393-0.6656-3.8868-0.2547-5.8836c0.3616-1.5859,1.3805-2.0954,2.7117-2.1447
			c1.2819-0.0575,2.3584,0.7642,2.761,2.0461c0.1068,0.304,0.2054,0.6081,0.2054,0.9696c0.1561,0.715,0.2054,1.4299,0.2054,2.0954
			C32.5162,25.12,32.4669,25.9911,32.2615,26.8128z"/>
		<path fill="#434B9F" d="M14.8655,30.4941h-2.1447c-0.1561-0.2547-0.1068-0.4602-0.1068-0.7149v-7.979
			c0-0.4109-0.0493-0.7724-0.0986-1.1833c-0.1068-0.7642-0.6163-1.2244-1.3805-1.3312c-0.6163-0.0493-1.2326,0.1561-1.7421,0.4109
			c-0.6656,0.3123-1.2819,0.7149-1.8407,1.3312v9.417H5.3499c-0.0986-0.2547-0.0493-0.4602-0.0493-0.6656v-8.8993
			c0-1.0765-0.1068-2.1036-0.567-3.1226c0.7724-0.2054,1.4873-0.4109,2.2022-0.6163c0.3616,0.5095,0.4109,1.1258,0.567,1.7421
			c0.4027-0.3123,0.7642-0.6163,1.1258-0.8217c1.2244-0.7642,2.5063-1.1258,3.8868-0.6656
			c1.4298,0.4602,2.3008,1.5859,2.3008,3.0733c0.0493,3.2212,0,6.4917,0,9.7211C14.9148,30.338,14.9148,30.3955,14.8655,30.4941z"/>
		<path fill="#434B9F" d="M77.5964,30.4941h-2.8186c-1.0765-1.6845-2.1447-3.3773-3.328-5.1687
			c-1.1258,1.7421-2.194,3.4841-3.3198,5.1687h-2.761c1.6352-2.4077,3.2212-4.8071,4.8071-7.108
			c-1.3312-1.9475-2.6624-3.8375-3.9936-5.785h2.8678c0.7642,1.2819,1.5859,2.6131,2.3994,3.9936
			c0.8217-1.3805,1.5859-2.7117,2.3584-4.0429h2.6624c-1.3312,1.9968-2.5638,3.8868-3.8375,5.7768
			C74.2683,25.687,75.9036,28.0372,77.5964,30.4941z"/>
		<path fill="#434B9F" d="M20.6012,17.4451h3.5253c-0.1561,0.6656-0.4602,1.2326-0.7149,1.8407h-2.8104v11.2084h-2.4077V19.4418
			c-0.4109-0.1561-0.7642-0.0493-1.1751-0.0986v-1.7421c0.304-0.0986,0.7149,0,1.0682-0.0986
			c0.1561-0.3616,0.0575-0.7724,0.0575-1.1258c0-0.5177,0-1.0272,0.0986-1.5859c0.2547-1.6435,1.3805-2.7117,3.0158-2.9747
			c1.3312-0.1972,2.5638,0.0575,3.6896,0.7724c-0.3123,0.5588-0.567,1.1258-0.871,1.6352
			c-0.4109-0.1561-0.7642-0.3533-1.1751-0.4602c-1.3806-0.4109-2.2516,0.1561-2.3009,1.5859
			C20.5436,16.0153,20.6012,16.7302,20.6012,17.4451z"/>
		<path fill="#434B9F" d="M53.4457,30.4448c-0.8217,0.4602-1.6928,0.5095-2.5063,0.1561c-0.6656-0.263-1.0765-0.8217-1.1751-1.5366
			c-0.0575-0.3616-0.0575-0.7149-0.0575-1.0272v-13.197c0-0.871-0.0493-1.7421-0.304-2.6131
			c0.7642-0.2054,1.4791-0.3533,2.3008-0.4602c0.3616,1.1258,0.4109,2.2515,0.4109,3.3773v12.745
			c-0.0493,0.304-0.1068,0.6574,0.1561,0.9696c0.2547,0.1479,0.5095,0,0.7149,0.0986
			C53.1335,29.4177,53.2896,29.9354,53.4457,30.4448z"/>
		<path fill="#434B9F" d="M97.2439,31.8253c-0.0575,0.1561-0.1561,0.2547-0.3123,0.4109c-1.2244,0.9203-2.5063,1.89-3.7306,2.8103
			c-0.5177,0.4109-0.9779,0.4109-1.4873,0c-1.2819-0.9696-2.5556-1.9393-3.8375-2.9171c-0.1561-0.0493-0.2054-0.1479-0.2547-0.2054
			c-0.0986-0.304,0-0.5095,0.2547-0.7149c1.2819-0.9696,2.5556-1.9393,3.8868-2.8596c0.4602-0.3123,0.9203-0.3123,1.3805,0
			c1.2819,0.9203,2.5063,1.89,3.7389,2.8103C97.0878,31.3159,97.2932,31.4638,97.2439,31.8253z"/>
		<path fill="#ACD36C" d="M103.7356,17.4451c-0.0493,0.2547-0.2054,0.4109-0.4109,0.5177c-1.2244,0.9203-2.3995,1.8407-3.6321,2.761
			c-0.6081,0.4602-1.0189,0.4602-1.5859,0c-1.3312-0.9696-2.6049-1.9475-3.9361-2.9664c-0.1068-0.2547-0.1068-0.4109-0.0493-0.567
			c0.0493-0.0493,0.0493-0.0986,0.0986-0.0986c1.2326-0.9203,2.457-1.8407,3.6813-2.8185c0.8217-0.6081,1.1833-0.6081,1.9475,0
			c1.1258,0.8217,2.2515,1.6435,3.328,2.5063C103.4315,16.9356,103.6863,17.141,103.7356,17.4451z"/>
		<path fill="#434B9F" d="M90.3332,27.3716c-1.2819,0.9779-2.5556,1.9475-3.8868,2.8678c-0.4602,0.3616-0.9203,0.304-1.3805,0
			c-1.2819-0.9696-2.5638-1.9475-3.895-2.8678c-0.0493-0.1479-0.1479-0.304-0.1479-0.6081c0.0986-0.263,0.304-0.3616,0.4602-0.4684
			c1.1751-0.8628,2.3501-1.7338,3.4759-2.6049c0.6656-0.5095,1.0765-0.5095,1.7421,0c1.1258,0.871,2.3008,1.7421,3.4267,2.5556
			c0.1561,0.1561,0.3616,0.2547,0.4602,0.4602C90.6947,27.0182,90.5879,27.2237,90.3332,27.3716z"/>
		<path fill="#ACD36C" d="M97.1864,12.8927c-0.871,0.6656-1.8407,1.3805-2.8103,2.0954c-0.3616,0.263-0.7149,0.567-1.0765,0.8217
			c-0.7149,0.5095-1.1258,0.5095-1.8407,0c-0.871-0.6656-1.7914-1.3312-2.6624-1.9968c-0.304-0.2547-0.6163-0.4602-0.9203-0.7149
			c-0.2054-0.0986-0.3533-0.304-0.2547-0.6656c0.3616-0.4602,0.9203-0.7642,1.4299-1.1751c0.871-0.6656,1.7421-1.3312,2.6131-1.9475
			c0.5588-0.4027,0.9696-0.4027,1.5366,0c1.1751,0.871,2.3501,1.7421,3.5252,2.6624
			C96.9809,12.1778,97.3425,12.3832,97.1864,12.8927z"/>
		<path fill="#ACD36C" d="M97.0385,22.6138c-1.3887,1.0272-2.7692,2.0954-4.0922,3.0733c-0.6163,0.1479-1.0272,0-1.438-0.3123
			c-1.1751-0.9203-2.3995-1.7832-3.5828-2.7117c-0.2054-0.148-0.4026-0.3534-0.2547-0.7643
			c0.567-0.5588,1.2819-1.0189,1.9968-1.5366c0.6656-0.5095,1.3312-0.9696,1.9968-1.4791c0.5588-0.4109,1.0189-0.4109,1.5366-0.0575
			c1.2244,0.9286,2.4487,1.7914,3.632,2.7117c0.1479,0.2054,0.304,0.3123,0.4109,0.5177
			C97.2932,22.3097,97.1864,22.5151,97.0385,22.6138z"/>
		<path fill="#ACD36C" d="M90.6372,17.6505c-0.7149,0.6656-1.5859,1.1751-2.3502,1.8407c-0.5095,0.4109-1.0272,0.7724-1.5366,1.1833
			c-0.4602,0.3533-0.9203,0.4602-1.3805,0.1479c-1.4298-1.0189-2.8678-2.0954-4.199-3.1226c-0.1972-0.4602,0-0.6574,0.263-0.8135
			c1.2244-0.9203,2.5063-1.8982,3.7306-2.8185c0.4602-0.3533,1.0272-0.3533,1.5366,0c1.2819,0.9203,2.5063,1.8982,3.7307,2.8185
			C90.5879,17.0424,90.7933,17.1903,90.6372,17.6505z"/>
		<path fill="#434B9F" d="M103.7849,26.9607c-0.0493,0.3123-0.2547,0.4602-0.4602,0.6163c-1.1751,0.871-2.3502,1.7421-3.476,2.6131
			c-0.6656,0.4602-1.0765,0.5095-1.6845,0c-1.2326-0.871-2.4077-1.7914-3.632-2.7117c-0.263-0.2054-0.4684-0.4109-0.3616-0.7724
			c0.1561-0.2547,0.4109-0.3533,0.6656-0.5588c1.0765-0.8217,2.1447-1.6352,3.2212-2.457c0.6163-0.4602,1.0765-0.4602,1.7421,0
			c1.1751,0.871,2.3501,1.7914,3.5253,2.6624C103.5301,26.5581,103.7356,26.6567,103.7849,26.9607z"/>
		<path fill="#434B9F" d="M104.6559,10.7973c0.0575,0.1561,0.1561,0.3616,0.3616,0.5588c-0.0082,0.0164-0.0164,0.0246-0.0164,0.0329
			c-0.0247,0.0329-0.0411,0.0658-0.0658,0.0822c-0.0246-0.0164-0.0493-0.0329-0.0739-0.0575
			c-0.0247-0.0164-0.0493-0.0411-0.074-0.0658c-0.1644-0.1397-0.2794-0.3369-0.2794-0.5998
			c0.4026-0.9779,0.4026-1.0272-0.1561-1.3805c-0.0082-0.0082-0.0164-0.0082-0.0329-0.0082c-0.2383-0.0904-0.5259,0-0.756-0.0493
			c0.2547-0.0329,0.5177,0.0246,0.7889,0.0082c0.0493,0,0.0986,0,0.1561-0.0082C105.2229,9.7208,105.2722,10.2303,104.6559,10.7973z
			"/>
		<path fill="#434B9F" d="M103.4808,9.6222c-0.1561,0.4602-0.0493,0.9697-0.0493,1.4792c0.2547-0.0493,0.1561-0.304,0.3533-0.3533
			c0.0739-0.0247,0.1315-0.0082,0.1561,0.0493c-0.0822,0.1068-0.074,0.2383-0.074,0.3697c0.0082,0.1233,0.0247,0.2466-0.0246,0.3452
			c-0.0494,0.0493-0.0987,0.0739-0.148,0.0739c-0.0246,0.0082-0.0411,0.0082-0.0575,0.0082c-0.0904,0-0.1973-0.0329-0.3123-0.0329
			V9.3674c0.0822-0.0329,0.1561-0.0575,0.2383-0.0575c0.2547-0.0329,0.5177,0.0246,0.7889,0.0082
			c-0.0082,0.0165-0.0247,0.0247-0.0329,0.0411C104.0971,9.5318,103.7438,9.4003,103.4808,9.6222z"/>
		<path fill="#434B9F" d="M105.001,11.3889c-0.0247,0.0329-0.0411,0.0658-0.0658,0.0822c-0.1397,0.148-0.3123,0.0411-0.4848,0.0411
			c-0.1479-0.2054-0.2547-0.3533-0.3533-0.5095V10.978c0.2465,0.0904,0.4273,0.3205,0.6902,0.3698
			c0.0575,0.0165,0.1151,0.0165,0.1808,0.0082C104.9763,11.3643,104.9928,11.3807,105.001,11.3889z"/>
		<path fill="#434B9F" d="M104.508,9.31c-0.0575,0.0082-0.1068,0.0082-0.1561,0.0082c-0.2712,0.0165-0.5341-0.0411-0.7889-0.0082
			c-0.0822,0-0.1561,0.0246-0.2383,0.0575v2.1941c0.115,0,0.2218,0.0329,0.3123,0.0329c0.0164,0,0.0328,0,0.0575-0.0082
			c0.0493,0,0.0986-0.0246,0.148-0.0739c0.0493-0.0986,0.0329-0.2219,0.0246-0.3452c0-0.1315-0.0082-0.2629,0.074-0.3697
			c0,0,0.0082,0,0.0082,0.0082c0.0904,0.0411,0.1397,0.0822,0.148,0.1726v0.0247c0.0986,0.1561,0.2054,0.304,0.3533,0.5095
			c0.1725,0,0.3451,0.1068,0.4848-0.0411c0.0247-0.0164,0.0411-0.0493,0.0658-0.0822c0-0.0082,0.0082-0.0165,0.0164-0.0329
			c-0.2054-0.1972-0.304-0.4026-0.3616-0.5588C105.2722,10.2303,105.2229,9.7208,104.508,9.31z M103.8917,10.2303
			c-0.1561-0.1973-0.1068-0.304,0-0.4602c0.2547-0.0493,0.4109-0.0493,0.5095,0.2054
			C104.3519,10.2878,104.0971,10.2303,103.8917,10.2303z"/>
	</g>
</g>
</svg>
