<?xml version="1.0" encoding="utf-8"?>
<!-- Generator: Adobe Illustrator 26.0.2, SVG Export Plug-In . SVG Version: 6.00 Build 0)  -->
<svg version="1.1" xmlns="http://www.w3.org/2000/svg" xmlns:xlink="http://www.w3.org/1999/xlink" x="0px" y="0px"
	 viewBox="0 0 140 40" enable-background="new 0 0 140 40" xml:space="preserve">
<g id="guides" display="none">
</g>
<g id="images">
</g>
<g id="Layer_5">
	<path fill="#FFFFFF" d="M2.1118,21.9055c-0.4844-0.3391-0.8063-0.6867-1.1425-1.04c-0.0171-0.0057-0.0313-0.0142-0.0484-0.0256
		c-0.1453-0.0826-0.2564-0.2194-0.3903-0.322c0.1937-0.0313,0.3561,0.0997,0.5214,0.2051c0.0199,0.0171,0.0399,0.0342,0.057,0.0541
		c0.0028,0,0.0028,0,0.0028,0c0.0655,0.057,0.1311,0.1168,0.1937,0.1795c0.2963,0.2764,0.5784,0.5727,0.8776,0.8548
		c0.0057,0.0057,0.0114,0.0114,0.0171,0.0171c0.0171,0.0171,0.0342,0.0313,0.0513,0.0484c0.3533,0.3618,0.7123,0.718,1.0798,1.0656
		c0.0057,0.0057,0.0114,0.0142,0.0199,0.0171c0.0342,0.037,0.0712,0.0684,0.1054,0.1026c1.8605,1.8548,1.5927,1.9147,3.4504,0.0541
		c0.5983-0.5983,1.2024-1.191,1.7921-1.7978c1.1083-1.134,1.1112-1.4018,0.0484-2.5586c-0.1596-0.1738-0.3334-0.3305-0.4958-0.5015
		c-0.0256-0.0256-0.0513-0.0541-0.0769-0.0798c-0.0171-0.0199-0.0342-0.0399-0.057-0.057c-0.3448-0.3675-0.7009-0.7265-1.0656-1.077
		c-0.0057-0.0057-0.0085-0.0085-0.0114-0.0142c-0.0199-0.0171-0.037-0.037-0.0541-0.0541
		c-0.2393-0.2479-0.4787-0.4958-0.7294-0.7322c-0.0912-0.0912-0.188-0.1795-0.2849-0.2621
		c-0.0427-0.0399-0.0855-0.0798-0.1311-0.1168c-0.5784-0.4587-0.9459-0.0456-1.3164,0.3191
		c-0.9659,0.9545-1.9061,1.9346-2.8891,2.8691c-0.3476,0.3334-0.6325,0.8605-1.2707,0.6753v-0.0313
		c0.0228-0.037,0.0513-0.0684,0.0798-0.0912c1.4103-1.3933,2.8492-2.758,4.2197-4.1912c0.6639-0.6981,1.077-0.5527,1.4816,0.1966
		c0.4673,0.2935,0.8462,0.6724,1.1397,1.1425c0.4673,0.2906,0.8462,0.6696,1.1397,1.1397c0.1823,0.1453,0.3789,0.2764,0.5442,0.4388
		c1.5699,1.5329,1.5699,1.5785,0.0769,3.0686c-0.9374,0.9374-1.9374,1.8235-2.7951,2.8321
		c-0.7465,0.8804-1.2109,0.7265-1.9631-0.037c-0.3618-0.3647-0.6895-0.7693-1.0371-1.1511
		C2.8326,22.6804,2.4651,22.3243,2.1118,21.9055z"/>
	<path fill="#FFFFFF" d="M2.8241,25.2988h2.4702c-0.8291,0.8548-1.3933,1.3961-1.9118,1.9773
		c-0.7237,0.8149-1.1625,0.6981-1.624-0.2877C1.0006,25.3701,1.0092,25.3017,2.8241,25.2988z"/>
	<path fill="#FFFFFF" d="M1.8241,12.865c0.4388-0.8975,0.8605-0.869,1.4673-0.2336c0.567,0.5955,1.1425,1.1796,2.0286,2.0942H2.9438
		C1.0206,14.7227,0.975,14.5945,1.8241,12.865z"/>
	<path fill="#FFFFFF" d="M10.6565,12.4832c0.1197,2.2338,0.1168,2.2651-2.1283,2.2195c-0.9117-0.0171-1.8548,0.2593-2.7352-0.2023
		c-0.1681-0.0256-0.2393-0.1282-0.2251-0.2935c-0.1653-0.2137-0.1368-0.4559-0.1168-0.6952
		c-0.1624-1.1967-0.1311-2.3933,0.1254-3.59c0.0057-0.1795,0.094-0.2821,0.2764-0.2906c1.1995-0.2593,2.4047-0.2707,3.6071-0.1254
		c0.2507-0.0142,0.5015-0.0313,0.7322,0.1054h0.0028C11.2463,10.4233,10.4941,11.5259,10.6565,12.4832z"/>
	<path fill="#FFFFFF" d="M6.9982,30.4189c-1.1682,0.2792-1.701-0.1738-1.6013-1.3762c0.0884-1.0741-0.1738-2.1597,0.1567-3.2224
		c0.2108-0.8291,0.8889-0.4758,1.3762-0.5015c0.7778-0.0427,1.5642,0.0142,2.3478,0.0313c1.1454-0.2279,1.5984,0.2422,1.379,1.379
		c0.0085,0.0456,0.0199,0.0912,0.0199,0.1368C10.6451,31.0371,11.4429,30.5015,6.9982,30.4189z"/>
	<path fill="#FFFFFF" d="M8.9755,5.7705c1.5414-0.7265,1.7266-0.6382,1.7294,1.0855c0.0028,0.6582,0,1.3135,0,2.2338
		c-0.9887-0.4872-1.416-1.1967-2.0143-1.6953C7.833,6.6794,8.0239,6.2179,8.9755,5.7705z"/>
	<path fill="#FFFFFF" d="M10.705,30.9004v2.1768c-0.0028,1.8776-0.0741,1.889-1.7807,1.0941c-0.9374-0.4359-1.0343-0.869-0.265-1.53
		C9.2604,32.1255,9.6964,31.4218,10.705,30.9004z"/>
	<path fill="#FFFFFF" d="M11.688,8.3889c1.1511-1.0514,2.2509-2.1654,3.3136-3.3079c0.8035-0.8633,1.4217-0.7664,2.0115,0.1852
		c0.4929,0.4929,0.983,0.983,1.4759,1.4759l0.8548,0.8548c1.8805,1.6269,1.8805,1.6269,0.1681,3.3393
		c-0.8662,0.8662-1.7693,1.701-2.5842,2.6099c-0.7607,0.8491-1.4075,1.0229-2.1255-0.0171
		c-0.2621-0.3818-0.6097-0.7066-0.9174-1.057c-0.3675-0.208-0.6639-0.4872-0.8605-0.8633
		c-0.3932-0.3732-0.7864-0.7493-1.1767-1.1226C10.836,9.8591,10.7791,9.218,11.688,8.3889z"/>
	<path fill="#FFFFFF" d="M20.9193,30.4759c0.1567,0.5613-0.5784,1.0314-0.9117,1.3619c-0.926,0.9288-1.8548,1.8605-2.7837,2.7865
		c-1.2907,1.285-1.3192,1.2793-2.5785-0.1852c-0.473-0.4673-0.9488-0.9402-1.4217-1.4075
		c-0.0057-0.0057-0.0085-0.0085-0.0142-0.0142c-0.3618-0.3647-0.7351-0.755-1.0969-1.1226
		c-0.0028,0.0028-0.0028,0.0028-0.0057,0.0057c-1.4588-1.2451-1.4588-1.2451-0.1311-2.5728
		c0.9345-0.9345,1.8691-1.8719,2.8065-2.8064c0.755-0.7522,1.0855-1.1368,1.8235-0.4331c0.1026,0.0969,0.4559,0.3476,0.5442,0.4701
		c0.0057,0.0085,0.0171,0.0199,0.0313,0.0313c0,0,0,0,0.0028,0.0028c0.0114,0.0057,0.0228,0.0142,0.0313,0.0228
		c0,0,0.0028,0.0057,0.0057,0.0057c0.0228,0.0199,0.0456,0.0427,0.0513,0.0598c0.0085,0.0085,0.0171,0.0142,0.0285,0.0199
		c0.4103,0.3476,0.7208,0.869,1.1226,1.2479c0,0,0,0.0028-0.0028,0.0028c0.4103,0.3505,0.8576,0.718,1.265,1.1226
		c0.1282,0.1254,0.3789,0.2906,0.4844,0.4701c0.1083,0.0855,0.2336,0.2222,0.396,0.3932
		C20.7142,30.094,20.8623,30.2678,20.9193,30.4759z"/>
	<path fill="#FFFFFF" d="M21.5205,14.4805c-0.3505-1.644-0.6924-3.2851,0.2051-4.875h0.0028c0.0028,0,0.0028,0,0.0057,0
		c1.4189-0.2336,2.8435-0.2792,4.2595,0.0285c0.1339,0.1624,0.2707,0.3248,0.4046,0.4872c0.0912,0.2108,0.1368,0.4245,0.1197,0.624
		c0.1311,1.0029-0.0085,2.0172,0.0114,3.0258c0.0114,0.4559-0.1966,0.9174-0.7009,0.906c-1.2565-0.0313-2.5301,0.2422-3.778-0.0399
		C21.8738,14.623,21.6972,14.5688,21.5205,14.4805z"/>
	<path fill="#FFFFFF" d="M23.6261,33.0088c0.3419,0.3362,0.245,0.7038-0.1681,0.9288c-0.4559,0.2479-0.9231,0.4872-1.4075,0.6724
		c-0.547,0.2108-0.8006-0.0627-0.8035-0.6126c-0.0028-0.9459,0-1.889,0-3.1227C22.3524,31.5244,22.9394,32.3278,23.6261,33.0088z"/>
	<path fill="#FFFFFF" d="M21.264,6.9729c0.0028-0.5698-0.3334-1.322,0.4701-1.6924c0.7664,0.3163,1.6383,0.4131,2.0001,1.0969
		c0.3305,0.6325-0.4331,0.9659-0.8149,1.322c-0.4559,0.4245-0.8405,1.3733-1.4502,1.0998
		C20.9108,8.5513,21.264,7.6025,21.264,6.9729z"/>
	<path fill="#FFFFFF" d="M26.3869,25.8431c0.2792,1.3534,0.2678,2.7124,0.0057,4.0686c-0.2707,0.5869-0.7863,0.5812-1.322,0.567
		c-0.6154-0.0171-1.2309-0.0028-1.8463-0.0028C21.19,30.473,21.19,30.473,21.2926,28.4387
		c-0.0484-3.1854,0.3505-3.1569,3.0059-3.1711c0.6781-0.0085,1.6041-0.1254,2.0885,0.567v0.0028
		C26.3869,25.8402,26.3869,25.8402,26.3869,25.8431z"/>
	<path fill="#FFFFFF" d="M30.5866,25.7262c0.0969,0.718-0.3846,1.4502-0.9032,2.0058c-0.2906,0.3106-0.6126,0.0285-0.8548-0.2023
		c-0.6838-0.6496-1.2052-1.4189-1.9033-1.9773c0.1197-0.1852,0.0513-0.0655,0.171-0.2536c0.6924,0,1.2764-0.0456,1.9916-0.0655
		C29.5866,25.2191,30.504,25.1336,30.5866,25.7262z"/>
	<path fill="#FFFFFF" d="M27.1363,14.5403c-0.2222-0.473,0.3704-0.6667,0.6069-0.9801c0.1396-0.1852,0.3134-0.3533,0.4986-0.4986
		c0.4217-0.3305,0.7123-1.1169,1.3391-0.8263c0.6496,0.3049,0.7864,1.1311,1.0286,1.7807c0.1767,0.4701-0.1282,0.6952-0.5926,0.7038
		c-0.4245,0.0057-0.8491,0-1.2736,0c0,0.0028,0,0.0057,0,0.0057c-0.188,0-0.3789,0.0199-0.5641-0.0028
		C27.82,14.6771,27.3101,14.9164,27.1363,14.5403z"/>
	<path fill="#FFFFFF" d="M30.8687,20.9966c-1.0627,0.9915-2.0628,2.0486-3.0942,3.0771c-1.265,1.2622-1.265,1.2593-2.4959-0.208
		c-0.4872-0.4701-0.9773-0.9431-1.4645-1.4132c-0.3675-0.3846-0.7351-0.7693-1.1026-1.1568
		c-1.4588-1.2422-1.4588-1.2422-0.1368-2.5671c0.9317-0.9345,1.8634-1.8662,2.7979-2.7979
		c1.2479-1.2479,1.2479-1.2479,2.4702,0.1624v0.0028l0.0028,0.0028c0.4901,0.4901,0.9773,0.9801,1.4702,1.4702
		c0.473,0.4758,0.9488,0.9488,1.4246,1.4246C31.7235,19.6005,31.6921,20.2302,30.8687,20.9966z"/>
	<path fill="#FFFFFF" d="M46.2685,18.3953c-0.1852,0.5727-0.2393,1.4445-1.3135,1.3363c-2.1226-0.2165-3.0885,0.6012-3.174,2.7466
		c-0.0883,2.2708-0.0741,4.5502-0.0513,6.8267c0.0085,0.8063-0.1539,1.191-1.0855,1.2052
		c-0.9687,0.0142-1.1938-0.3391-1.1824-1.2394c0.0427-3.4162,0.0171-6.8295,0.0171-10.2457c0-0.604-0.1453-1.3106,0.7921-1.3562
		c0.322-0.0171,0.7123-0.0712,1.0115,0.0855c0.4188,0.2165,0.3846,0.6838,0.5214,1.0713c0.5442-0.2735,0.906-0.8434,1.5158-1.0969
		c0.6211-0.2621,1.3163-0.3561,1.983-0.2422C45.7785,17.5662,46.468,17.7827,46.2685,18.3953z"/>
	<path fill="#FFFFFF" d="M58.8192,19.0392c-0.0256,2.2794,0.0171,4.5587-0.0142,6.8352c-0.0456,3.0999-2.0571,5.0402-5.1399,5.0089
		c-3.0486-0.0313-4.969-1.9289-5.0203-4.9747c-0.0199-1.1881-0.0028-2.3734-0.0028-3.5615c0-1.1853,0.0399-2.3762-0.0142-3.5586
		c-0.0399-0.9003,0.3732-1.1625,1.1938-1.1425c0.7778,0.0171,1.0827,0.3134,1.0684,1.1169
		c-0.0342,2.3249-0.0513,4.6527,0.0142,6.9777c0.0513,1.889,0.869,2.852,2.3734,3.0144c1.9631,0.208,3.1341-0.7436,3.231-2.8406
		c0.1083-2.2737,0.0741-4.5559,0.0541-6.8352c-0.0057-0.8462,0.0228-1.4816,1.1653-1.4445
		C58.7679,17.6687,58.8278,18.2443,58.8192,19.0392z"/>
	<path fill="#FFFFFF" d="M73.9456,19.3213c-2.1739-2.4019-5.4391-2.5073-8.7784-0.1225c0-3.3677-0.0085-6.5389,0.0057-9.7072
		c0.0029-0.812,0.0256-1.493-1.1425-1.473c-1.1283,0.0171-1.1568,0.6325-1.1539,1.4759c0.0199,6.5047,0.0028,13.0066,0.0228,19.5084
		c0.0028,0.5812-0.3419,1.4132,0.7807,1.4787c0.9317,0.057,1.7323,0.0199,1.4873-1.342c3.5102,2.3534,6.6301,2.2252,8.8011-0.2507
		C76.2335,26.3046,76.225,21.84,73.9456,19.3213z M69.327,28.7663c-2.5358,0.0399-4.2652-1.8064-4.3023-4.59
		c-0.0313-2.6982,1.6611-4.6328,4.0886-4.6698c2.3905-0.0342,4.251,1.9431,4.271,4.5359
		C73.4042,26.7234,71.6805,28.7293,69.327,28.7663z"/>
	<path fill="#FFFFFF" d="M85.8068,18.4181c-0.2336,0.5385-0.2764,1.3676-1.2081,1.3505c-2.5671-0.0513-3.1512,0.4359-3.2709,2.9916
		c-0.0997,2.1711-0.094,4.3479-0.0655,6.5218c0.0114,0.9203-0.2906,1.2166-1.2251,1.228c-1.0086,0.0114-1.0172-0.5129-1.0058-1.2422
		c0.0256-1.7494,0.0057-3.5017,0.0057-5.2511c0-1.7038-0.0086-3.4076,0.0085-5.1086c0.0028-0.4445-0.1824-1.0485,0.4644-1.1824
		c0.5755-0.1168,1.3391-0.3277,1.6326,0.3989c0.2735,0.681,0.453,0.5129,0.8263,0.1396c0.8576-0.8576,1.9061-0.9716,3.0287-0.7009
		C85.4449,17.6716,86.086,17.7684,85.8068,18.4181z"/>
	<path fill="#FFFFFF" d="M91.0664,29.4302c0.0114,0.963-0.453,1.057-1.2251,1.0656c-0.7807,0.0085-1.1083-0.2137-1.0855-1.0485
		c0.0513-1.7523,0.0142-3.5074,0.0142-5.2625c0-1.8035,0.0285-3.6071-0.0114-5.4078c-0.0171-0.7921,0.2821-1.1197,1.0628-1.1283
		c0.7864-0.0085,1.2479,0.188,1.2422,1.1112C91.0322,22.3158,91.0236,25.8744,91.0664,29.4302z"/>
	<path fill="#FFFFFF" d="M91.5194,12.9904c-0.02,0.9516-0.6239,1.55-1.738,1.5357c-0.9716-0.0712-1.4759-0.6924-1.436-1.6696
		c0.037-0.9345,0.6439-1.4759,1.5727-1.4759C90.9353,11.3834,91.5393,12.0387,91.5194,12.9904z"/>
	<path fill="#FFFFFF" d="M105.0844,30.2878c-0.6069,0.4644-1.8121,0.5499-2.5842-0.3391c-1.1853-1.3591-2.3648-2.7238-3.59-4.043
		c-0.3248-0.3505-0.547-1.0941-1.151-0.8605c-0.6581,0.2536-0.3647,0.9944-0.3846,1.53c-0.0371,0.9488-0.0513,1.9004,0,2.8463
		c0.0456,0.7921-0.2165,1.0827-1.04,1.0798c-0.8263-0.0028-1.1967-0.1909-1.1938-1.1055
		c0.0314-6.6927,0.0257-13.3855,0.0029-20.0782c-0.0029-0.8832,0.2394-1.2992,1.1995-1.2964
		c0.9716,0.0028,1.0343,0.5271,1.0314,1.2793c-0.02,4.214-0.0114,8.4251-0.0114,13.0464c1.4673-1.4844,2.6583-2.6982,3.8578-3.9034
		c0.3305-0.3334,0.6182-0.775,1.1482-0.7664c0.5926,0.0057,1.3591-0.2906,1.7152,0.3248c0.3732,0.6411-0.3618,0.9858-0.7323,1.3676
		c-1.02,1.0599-2.04,2.1255-3.1256,3.1142c-0.5955,0.5442-0.5841,0.9003-0.0456,1.4759c1.4274,1.5215,2.8264,3.0743,4.1627,4.6755
		C104.7368,29.1082,105.8223,29.7179,105.0844,30.2878z"/>
	<path fill="#25B290" d="M6.2574,16.2442c-0.0684,0.1795-0.2108,0.3391-0.3505,0.4901c-1.2252,1.3021-2.4902,2.57-3.798,3.7951
		c-0.2251,0.2108-0.4986,0.4245-0.8035,0.4274c-0.1083,0.0028-0.2222-0.0228-0.3362-0.0912
		c-0.0171-0.0057-0.0313-0.0142-0.0484-0.0256c-0.1453-0.0826-0.2564-0.2194-0.3903-0.322C0.5049,20.498,0.4764,20.478,0.445,20.461
		c-0.2821-0.2849-0.2051-0.5898-0.0798-0.7636c0.0228-0.037,0.0513-0.0684,0.0798-0.0912c1.4103-1.3933,2.8492-2.758,4.2197-4.1912
		c0.6639-0.6981,1.077-0.5527,1.4816,0.1966C6.3201,15.8481,6.3286,16.0561,6.2574,16.2442z"/>
	<path fill="#64676B" d="M73.9456,19.3213c-2.1739-2.4019-5.4391-2.5073-8.7784-0.1225c0-3.3677-0.0085-6.5389,0.0057-9.7072
		c0.0029-0.812,0.0256-1.493-1.1425-1.473c-1.1283,0.0171-1.1568,0.6325-1.1539,1.4759c0.0199,6.5047,0.0028,13.0066,0.0228,19.5084
		c0.0028,0.5812-0.3419,1.4132,0.7807,1.4787c0.9317,0.057,1.7323,0.0199,1.4873-1.342c3.5102,2.3534,6.6301,2.2252,8.8011-0.2507
		C76.2335,26.3046,76.225,21.84,73.9456,19.3213z M69.327,28.7663c-2.5358,0.0399-4.2652-1.8064-4.3023-4.59
		c-0.0313-2.6982,1.6611-4.6328,4.0886-4.6698c2.3905-0.0342,4.251,1.9431,4.271,4.5359
		C73.4042,26.7234,71.6805,28.7293,69.327,28.7663z"/>
	<path fill="#64676B" d="M105.0844,30.2878c-0.6069,0.4644-1.8121,0.5499-2.5842-0.3391c-1.1853-1.3591-2.3648-2.7238-3.59-4.043
		c-0.3248-0.3505-0.547-1.0941-1.151-0.8605c-0.6581,0.2536-0.3647,0.9944-0.3846,1.53c-0.0371,0.9488-0.0513,1.9004,0,2.8463
		c0.0456,0.7921-0.2165,1.0827-1.04,1.0798c-0.8263-0.0028-1.1967-0.1909-1.1938-1.1055
		c0.0314-6.6927,0.0257-13.3855,0.0029-20.0782c-0.0029-0.8832,0.2394-1.2992,1.1995-1.2964
		c0.9716,0.0028,1.0343,0.5271,1.0314,1.2793c-0.02,4.214-0.0114,8.4251-0.0114,13.0464c1.4673-1.4844,2.6583-2.6982,3.8578-3.9034
		c0.3305-0.3334,0.6182-0.775,1.1482-0.7664c0.5926,0.0057,1.3591-0.2906,1.7152,0.3248c0.3732,0.6411-0.3618,0.9858-0.7323,1.3676
		c-1.02,1.0599-2.04,2.1255-3.1256,3.1142c-0.5955,0.5442-0.5841,0.9003-0.0456,1.4759c1.4274,1.5215,2.8264,3.0743,4.1627,4.6755
		C104.7368,29.1082,105.8223,29.7179,105.0844,30.2878z"/>
	<path fill="#64676B" d="M58.8192,19.0392c-0.0256,2.2794,0.0171,4.5587-0.0142,6.8352c-0.0456,3.0999-2.0571,5.0402-5.1399,5.0089
		c-3.0486-0.0313-4.969-1.9289-5.0203-4.9747c-0.0199-1.1881-0.0028-2.3734-0.0028-3.5615c0-1.1853,0.0399-2.3762-0.0142-3.5586
		c-0.0399-0.9003,0.3732-1.1625,1.1938-1.1425c0.7778,0.0171,1.0827,0.3134,1.0684,1.1169
		c-0.0342,2.3249-0.0513,4.6527,0.0142,6.9777c0.0513,1.889,0.869,2.852,2.3734,3.0144c1.9631,0.208,3.1341-0.7436,3.231-2.8406
		c0.1083-2.2737,0.0741-4.5559,0.0541-6.8352c-0.0057-0.8462,0.0228-1.4816,1.1653-1.4445
		C58.7679,17.6687,58.8278,18.2443,58.8192,19.0392z"/>
	<path fill="#64676B" d="M46.2685,18.3953c-0.1852,0.5727-0.2393,1.4445-1.3135,1.3363c-2.1226-0.2165-3.0885,0.6012-3.174,2.7466
		c-0.0883,2.2708-0.0741,4.5502-0.0513,6.8267c0.0085,0.8063-0.1539,1.191-1.0855,1.2052
		c-0.9687,0.0142-1.1938-0.3391-1.1824-1.2394c0.0427-3.4162,0.0171-6.8295,0.0171-10.2457c0-0.604-0.1453-1.3106,0.7921-1.3562
		c0.322-0.0171,0.7123-0.0712,1.0115,0.0855c0.4188,0.2165,0.3846,0.6838,0.5214,1.0713c0.5442-0.2735,0.906-0.8434,1.5158-1.0969
		c0.6211-0.2621,1.3163-0.3561,1.983-0.2422C45.7785,17.5662,46.468,17.7827,46.2685,18.3953z"/>
	<path fill="#65686C" d="M85.8068,18.4181c-0.2336,0.5385-0.2764,1.3676-1.2081,1.3505c-2.5671-0.0513-3.1512,0.4359-3.2709,2.9916
		c-0.0997,2.1711-0.094,4.3479-0.0655,6.5218c0.0114,0.9203-0.2906,1.2166-1.2251,1.228c-1.0086,0.0114-1.0172-0.5129-1.0058-1.2422
		c0.0256-1.7494,0.0057-3.5017,0.0057-5.2511c0-1.7038-0.0086-3.4076,0.0085-5.1086c0.0028-0.4445-0.1824-1.0485,0.4644-1.1824
		c0.5755-0.1168,1.3391-0.3277,1.6326,0.3989c0.2735,0.681,0.453,0.5129,0.8263,0.1396c0.8576-0.8576,1.9061-0.9716,3.0287-0.7009
		C85.4449,17.6716,86.086,17.7684,85.8068,18.4181z"/>
	<path fill="#64676B" d="M91.0664,29.4302c0.0114,0.963-0.453,1.057-1.2251,1.0656c-0.7807,0.0085-1.1083-0.2137-1.0855-1.0485
		c0.0513-1.7523,0.0142-3.5074,0.0142-5.2625c0-1.8035,0.0285-3.6071-0.0114-5.4078c-0.0171-0.7921,0.2821-1.1197,1.0628-1.1283
		c0.7864-0.0085,1.2479,0.188,1.2422,1.1112C91.0322,22.3158,91.0236,25.8744,91.0664,29.4302z"/>
	<path fill="#25B19B" d="M9.0468,21.4012c-0.9374,0.9374-1.9374,1.8235-2.7951,2.8321c-0.7465,0.8804-1.2109,0.7265-1.9631-0.037
		c-0.3618-0.3647-0.6895-0.7693-1.0371-1.1511c0.0256-0.0342,0.0513-0.0684,0.0798-0.1026c1.379-1.8235,2.9603-3.4475,4.7866-4.8208
		c0.1026-0.0769,0.2051-0.1539,0.3077-0.2279c0.1823,0.1453,0.3789,0.2764,0.5442,0.4388
		C10.5397,19.8655,10.5397,19.9111,9.0468,21.4012z"/>
	<path fill="#28ADC3" d="M26.3926,29.9117c-0.2707,0.5869-0.7863,0.5812-1.322,0.567c-0.6154-0.0171-1.2309-0.0029-1.8463-0.0029
		C21.19,30.473,21.19,30.473,21.2925,28.4387c0.9573-1.1026,1.9061-2.2138,3.0059-3.1711c0.6781-0.0085,1.6041-0.1254,2.0885,0.567
		v0.0029c0,0.0028,0,0.0028,0,0.0057C26.5949,27.1993,26.5864,28.5555,26.3926,29.9117z"/>
	<path fill="#25B19B" d="M19.5118,10.9361c-0.8662,0.8662-1.7693,1.701-2.5842,2.6099c-0.7607,0.8491-1.4075,1.0229-2.1255-0.0171
		c-0.2621-0.3818-0.6097-0.7066-0.9174-1.057c1.3933-1.6012,2.9689-3.023,4.4647-4.5245c0.2621-0.2621,0.5556-0.5385,0.9944-0.3505
		C21.2242,9.2237,21.2242,9.2237,19.5118,10.9361z"/>
	<path fill="#28B1A8" d="M26.518,10.7452c-0.0199,0.1994-0.0997,0.3875-0.2678,0.5527c-1.0684,1.0457-2.0885,2.1511-3.2766,3.0686
		c-0.2764,0.2137-0.5926,0.3049-0.9231,0.2707c-0.1767-0.0142-0.3533-0.0684-0.5299-0.1567
		c-0.3505-1.644-0.6924-3.2851,0.2051-4.875h0.0028c0.0028,0,0.0028,0,0.0057,0c1.4217-0.1681,2.8406-0.208,4.2595,0.0285
		c0.1339,0.1624,0.2707,0.3248,0.4046,0.4872C26.4895,10.3321,26.5351,10.5458,26.518,10.7452z"/>
	<path fill="#27AEBE" d="M30.7405,18.9936c-1.2536,1.8605-3.0144,3.231-4.5815,4.7895c-0.2336,0.2279-0.5556,0.3875-0.8804,0.0826
		c-0.4872-0.4701-0.9773-0.9431-1.4645-1.4132c1.3961-1.5471,2.929-2.9575,4.3992-4.4333c0.2906-0.2906,0.5926-0.6525,1.1026-0.4502
		C29.7889,18.0448,30.2647,18.5178,30.7405,18.9936z"/>
	<path fill="#28ADBE" d="M20.2127,29.7208c-0.0313,0.2507-0.4644,0.5129-0.6297,0.6895c-1.2252,1.3049-2.4902,2.5728-3.798,3.7951
		c-0.3163,0.2935-0.6838,0.5271-1.1397,0.2336c-0.473-0.4673-0.9488-0.9402-1.4217-1.4075
		c-0.0057-0.0057-0.0085-0.0085-0.0142-0.0142c1.7238-1.7038,3.3649-3.4846,5.1855-5.0887
		c0.0085,0.0085,0.0171,0.0142,0.0256,0.0228c0.4103,0.3505,0.8576,0.718,1.265,1.1226c0.1282,0.1254,0.3789,0.2906,0.4844,0.4701
		C20.2013,29.6012,20.2184,29.661,20.2127,29.7208z"/>
	<path fill="#2BAFB5" d="M27.8856,16.2242c-1.3505,2.0714-2.9347,3.9062-5.1741,5.0716c-1.4588-1.2422-1.4588-1.2422-0.1368-2.5671
		c0.9317-0.9345,1.8634-1.8662,2.7979-2.7979c1.2479-1.2479,1.2479-1.2479,2.4702,0.1624v0.0028l0.0028,0.0028
		C27.86,16.1444,27.8998,16.2014,27.8856,16.2242z"/>
	<path fill="#27AEB9" d="M18.4234,27.9486c0,0,0,0.0028-0.0028,0.0028c-1.4417,1.9887-3.08,3.7809-5.1969,5.0801
		c-0.0057-0.0057-0.0085-0.0085-0.0142-0.0142c-0.3618-0.3647-0.7351-0.755-1.0969-1.1226l-0.0028-0.0029
		c-0.0427-0.0883-0.0598-0.2194-0.0142-0.2821c1.3733-1.9232,3.2424-3.3136,4.9376-4.949c0.0712-0.0684,0.114-0.0826,0.1482-0.0712
		c0,0,0,0,0.0028,0.0028c0.0114,0.0057,0.0228,0.0142,0.0313,0.0228c0,0,0.0028,0.0057,0.0057,0.0057
		c0.0171,0.0199,0.0313,0.0427,0.0513,0.0598c0.0085,0.0085,0.0171,0.0142,0.0285,0.0199
		C17.7111,27.0483,18.0217,27.5697,18.4234,27.9486z"/>
	<path fill="#2BAFB5" d="M17.2752,26.6921c-0.0541,0.5812-1.3847,1.2679-1.738,1.6041c-1.2024,1.1397-2.3563,2.3363-3.4247,3.5985
		c-0.0028,0.0028-0.0028,0.0028-0.0057,0.0057c-1.4588-1.2451-1.4588-1.2451-0.1311-2.5728
		c0.9345-0.9345,1.8691-1.8719,2.8065-2.8065c0.755-0.7522,1.0855-1.1368,1.8235-0.4331c0.1026,0.0969,0.4559,0.3476,0.5442,0.4701
		c0.0057,0.0085,0.0171,0.0199,0.0313,0.0313c0,0,0,0,0.0028,0.0028c0.0085,0.0085,0.0199,0.0171,0.0313,0.0228
		c0,0,0.0028,0.0057,0.0057,0.0057c0.0228,0.0199,0.0456,0.0427,0.0513,0.0598C17.2752,26.6864,17.2752,26.6893,17.2752,26.6921z"/>
	<path fill="#27AEB9" d="M29.3159,17.569c-1.5642,1.134-2.7409,2.6697-4.157,3.9575c-0.4046,0.3704-0.6924,0.9146-1.3448,0.926
		c-0.3675-0.3846-0.7351-0.7693-1.1026-1.1568c1.8007-1.644,3.5871-3.3022,5.1314-5.1998l0.0028,0.0028
		C28.3357,16.5889,28.823,17.079,29.3159,17.569z"/>
	<path fill="#25B290" d="M10.6565,12.4832C9.363,13.9505,7.984,15.2013,5.793,14.5004c-0.1681-0.0256-0.2393-0.1282-0.2251-0.2935
		c-0.1653-0.2137-0.1368-0.4559-0.1168-0.6952c0.0028-0.0342,0.0057-0.0712,0.0085-0.1083c0.0484-0.0513,0.0969-0.0997,0.1482-0.151
		c0.0057-0.0085,0.0142-0.0142,0.0199-0.0228c1.1653-1.1995,2.3278-2.4047,3.5558-3.5415C9.1892,9.6824,9.1978,9.6739,9.2035,9.671
		c0.057-0.0541,0.114-0.1083,0.171-0.1596c0.0285-0.0028,0.057-0.0028,0.0855-0.0057c0.2507-0.0142,0.5015-0.0313,0.7322,0.1054
		h0.0028C11.2463,10.4233,10.4941,11.5259,10.6565,12.4832z"/>
	<path fill="#26B295" d="M18.4889,6.7421c-1.2679,1.7864-2.8834,3.2338-4.5502,4.6271c-0.245,0.2051-0.5527,0.3818-0.9146,0.2393
		c-0.3932-0.3732-0.7864-0.7493-1.1767-1.1226c1.4417-2.0172,3.2196-3.7011,5.1656-5.2197
		C17.506,5.7591,17.9961,6.2492,18.4889,6.7421z"/>
	<path fill="#28AEC2" d="M20.0076,31.8377c-0.926,0.9288-1.8548,1.8605-2.7837,2.7865c-1.2907,1.285-1.3192,1.2793-2.5785-0.1852
		c1.0371-0.1681,1.5243-1.0628,2.1397-1.7238c0.51-0.5499,1.0998-1.0115,1.6411-1.53c0.4131-0.3903,0.6781-0.8975,1.0115-1.3534
		c0.3191-0.4331,0.4872-0.4787,0.7322-0.2878c0.1083,0.0855,0.2336,0.2222,0.396,0.3932c0.1482,0.1567,0.2963,0.3305,0.3533,0.5385
		C21.076,31.0371,20.3409,31.5073,20.0076,31.8377z"/>
	<path fill="#23B197" d="M8.4256,17.8938c-0.0826,0.094-0.1681,0.1909-0.2507,0.2849c-1.5072,1.6953-3.0942,3.3108-4.8237,4.7809
		c-0.0313,0.0285-0.0655,0.057-0.0997,0.0855c-0.4188-0.3647-0.7864-0.7208-1.1397-1.1397c0.0228-0.0313,0.0484-0.0627,0.0712-0.094
		c1.3847-1.8292,2.9717-3.4589,4.8037-4.8351c0.0997-0.0741,0.1994-0.1482,0.2992-0.2222
		C7.7532,17.0448,8.1322,17.4237,8.4256,17.8938z"/>
	<path fill="#28AEC2" d="M30.8687,20.9966c-1.0627,0.9915-2.0628,2.0486-3.0942,3.0771c-1.265,1.2622-1.265,1.2593-2.4959-0.208
		c1.2024-0.3818,1.7636-1.5215,2.6554-2.2708c0.9773-0.8205,1.701-1.9147,2.8065-2.6013
		C31.7235,19.6005,31.6921,20.2302,30.8687,20.9966z"/>
	<path fill="#25B290" d="M17.0131,5.2662c-1.5528,1.9061-3.3336,3.5871-5.1656,5.2197c-1.0115-0.6268-1.0684-1.2679-0.1596-2.097
		c1.1511-1.0514,2.2509-2.1654,3.3136-3.3079C15.805,4.2177,16.4233,4.3146,17.0131,5.2662z"/>
	<path fill="#24B194" d="M7.2859,16.7541c-0.0826,0.0912-0.1624,0.1852-0.245,0.2764c-1.5101,1.701-3.1028,3.325-4.8408,4.798
		c-0.0285,0.0256-0.0598,0.0513-0.0883,0.0769c-0.4844-0.3391-0.8063-0.6867-1.1425-1.04
		c-0.0171-0.0171-0.0342-0.0313-0.0484-0.0484c0.0655-0.0114,0.1282-0.0256,0.188-0.0399c0.0028,0,0.0028,0,0.0028,0
		c0.9146-0.2479,1.4217-1.1197,1.9973-1.738c0.9488-1.0229,2.2024-1.7807,2.8634-3.0572c0.0655-0.1197,0.1225-0.2422,0.1738-0.3704
		C6.6135,15.9051,6.9925,16.284,7.2859,16.7541z"/>
	<path fill="#28B0AA" d="M10.6565,26.7292c-1.1454,1.3021-2.399,2.4987-3.6584,3.6897c-1.1682,0.2792-1.701-0.1738-1.6013-1.3762
		c0.0884-1.0741-0.1738-2.1597,0.1567-3.2224c0.6924,0.7636,0.1823,1.7238,0.4901,2.7751c1.2138-1.0314,1.9859-2.3962,3.2338-3.2452
		C10.4229,25.1222,10.8759,25.5923,10.6565,26.7292z"/>
	<path fill="#2CB1AD" d="M26.5294,13.7711c0.0114,0.4559-0.1966,0.9174-0.7009,0.906c-1.2565-0.0313-2.5301,0.2422-3.778-0.0399
		c-0.1767-0.0399-0.3533-0.0912-0.5299-0.1567c0.9003,0.2165,1.4075-0.4245,1.8833-0.9659
		c0.9972-1.1311,2.5386-1.7864,2.9945-3.3934c0.0541,0.208,0.094,0.416,0.1197,0.624
		C26.649,11.7481,26.5094,12.7624,26.5294,13.7711z"/>
	<path fill="#25B198" d="M19.3437,7.5969c-1.5813,1.1511-2.778,2.7067-4.2111,4.0117c-0.3761,0.3419-0.6411,0.8519-1.2479,0.8633
		c-0.3675-0.208-0.6639-0.4872-0.8605-0.8633c1.6953-0.9944,2.8634-2.57,4.2823-3.872c0.3789-0.3476,0.7864-0.6639,1.1824-0.9944
		L19.3437,7.5969z"/>
	<path fill="#25B0A4" d="M9.2775,25.3502c-0.9345,1.4787-2.0429,2.7894-3.7239,4.0772v-3.6071
		c0.2108-0.8291,0.8889-0.4758,1.3762-0.5015C7.7076,25.2761,8.494,25.3331,9.2775,25.3502z"/>
	<path fill="#24AFAD" d="M6.9982,30.4189c0.8804-1.5699,2.1255-2.7723,3.6584-3.6897c0.0085,0.0456,0.0199,0.0912,0.0199,0.1368
		C10.6451,31.0371,11.4429,30.5015,6.9982,30.4189z"/>
	<path fill="#676A6E" d="M91.5194,12.9904c-0.02,0.9516-0.6239,1.55-1.738,1.5357c-0.9716-0.0712-1.4759-0.6924-1.436-1.6696
		c0.037-0.9345,0.6439-1.4759,1.5727-1.4759C90.9353,11.3834,91.5393,12.0387,91.5194,12.9904z"/>
	<path fill="#20B289" d="M9.2718,9.691c-0.9203,1.5072-2.134,2.721-3.6413,3.6413c-0.0085-0.0256-0.0171-0.0541-0.0228-0.0798
		c-0.3334-1.1055-0.2109-2.2167-0.0313-3.3307c0.0057-0.1795,0.094-0.2821,0.2764-0.2906c1.1197-0.171,2.2395-0.2992,3.3506,0.0399
		C9.2262,9.6768,9.249,9.6824,9.2718,9.691z"/>
	<path fill="#2BB29F" d="M22.9194,7.6994c-0.4559,0.4245-0.8405,1.3733-1.4502,1.0998c-0.5584-0.2479-0.2051-1.1967-0.2051-1.8263
		c0.0028-0.5698-0.3334-1.322,0.4701-1.6924c0.7664,0.3163,1.6383,0.4131,2.0001,1.0969
		C24.0648,7.0099,23.3012,7.3433,22.9194,7.6994z"/>
	<path fill="#2CB3A0" d="M5.2943,25.2988c-0.8291,0.8548-1.3933,1.3961-1.9118,1.9773c-0.7237,0.8149-1.1625,0.6981-1.624-0.2877
		c-0.7579-1.6184-0.7493-1.6867,1.0656-1.6896H5.2943z"/>
	<path fill="#2DB68D" d="M5.32,14.7255H2.9438c-1.9232-0.0028-1.9688-0.1311-1.1197-1.8605
		c0.4388-0.8975,0.8605-0.869,1.4673-0.2336C3.8584,13.2268,4.4339,13.8109,5.32,14.7255z"/>
	<path fill="#33B1B7" d="M30.0168,14.7198c-0.4245,0.0057-0.8491,0-1.2736,0c0,0.0028,0,0.0057,0,0.0057
		c-0.188,0-0.3789,0.0199-0.5641-0.0028c-0.359-0.0456-0.869,0.1937-1.0428-0.1823c-0.2222-0.473,0.3704-0.6667,0.6069-0.9801
		c0.1396-0.1852,0.3134-0.3533,0.4986-0.4986c0.4217-0.3305,0.7123-1.1169,1.3391-0.8263c0.6496,0.3049,0.7864,1.1311,1.0286,1.7807
		C30.7861,14.4862,30.4812,14.7113,30.0168,14.7198z"/>
	<path fill="#28B48A" d="M10.705,9.0898c-0.9887-0.4872-1.416-1.1967-2.0143-1.6953C7.833,6.6794,8.0239,6.2179,8.9755,5.7705
		c1.5414-0.7265,1.7266-0.6382,1.7294,1.0855C10.7078,7.5142,10.705,8.1695,10.705,9.0898z"/>
	<path fill="#2EAFCA" d="M29.6834,27.7321c-0.2906,0.3106-0.6126,0.0285-0.8548-0.2023c-0.6838-0.6496-1.2052-1.4189-1.9033-1.9773
		c0.1197-0.1852,0.0513-0.0655,0.171-0.2536c0.6924,0,1.2764-0.0456,1.9916-0.0655c0.4986-0.0142,1.416-0.0997,1.4987,0.4929
		C30.6835,26.4443,30.202,27.1765,29.6834,27.7321z"/>
	<path fill="#2CAECA" d="M23.458,33.9376c-0.4559,0.2479-0.9231,0.4872-1.4075,0.6724c-0.547,0.2108-0.8006-0.0627-0.8035-0.6126
		c-0.0028-0.9459,0-1.889,0-3.1227c1.1055,0.6496,1.6924,1.4531,2.3791,2.134C23.968,33.345,23.8711,33.7125,23.458,33.9376z"/>
	<path fill="#28ADBF" d="M24.4865,25.2675c-0.7237,1.3363-1.8577,2.4475-3.1939,3.1711c-0.0484-3.1854,0.3505-3.1569,3.0059-3.1711
		H24.4865z"/>
	<path fill="#27B294" d="M8.5282,14.7027c-0.9117-0.0171-1.8548,0.2593-2.7352-0.2023c1.4246,0.0826,2.7723,0.0285,3.6356-1.416
		c0.2279-0.3818,0.7465-0.5413,1.228-0.6012C10.7762,14.717,10.7734,14.7483,8.5282,14.7027z"/>
	<path fill="#2CB1AD" d="M25.9937,9.634c-1.4189-0.0085-2.8406-0.0171-4.2595-0.0285C23.1531,9.3719,24.5777,9.3263,25.9937,9.634z"
		/>
	<path fill="#32B592" d="M10.1921,9.6112C9.8873,9.6369,9.5795,9.6625,9.2718,9.691c-0.0285,0-0.0598,0-0.0883-0.0028
		C8.0723,9.671,6.964,9.6511,5.8528,9.6312c1.1995-0.2593,2.4047-0.2707,3.6071-0.1254C9.7049,9.5343,9.9471,9.5713,10.1921,9.6112z
		"/>
	<path fill="#32B592" d="M5.6305,13.3322c-0.0199,0.2906-0.0399,0.5841-0.0627,0.8747c-0.0456-0.2308-0.0855-0.4616-0.1168-0.6952
		c-0.1624-1.1967-0.1311-2.3933,0.1254-3.59c0.0171,1.1026,0.037,2.2053,0.0513,3.3079
		C5.6305,13.2639,5.6305,13.2981,5.6305,13.3322z"/>
	<path fill="#2FAFC8" d="M26.3926,29.9117c-0.0028-1.3562-0.0028-2.7124-0.0057-4.0686
		C26.6661,27.1964,26.6547,28.5555,26.3926,29.9117z"/>
</g>
</svg>
